<?xml version="1.0" standalone="no"?>
<!DOCTYPE svg PUBLIC "-//W3C//DTD SVG 20010904//EN"
 "http://www.w3.org/TR/2001/REC-SVG-20010904/DTD/svg10.dtd">
<svg version="1.0" xmlns="http://www.w3.org/2000/svg"
 width="700.000000pt" height="700.000000pt" viewBox="0 0 700.000000 700.000000"
 preserveAspectRatio="xMidYMid meet">
<metadata>
Created by potrace 1.14, written by Peter Selinger 2001-2017
</metadata>
<g transform="translate(0.000000,700.000000) scale(0.100000,-0.100000)"
fill="#000000" stroke="none">
<path d="M1538 6395 c-2 -2 -25 -5 -53 -8 -176 -19 -385 -101 -538 -211 -99
-71 -119 -88 -223 -191 -150 -149 -240 -284 -312 -470 -80 -206 -98 -431 -47
-580 69 -201 166 -288 356 -318 120 -19 121 -18 98 49 -36 101 -48 200 -44
364 2 85 6 173 9 195 14 92 17 110 32 183 20 98 82 286 124 377 77 162 189
292 297 342 156 72 340 80 458 19 48 -25 105 -87 135 -145 33 -66 67 -165 75
-219 2 -20 9 -66 14 -102 9 -67 8 -788 -2 -850 -3 -19 -8 -64 -12 -100 -3 -36
-8 -74 -10 -85 -3 -11 -7 -46 -10 -77 -3 -31 -7 -63 -9 -70 -3 -7 -7 -38 -11
-68 -10 -94 -114 -564 -162 -729 -24 -86 -46 -163 -48 -171 -8 -39 -39 -153
-62 -230 -49 -168 -109 -361 -132 -430 -49 -143 -107 -329 -186 -590 -47 -157
-99 -328 -115 -380 -91 -292 -133 -512 -133 -690 0 -109 3 -135 26 -205 42
-124 99 -194 218 -267 57 -34 150 -71 209 -82 14 -3 49 -9 79 -15 235 -47 524
67 821 323 66 57 153 106 235 134 86 29 121 35 203 34 86 0 147 -30 173 -84 9
-18 32 -67 51 -108 106 -228 413 -354 713 -293 120 25 307 107 451 199 50 31
227 171 309 243 172 152 439 441 634 686 224 280 507 708 708 1070 28 50 61
108 73 130 51 89 220 429 283 567 118 260 242 586 333 873 35 109 102 357 109
405 2 14 11 63 19 110 20 116 24 143 33 230 9 92 10 417 0 485 -28 211 -89
341 -213 454 -74 68 -125 93 -199 98 -54 4 -67 1 -140 -35 -88 -44 -158 -109
-239 -222 -49 -68 -54 -80 -33 -80 8 0 41 -14 74 -30 153 -76 265 -279 290
-524 16 -158 5 -479 -22 -616 -3 -14 -7 -43 -11 -65 -19 -134 -110 -486 -181
-694 -65 -194 -139 -382 -224 -569 -16 -34 -29 -66 -29 -70 0 -12 -71 -104
-108 -140 -18 -17 -76 -64 -130 -104 -53 -40 -99 -75 -102 -78 -3 -3 -39 -34
-80 -70 -88 -75 -315 -302 -520 -519 -253 -268 -438 -423 -573 -478 -125 -52
-281 -29 -334 50 -41 61 -46 123 -28 307 26 258 -23 373 -191 457 -72 35 -80
37 -182 37 -59 1 -125 -2 -147 -6 -59 -10 -168 -50 -269 -98 -129 -61 -183
-55 -258 28 -91 101 -179 395 -213 707 -3 33 -8 76 -10 95 -20 171 -26 372
-30 1005 -2 330 -6 618 -9 640 -3 22 -8 69 -11 105 -29 299 -97 516 -214 694
-25 37 -59 93 -76 122 -60 108 -175 219 -280 272 -46 23 -153 57 -211 67 -36
7 -261 15 -266 10z"/>
<path d="M5489 5228 c-49 -13 -89 -57 -104 -115 -16 -61 -8 -88 53 -177 46
-69 68 -117 78 -174 3 -15 9 -44 14 -65 9 -41 6 -315 -4 -357 -4 -14 -8 -38
-11 -55 -3 -16 -7 -41 -10 -55 -3 -14 -7 -38 -10 -55 -41 -250 -278 -782 -491
-1102 -74 -111 -90 -158 -59 -169 28 -11 64 6 110 54 49 50 165 213 165 231 0
6 5 11 10 11 6 0 10 4 10 9 0 5 23 49 51 98 66 113 193 376 268 551 145 340
212 564 237 782 3 30 7 66 9 80 9 56 5 257 -5 290 -10 36 -55 105 -99 153 -52
57 -139 84 -212 65z"/>
<path d="M285 4369 c-24 -177 8 -287 111 -377 152 -134 374 -79 374 92 0 38
-6 52 -34 83 -32 36 -66 54 -290 158 -44 20 -96 50 -117 66 l-37 29 -7 -51z"/>
</g>
</svg>
