<svg width="53" height="53" viewBox="0 0 53 53" fill="none" xmlns="http://www.w3.org/2000/svg">
<rect width="53" height="53" rx="13" fill="#FCF8F1"/>
<mask id="mask0_921_43" style="mask-type:alpha" maskUnits="userSpaceOnUse" x="0" y="0" width="53" height="53">
<path d="M0 13C0 5.8203 5.8203 0 13 0H40C47.1797 0 53 5.8203 53 13V40C53 47.1797 47.1797 53 40 53H13C5.8203 53 0 47.1797 0 40V13Z" fill="#FCF8F1"/>
</mask>
<g mask="url(#mask0_921_43)">
<ellipse cx="26.5" cy="47" rx="31.5" ry="12" fill="url(#paint0_linear_921_43)" fill-opacity="0.09"/>
</g>
<path d="M38.8527 17.5L34.5913 13.1666C33.7937 12.3555 32.701 11.9333 31.5865 12.0111C30.472 12.0777 29.434 12.6333 28.7565 13.5333L19.6219 25.4889L19.3597 25.2222C18.9882 24.8444 18.4965 24.6444 17.9829 24.6444C17.4694 24.6444 16.9777 24.8555 16.6062 25.2222L16.4095 25.4222C15.6447 26.2 15.6447 27.4555 16.4095 28.2333L16.7592 28.5889C15.2404 30.5889 15.4043 33.4222 17.1744 35.2111C18.1359 36.1889 19.3925 36.6777 20.6599 36.6777C21.7198 36.6777 22.7906 36.3333 23.6757 35.6222L24.0253 35.9777C24.7902 36.7555 26.0249 36.7555 26.7898 35.9777L26.9864 35.7777C27.7513 35 27.7513 33.7444 26.9864 32.9666L26.746 32.7222L38.4921 23.4222C39.3772 22.7333 39.9235 21.6777 39.9891 20.5444C40.0546 19.4111 39.6394 18.3 38.8527 17.5ZM38.7434 20.4666C38.6997 21.2333 38.3282 21.9444 37.7273 22.4111L25.8391 31.8111L20.5179 26.4L29.7399 14.3111C30.3737 13.4777 31.4445 13.1 32.4497 13.3444C32.9196 13.4555 33.3676 13.7222 33.7281 14.0889L37.9567 18.3889C38.503 18.9333 38.7871 19.6889 38.7434 20.4666ZM17.2836 26.3111L17.4803 26.1111C17.6114 25.9777 17.7972 25.9 17.972 25.9C18.1468 25.9 18.3326 25.9666 18.4637 26.1111L26.1014 33.8777C26.2325 34.0111 26.309 34.1889 26.309 34.3777C26.309 34.5666 26.2325 34.7444 26.1014 34.8777L25.9047 35.0777C25.6315 35.3555 25.1945 35.3555 24.9213 35.0777L17.2836 27.3111C17.0105 27.0444 17.0105 26.5889 17.2836 26.3111ZM22.7797 34.7111C21.3265 35.7555 19.316 35.5889 18.0594 34.3C16.8029 33.0222 16.639 30.9777 17.6551 29.5L22.7797 34.7111Z" fill="#3C2323"/>
<path d="M34.9739 20.9777L27.2269 27.0888C27.0849 27.1999 26.9975 27.3777 26.9865 27.5555C26.9756 27.7333 27.0412 27.911 27.1723 28.0444C27.2925 28.1666 27.4564 28.2333 27.6203 28.2333C27.7514 28.2333 27.8934 28.1888 28.0027 28.0999L35.7496 21.9888C35.8917 21.8777 35.9791 21.711 35.99 21.5333C36.001 21.3444 35.9354 21.1666 35.8043 21.0333C35.5748 20.7999 35.2142 20.7777 34.9739 20.9777Z" fill="#3C2323"/>
<path d="M15.6119 38.7888C15.2732 38.7888 15 39.0666 15 39.3999C15 39.7333 15.2732 40.0222 15.6119 40.0222C15.9506 40.0222 16.2128 39.7444 16.2128 39.3999C16.2128 39.0555 15.9397 38.7888 15.6119 38.7888Z" fill="#3C2323"/>
<path d="M18.9444 40.4556C18.6057 40.4556 18.3325 40.7333 18.3325 41.0667C18.3325 41.4 18.6057 41.6889 18.9444 41.6889C19.2831 41.6889 19.5454 41.4111 19.5454 41.0667C19.5454 40.7222 19.2722 40.4556 18.9444 40.4556Z" fill="#3C2323"/>
<path d="M21.0206 38.2555C20.6819 38.2555 20.4087 38.5333 20.4087 38.8666C20.4087 39.1999 20.6819 39.4777 21.0206 39.4777C21.3593 39.4777 21.6215 39.1999 21.6215 38.8666C21.6215 38.5333 21.3484 38.2555 21.0206 38.2555Z" fill="#3C2323"/>
<path d="M17.8956 37.1777C17.5569 37.1777 17.2837 37.4555 17.2837 37.7888C17.2837 38.1222 17.5569 38.4111 17.8956 38.4111C18.2343 38.4111 18.4965 38.1333 18.4965 37.7888C18.4965 37.4444 18.2234 37.1777 17.8956 37.1777Z" fill="#3C2323"/>
<path d="M15.6119 42.4778C15.2732 42.4778 15 42.7556 15 43.0889C15 43.4222 15.2732 43.7 15.6119 43.7C15.9506 43.7 16.2128 43.4222 16.2128 43.0889C16.2128 42.7556 15.9397 42.4778 15.6119 42.4778Z" fill="#3C2323"/>
<path d="M20.496 42.7666C20.1573 42.7666 19.895 43.0444 19.895 43.3888C19.895 43.7333 20.1682 43.9999 20.496 43.9999C20.8347 43.9999 21.1079 43.7222 21.1079 43.3888C21.1079 43.0555 20.8238 42.7666 20.496 42.7666Z" fill="#3C2323"/>
<defs>
<linearGradient id="paint0_linear_921_43" x1="26.5" y1="35" x2="26.5" y2="59" gradientUnits="userSpaceOnUse">
<stop stop-color="#CDBB9C"/>
<stop offset="1" stop-color="#CDBB9C" stop-opacity="0"/>
</linearGradient>
</defs>
</svg>
