<svg width="15" height="13" viewBox="0 0 15 13" fill="none" xmlns="http://www.w3.org/2000/svg">
<g clip-path="url(#clip0_90_82)">
<path d="M9.90563 1.34021C7.35847 -0.670096 3.53771 -0.402055 1.41507 2.01032C-0.707572 4.42269 -0.424553 7.97423 2.12262 10.0516C4.38677 11.8608 7.78299 11.7938 9.97639 9.98454L13.5849 12.866C13.9387 13.134 14.5047 13.134 14.8585 12.799C15.1415 12.4639 15.1415 11.9278 14.7877 11.5928L11.1792 8.71135C12.6651 6.29898 12.1698 3.2165 9.90563 1.34021ZM9.19809 8.24228C7.71224 9.91753 5.02356 10.1186 3.25469 8.71135C1.48582 7.30413 1.27356 4.75774 2.75941 3.08248C4.24526 1.40722 6.93394 1.20619 8.7028 2.61341C10.5424 4.02063 10.7547 6.56702 9.19809 8.24228Z" fill="white"/>
</g>
<defs>
<clipPath id="clip0_90_82">
<rect width="15" height="13" fill="white"/>
</clipPath>
</defs>
</svg>
