<svg width="12" height="12" viewBox="0 0 12 12" fill="none" xmlns="http://www.w3.org/2000/svg">
<path d="M11.8854 4.46097C11.6995 3.8513 11.2847 3.36059 10.7412 3.0632C10.1977 2.7658 9.56836 2.72119 8.98195 2.9145L8.29542 3.15242V2.39405C8.28112 1.07063 7.25132 0 5.97837 0C4.70543 0 3.66133 1.07063 3.66133 2.40892V3.15242L3.01771 2.92937C1.81628 2.51301 0.500425 3.2119 0.114251 4.46097C-0.286226 5.72491 0.386003 7.07807 1.60174 7.49442L2.20245 7.7026L1.85919 8.19331C1.11544 9.26394 1.34429 10.7658 2.37408 11.5539C2.78886 11.8662 3.26085 12.0149 3.73284 12.0149C4.44798 12.0149 5.14882 11.6729 5.6065 11.0186L6.00698 10.4387L6.40746 11.0186C7.1512 12.0892 8.61008 12.3271 9.63988 11.5539C10.1405 11.1822 10.4694 10.6171 10.5696 9.99256C10.6697 9.35316 10.5123 8.72862 10.1548 8.20818L9.81151 7.71747L10.4122 7.50929C11.6137 7.07807 12.2859 5.72491 11.8854 4.46097ZM7.75191 6.34944L6.82224 6.66171L7.36574 7.42007C7.53737 7.65799 7.48016 7.97026 7.26562 8.1487C7.1798 8.22305 7.06538 8.25279 6.96526 8.25279C6.80793 8.25279 6.66491 8.17844 6.56479 8.04461L6.00698 7.25651L5.43487 8.04461C5.33475 8.17844 5.19172 8.25279 5.03439 8.25279C4.93427 8.25279 4.81985 8.22305 4.73404 8.1487C4.5195 7.97026 4.47659 7.64312 4.63392 7.42007L5.17742 6.67658L4.23344 6.36431C3.97599 6.27509 3.81866 5.9777 3.90448 5.71004C3.99029 5.44238 4.27635 5.27881 4.5338 5.36803L5.49208 5.6803V4.77323C5.49208 4.49071 5.72093 4.25279 5.99268 4.25279C6.26443 4.25279 6.49327 4.49071 6.49327 4.77323V5.66543L7.42295 5.35316C7.6804 5.26394 7.96646 5.41264 8.05227 5.6803C8.16669 5.97769 8.02367 6.26022 7.75191 6.34944Z" fill="#3C2323"/>
</svg>
