<svg width="53" height="53" viewBox="0 0 53 53" fill="none" xmlns="http://www.w3.org/2000/svg">
<path d="M0 13C0 5.8203 5.8203 0 13 0H40C47.1797 0 53 5.8203 53 13V40C53 47.1797 47.1797 53 40 53H13C5.8203 53 0 47.1797 0 40V13Z" fill="#FCF8F1"/>
<mask id="mask0_693_38" style="mask-type:alpha" maskUnits="userSpaceOnUse" x="0" y="0" width="53" height="53">
<path d="M0 13C0 5.8203 5.8203 0 13 0H40C47.1797 0 53 5.8203 53 13V40C53 47.1797 47.1797 53 40 53H13C5.8203 53 0 47.1797 0 40V13Z" fill="#FCF8F1"/>
</mask>
<g mask="url(#mask0_693_38)">
<ellipse cx="26.5" cy="47" rx="31.5" ry="12" fill="url(#paint0_linear_693_38)" fill-opacity="0.09"/>
</g>
<g clip-path="url(#clip0_693_38)">
<path d="M26.793 15.2423C23.2739 15.2423 20.9013 14.8821 20.3439 14.6001C20.4236 14.5531 19.7229 14.3965 19.707 14.5218C18.4331 16.9966 16.6975 22.5884 19.0223 26.3475C20.4236 28.6031 23.035 29.7778 26.793 29.8091C26.9363 29.8091 27.0796 29.8091 27.2229 29.7935V15.2423C27.0796 15.2423 26.9363 15.2423 26.793 15.2423Z" fill="white"/>
<path d="M35.2164 23.4655C34.5795 26.4258 32.3661 28.9163 26.9999 28.9163C19.1336 28.9163 18.8948 23.3558 18.8948 23.3558C21.3629 22.3377 24.8661 23.6691 26.6336 24.2486C33.7355 26.4885 35.2164 23.4655 35.2164 23.4655Z" fill="#611C32"/>
<path opacity="0.8" d="M35.2163 23.4498C32.7482 22.4317 29.245 23.7631 27.4775 24.3426C27.0157 24.4993 26.5698 24.6246 26.1399 24.7185C27.8278 25.4704 29.9615 26.2222 31.9998 26.3632C34.4361 25.7836 35.2163 23.4498 35.2163 23.4498Z" fill="#611C32"/>
<path d="M34.9615 13.2687C34.9137 12.9241 34.4838 12.5795 32.4615 12.3133C30.9965 12.1096 29.0698 12 27.0156 12C24.9456 12 23.0188 12.1096 21.5538 12.3133C19.5156 12.5952 19.1016 12.9398 19.0538 13.2687C17.6207 16.0568 15.678 22.3377 18.2736 26.5511C19.8023 29.0259 22.6366 30.326 26.6812 30.42V40.2095C23.9583 40.2408 19.3245 40.6637 19.3245 42.1047C19.3245 43.6084 24.3405 44 26.9997 44C29.6589 44 34.6749 43.6084 34.6749 42.1047C34.6749 40.6637 30.0411 40.2408 27.3182 40.2095V30.42C31.3628 30.326 34.1972 29.0259 35.7258 26.5511C38.3373 22.3377 36.3787 16.0568 34.9615 13.2687ZM26.9997 12.6265C30.9488 12.6265 33.6239 13.0338 34.2449 13.347C33.6239 13.676 30.9647 14.0675 26.9997 14.0675C23.0507 14.0675 20.3755 13.6603 19.7545 13.347C20.3755 13.0338 23.0507 12.6265 26.9997 12.6265ZM34.0379 42.1047C34.0379 42.5433 31.5538 43.3735 26.9997 43.3735C22.4456 43.3735 19.9615 42.5277 19.9615 42.1047C19.9615 41.6818 22.3341 40.8674 26.6812 40.836V41.4469C26.6812 41.6192 26.8245 41.7602 26.9997 41.7602C27.1749 41.7602 27.3182 41.6192 27.3182 41.4469V40.836C31.6653 40.8674 34.0379 41.6818 34.0379 42.1047ZM35.1844 26.2222C33.7354 28.556 30.9806 29.7621 27.0156 29.7934C23.0347 29.7621 20.28 28.556 18.8309 26.2222C16.6175 22.651 17.9392 17.0592 19.4519 13.8953C19.8023 14.0832 20.4233 14.2555 21.5538 14.4121C23.0188 14.6158 24.9456 14.7254 26.9997 14.7254C29.0538 14.7254 30.9965 14.6158 32.4456 14.4121C33.5761 14.2555 34.1972 14.0832 34.5475 13.8953C36.0761 17.0592 37.3819 22.651 35.1844 26.2222Z" fill="#3C2323"/>
<path d="M30.3759 25.4547C29.1498 25.4547 27.7007 25.2198 26.0288 24.5463C25.774 24.4366 25.4714 24.3113 25.153 24.1703C23.3377 23.3559 20.8695 22.2438 19.102 23.5908C18.9587 23.7005 18.7676 23.6691 18.6561 23.5282C18.5447 23.3872 18.5765 23.1992 18.7198 23.0896C20.7899 21.5076 23.5765 22.7607 25.4237 23.5908C25.7262 23.7318 26.0288 23.8571 26.2676 23.9667C26.4746 24.045 26.6816 24.1234 26.8886 24.2017C27.016 24.139 27.1593 24.0764 27.2867 24.0137C29.2294 23.1209 31.2198 22.1968 35.0733 23.2932C35.1848 23.3245 35.2644 23.4029 35.2963 23.5125C35.3281 23.6221 35.2963 23.7318 35.2167 23.8101C35.1052 23.9041 33.4651 25.4547 30.3759 25.4547ZM27.7803 24.4679C31.2039 25.3764 33.3854 24.327 34.2772 23.7318C31.188 22.9956 29.5001 23.6848 27.7803 24.4679Z" fill="#3C2323"/>
</g>
<defs>
<linearGradient id="paint0_linear_693_38" x1="26.5" y1="35" x2="26.5" y2="59" gradientUnits="userSpaceOnUse">
<stop stop-color="#CDBB9C"/>
<stop offset="1" stop-color="#CDBB9C" stop-opacity="0"/>
</linearGradient>
<clipPath id="clip0_693_38">
<rect width="20" height="32" fill="white" transform="translate(17 12)"/>
</clipPath>
</defs>
</svg>
