<svg width="53" height="53" viewBox="0 0 53 53" fill="none" xmlns="http://www.w3.org/2000/svg">
<rect width="53" height="53" rx="13" fill="#FCF8F1"/>
<mask id="mask0_921_40" style="mask-type:alpha" maskUnits="userSpaceOnUse" x="0" y="0" width="53" height="53">
<path d="M0 13C0 5.8203 5.8203 0 13 0H40C47.1797 0 53 5.8203 53 13V40C53 47.1797 47.1797 53 40 53H13C5.8203 53 0 47.1797 0 40V13Z" fill="#FCF8F1"/>
</mask>
<g mask="url(#mask0_921_40)">
<ellipse cx="26.5" cy="47" rx="31.5" ry="12" fill="url(#paint0_linear_921_40)" fill-opacity="0.09"/>
</g>
<path d="M31.8846 17.9722H28.0256C28.25 16.8438 28.3846 15.7153 28.4295 14.5417C28.4295 14.4965 28.4295 14.4514 28.4295 14.4514C28.3846 14.316 28.3397 14.1806 28.2051 14.0903C28.0705 14 27.891 14 27.7564 14L25.0641 14.4514C25.0192 14.4514 25.0192 14.4514 24.9744 14.4514C24.6603 14.5417 24.5256 14.8576 24.6154 15.1736C24.8846 16.0764 25.0192 17.0243 25.0192 17.9722H21.1154C18.2885 17.9722 16 20.3194 16 23.1181C16 24.2465 16.7179 25.1944 17.7949 25.4653V30.0694C17.7949 33.2292 19.5 36.1632 22.2821 37.7431L26.1859 39.9549C26.2756 40 26.3654 40.0451 26.5 40.0451C26.5897 40.0451 26.7244 40 26.8141 39.9549L30.7179 37.7431C33.5 36.2083 35.2051 33.2743 35.2051 30.0694V25.4653C36.2821 25.1944 37 24.2465 37 23.1181C37 20.3194 34.7115 17.9722 31.8846 17.9722ZM33.9487 25.5556V30.0694C33.9487 32.7778 32.4679 35.3056 30.1346 36.6146L26.5 38.6458L22.8654 36.6146C20.4872 35.3056 19.0513 32.7778 19.0513 30.0694V25.5556H33.9487ZM25.8718 15.4896L27.2628 15.2639C27.2179 16.2118 27.0833 17.1146 26.859 18.0174H26.141C26.141 17.1146 26.0513 16.3021 25.8718 15.4896ZM35.7436 23.1181C35.7436 23.75 35.2051 24.2917 34.5769 24.2917H18.4231C17.7949 24.2917 17.2564 23.75 17.2564 23.1181C17.2564 20.9965 19.0064 19.2361 21.1154 19.2361H31.8846C33.9936 19.2361 35.7436 20.9965 35.7436 23.1181Z" fill="#3C2323"/>
<defs>
<linearGradient id="paint0_linear_921_40" x1="26.5" y1="35" x2="26.5" y2="59" gradientUnits="userSpaceOnUse">
<stop stop-color="#CDBB9C"/>
<stop offset="1" stop-color="#CDBB9C" stop-opacity="0"/>
</linearGradient>
</defs>
</svg>
