<svg width="53" height="53" viewBox="0 0 53 53" fill="none" xmlns="http://www.w3.org/2000/svg">
<rect width="53" height="53" rx="13" fill="#FCF8F1"/>
<mask id="mask0_930_56" style="mask-type:alpha" maskUnits="userSpaceOnUse" x="0" y="0" width="53" height="53">
<path d="M0 13C0 5.8203 5.8203 0 13 0H40C47.1797 0 53 5.8203 53 13V40C53 47.1797 47.1797 53 40 53H13C5.8203 53 0 47.1797 0 40V13Z" fill="#FCF8F1"/>
</mask>
<g mask="url(#mask0_930_56)">
<ellipse cx="26.5" cy="47" rx="31.5" ry="12" fill="url(#paint0_linear_930_56)" fill-opacity="0.09"/>
</g>
<path d="M41.9658 34.3068C41.7247 33.6101 40.5192 33.4011 38.1771 33.018L37.6604 32.9483C37.4882 32.9135 37.316 32.9135 37.1094 32.9135C35.4905 32.9135 33.0106 33.7495 31.2196 34.4461C30.3585 32.9135 28.533 32.4955 27.2242 32.4955C27.2931 31.0674 26.432 29.6393 25.7087 28.8731C26.2598 28.0719 26.2942 27.1315 26.2253 26.5045C27.4308 26.4 28.843 25.7034 30.0141 24.6585C31.4262 23.3697 32.2184 21.8023 32.2184 20.2349C32.2184 17.1349 29.773 12.0843 24.572 11.109C22.0233 10.6562 20.06 11.7011 18.8545 12.6416C17.029 14.0697 15.6168 16.3337 15.3413 18.2843C12.7925 19.3292 12.1725 21.6978 12.0347 23.0562C11.8625 24.8674 12.3447 26.7483 13.1714 27.6191C12.5514 29.2562 12.5169 30.7191 13.068 31.9382C13.688 33.2967 14.8935 33.9585 15.479 34.2371C15.5135 35.6652 15.9957 36.7798 16.8912 37.5113C18.2001 38.5562 19.9911 38.5214 20.9211 38.382C21.0933 39.1135 21.5755 39.8101 22.3677 40.3674C23.401 41.0989 24.8476 41.5169 26.1909 41.5169C26.8453 41.5169 27.4653 41.4124 27.9819 41.2382C28.3608 41.0989 28.843 40.8551 29.3252 40.4719L30.0485 40.8551C31.4262 41.5517 33.7339 42.0393 35.6283 42.0393C37.8671 42.0393 40.1748 40.7854 40.7948 39.6708C40.8981 39.4618 40.8981 39.2528 40.8292 39.0438C40.7603 38.8349 40.5537 38.2776 38.3149 37.3371C40.1059 36.5011 41.3803 35.5607 41.7247 35.1776C42.0692 34.7944 42.0003 34.4809 41.9658 34.3068ZM27.603 40.1933C26.2598 40.6809 24.2276 40.3674 22.9532 39.4618C22.471 39.1135 21.8855 38.5562 21.8855 37.7551V37.0933L21.2655 37.2326C21.2311 37.2326 18.9234 37.7551 17.5456 36.6405C16.8568 36.0832 16.5123 35.1427 16.5468 33.854V33.4708L16.1679 33.3663C16.1679 33.3663 14.6524 32.8787 14.0324 31.4854C13.5502 30.4753 13.6536 29.1865 14.308 27.6888L14.4802 27.2708L14.0669 27.027C13.5158 26.6787 12.8614 25.0416 13.068 23.1607C13.1714 22.0113 13.7224 19.9562 15.9957 19.1551L16.3057 19.0506L16.3401 18.7023C16.4435 17.2393 17.5456 14.9753 19.4745 13.4776C20.5422 12.6416 22.2299 11.7708 24.3654 12.154C28.8086 12.9899 31.1851 17.4135 31.1851 20.2697C31.1851 21.4888 30.4963 22.8124 29.3252 23.8922C28.1541 24.9371 26.6731 25.5989 25.6742 25.4596L24.9165 25.3551L25.1231 26.1214C25.1231 26.1214 25.5365 27.654 24.6409 28.5596L24.2276 28.9776L24.7098 29.3607C25.3987 29.918 26.5353 31.6596 26.1564 32.9483L25.9498 33.7146L26.742 33.6101C26.7764 33.6101 30.083 33.227 30.6685 35.6652C31.1507 38.0686 28.6019 39.845 27.603 40.1933ZM40.037 39.2528L39.7615 39.5315C39.1415 40.1585 37.4882 41.0989 35.6283 41.0989C34.1817 41.0989 32.3218 40.9596 31.1162 40.2978C30.5996 40.0191 30.4274 39.7753 30.4274 39.7753C30.4274 39.7753 30.6685 39.3922 30.7718 39.1483L31.2885 38.9742L31.5296 39.009C33.3551 39.1832 35.3528 38.8349 37.4538 37.9989L37.5916 37.9641L37.7293 37.9989C38.9348 38.4865 39.5204 38.8349 39.727 39.009L40.037 39.2528ZM40.5537 34.9686C39.0726 36.0483 35.6283 37.8944 32.184 37.8944C32.0807 37.8944 31.9429 37.8944 31.8396 37.8944H31.3918C31.4951 37.6506 31.564 37.4068 31.5985 37.1629C31.7018 36.7798 31.8051 36.4315 31.8396 36.1528C31.874 35.8742 31.9084 35.6304 31.874 35.4214V35.1776L32.1151 35.0731C34.6295 34.1326 36.5238 33.7146 37.5227 33.854L38.0393 33.9236C38.7971 34.0281 39.7959 34.2023 40.4159 34.3416L41.1392 34.5158L40.5537 34.9686Z" fill="#3C2323"/>
<path d="M26.8454 17.9361C26.8454 17.9361 27.6032 18.563 27.6376 19.3642C27.6376 19.7821 27.431 20.2001 26.9832 20.6181C26.7765 20.8271 26.7765 21.1406 26.9487 21.3496C27.0521 21.454 27.1898 21.5237 27.3276 21.5237C27.4654 21.5237 27.5687 21.4889 27.6721 21.3844C28.3265 20.7574 28.6709 20.0608 28.6365 19.3293C28.602 18.0754 27.4998 17.1698 27.4654 17.1349C27.2587 16.9608 26.9143 16.9956 26.7421 17.2046C26.6043 17.4136 26.6388 17.7619 26.8454 17.9361Z" fill="#3C2323"/>
<path d="M21.0244 19.8867C20.0945 19.5384 19.3367 19.5384 18.7856 19.9215C17.9934 20.4788 17.959 21.5238 17.959 21.6282C17.959 21.9069 18.1656 22.1507 18.4756 22.1507C18.7512 22.1507 18.9923 21.9069 18.9923 21.6282C18.9923 21.6282 19.0267 21.0013 19.3712 20.7575C19.7156 20.5136 20.2667 20.6878 20.68 20.8271C20.9555 20.9316 21.2311 20.7923 21.3344 20.5136C21.4377 20.3047 21.3 19.9912 21.0244 19.8867Z" fill="#3C2323"/>
<path d="M17.8557 30.4058C17.8557 30.4058 17.2358 30.371 16.9947 30.0226C16.7536 29.6743 16.9258 29.117 17.0636 28.6991C17.1669 28.4204 17.0291 28.1418 16.7536 28.0373C16.478 27.9328 16.2025 28.0721 16.0991 28.3507C15.7547 29.2912 15.7547 30.0575 16.1336 30.6148C16.6847 31.4159 17.718 31.4507 17.8213 31.4507C18.0968 31.4507 18.3379 31.2069 18.3379 30.9283C18.3724 30.6844 18.1313 30.4406 17.8557 30.4058Z" fill="#3C2323"/>
<defs>
<linearGradient id="paint0_linear_930_56" x1="26.5" y1="35" x2="26.5" y2="59" gradientUnits="userSpaceOnUse">
<stop stop-color="#CDBB9C"/>
<stop offset="1" stop-color="#CDBB9C" stop-opacity="0"/>
</linearGradient>
</defs>
</svg>
