<svg width="53" height="53" viewBox="0 0 53 53" fill="none" xmlns="http://www.w3.org/2000/svg">
<rect width="53" height="53" rx="13" fill="#FCF8F1"/>
<mask id="mask0_930_54" style="mask-type:alpha" maskUnits="userSpaceOnUse" x="0" y="0" width="53" height="53">
<path d="M0 13C0 5.8203 5.8203 0 13 0H40C47.1797 0 53 5.8203 53 13V40C53 47.1797 47.1797 53 40 53H13C5.8203 53 0 47.1797 0 40V13Z" fill="#FCF8F1"/>
</mask>
<g mask="url(#mask0_930_54)">
<ellipse cx="26.5" cy="47" rx="31.5" ry="12" fill="url(#paint0_linear_930_54)" fill-opacity="0.09"/>
</g>
<path d="M40 22.8155C40 22.7039 39.945 22.5922 39.835 22.4806L36.9206 19.801C36.7556 19.6335 36.4257 19.6335 36.2607 19.8568C35.8758 20.3034 35.3259 20.5267 34.776 20.4709C33.8411 20.4709 33.0713 19.9126 33.0713 19.1869C33.1263 18.6287 33.5112 18.182 34.0061 18.0146C34.1161 17.9587 34.1711 17.9029 34.2261 17.7913C34.2811 17.6796 34.2811 17.568 34.2261 17.4563C34.2261 17.4005 34.1711 17.3447 34.1161 17.2888L31.8065 15.1675C31.6965 15.0558 31.4766 15 31.3116 15.0558L13.2749 22.4248C13.11 22.4806 13 22.6481 13 22.8714V25.7743C13 26.0534 13.22 26.2209 13.4399 26.2767C14.6497 26.2767 15.6945 27.0583 15.6945 28.0073C15.6945 28.9563 14.6497 29.7379 13.4399 29.7379C13.3299 29.7379 13.22 29.7937 13.11 29.8495C13.055 29.9612 13 30.0728 13 30.1845V37.5534C13 37.8325 13.22 38.0558 13.4949 38.0558H15.4196C15.6945 38.0558 15.9145 37.8325 15.9145 37.5534C15.9695 35.9345 17.5092 35.2087 18.8839 35.2087C20.2587 35.2087 21.7984 35.9345 21.8534 37.4976C21.8534 37.7767 22.0733 38 22.3483 38H39.5601C39.835 38 40 37.7767 40 37.4976C40 37.4976 40 37.1626 40 30.4078C40 26.9466 40 23.0388 40 22.8155ZM31.3666 16.0049L32.9613 17.4563L32.7963 17.6796C31.6415 18.9636 32.3014 20.0243 32.6314 20.4151C33.4562 21.3641 35.1609 21.8665 36.4807 20.9175L36.6456 20.8058L38.3503 22.3689H15.8595L31.3666 16.0049ZM39.0652 37.051H22.7332L22.6782 36.8277C22.1833 34.9296 20.3136 34.2597 18.8289 34.2597C17.3442 34.2597 15.4745 34.9296 14.9796 36.8277L14.9246 37.051H13.9348V30.6311L14.1548 30.5753C15.9695 30.2403 16.6293 28.9563 16.6293 27.9515C16.6293 26.9466 15.9695 25.7185 14.1548 25.3277L13.9348 25.2719V23.2621H39.0652V37.051Z" fill="#3C2323"/>
<path d="M24.6578 32.6408C26.0876 32.6408 27.2973 31.4127 27.2973 29.9612C27.2973 28.5098 26.0876 27.2816 24.6578 27.2816C23.2281 27.2816 22.0183 28.5098 22.0183 29.9612C22.0183 31.4127 23.2281 32.6408 24.6578 32.6408ZM24.6578 28.3423C25.5926 28.3423 26.3075 29.068 26.3075 30.0171C26.3075 30.9661 25.5926 31.6918 24.6578 31.6918C23.723 31.6918 23.0081 30.9661 23.0081 30.0171C23.0081 29.068 23.778 28.3423 24.6578 28.3423Z" fill="#3C2323"/>
<path d="M31.4216 35.4879C31.6966 35.6554 32.0265 35.7112 32.3015 35.7112C32.4664 35.7112 32.6314 35.7112 32.7964 35.6554C33.2913 35.5437 33.6762 35.2088 33.8962 34.818C34.3911 33.9248 34.1161 32.8083 33.2363 32.3059C32.7964 32.0826 32.3015 31.9709 31.8616 32.1384C31.3666 32.25 30.9817 32.585 30.7618 32.9758C30.2119 33.8131 30.5418 34.9855 31.4216 35.4879ZM31.5866 33.4782C31.7516 33.1991 32.0265 33.0316 32.3015 33.0316C32.4664 33.0316 32.5764 33.0874 32.6864 33.1432C32.8514 33.2549 33.0163 33.4224 33.0713 33.6457C33.1263 33.869 33.1263 34.0923 33.0163 34.2597C32.9064 34.4272 32.7414 34.5947 32.5214 34.6505C32.3015 34.7063 32.0815 34.7063 31.9165 34.5947C31.5316 34.3714 31.3666 33.869 31.5866 33.4782Z" fill="#3C2323"/>
<path d="M26.2525 21.4757C26.4725 21.5874 26.6925 21.6432 26.9124 21.6432C27.0224 21.6432 27.1324 21.6432 27.2424 21.5874C27.5723 21.4757 27.8472 21.2524 28.0672 20.9733C28.4521 20.3592 28.2322 19.5218 27.5723 19.131C27.2973 18.9636 26.9124 18.9077 26.5825 19.0194C26.2525 19.131 25.9776 19.3543 25.7576 19.6335C25.4277 20.2475 25.6476 21.0849 26.2525 21.4757ZM26.4175 20.0242C26.5275 19.8568 26.7474 19.7451 26.9124 19.7451C27.0224 19.7451 27.1324 19.8009 27.1874 19.8009C27.3523 19.8568 27.4073 20.0242 27.4623 20.1917C27.5173 20.3592 27.4623 20.5267 27.4073 20.6383C27.3523 20.8058 27.1874 20.8616 27.0224 20.9174C26.8574 20.9733 26.6925 20.9174 26.5825 20.8616C26.3075 20.6383 26.2525 20.3034 26.4175 20.0242Z" fill="#3C2323"/>
<path d="M33.2362 29.682C33.5661 29.8495 33.9511 29.9612 34.281 29.9612C35.0509 29.9612 35.7657 29.5704 36.1507 28.9005C36.7556 27.8398 36.3706 26.5 35.3808 25.9418C34.8859 25.6626 34.281 25.551 33.7311 25.7185C33.1812 25.8859 32.7413 26.2209 32.4114 26.7233C32.0814 27.2257 32.0264 27.8398 32.1914 28.3981C32.4114 28.9563 32.7413 29.4029 33.2362 29.682ZM34.611 28.9563C34.336 29.0121 34.0061 29.0121 33.7311 28.8447C33.4562 28.6772 33.2912 28.4539 33.1812 28.1189C33.1262 27.8398 33.1262 27.5049 33.2912 27.2257C33.5112 26.8908 33.8961 26.6675 34.281 26.6675C34.501 26.6675 34.6659 26.7233 34.8309 26.835C35.3808 27.1699 35.5458 27.8956 35.2708 28.4539C35.1608 28.6772 34.9409 28.8447 34.611 28.9563Z" fill="#3C2323"/>
<defs>
<linearGradient id="paint0_linear_930_54" x1="26.5" y1="35" x2="26.5" y2="59" gradientUnits="userSpaceOnUse">
<stop stop-color="#CDBB9C"/>
<stop offset="1" stop-color="#CDBB9C" stop-opacity="0"/>
</linearGradient>
</defs>
</svg>
