<svg width="53" height="53" viewBox="0 0 53 53" fill="none" xmlns="http://www.w3.org/2000/svg">
<rect width="53" height="53" rx="13" fill="#FCF8F1"/>
<mask id="mask0_693_43" style="mask-type:alpha" maskUnits="userSpaceOnUse" x="0" y="0" width="53" height="53">
<path d="M0 13C0 5.8203 5.8203 0 13 0H40C47.1797 0 53 5.8203 53 13V40C53 47.1797 47.1797 53 40 53H13C5.8203 53 0 47.1797 0 40V13Z" fill="#FCF8F1"/>
</mask>
<g mask="url(#mask0_693_43)">
<ellipse cx="26.5" cy="47" rx="31.5" ry="12" fill="url(#paint0_linear_693_43)" fill-opacity="0.09"/>
</g>
<path d="M21.6369 11.5397C21.6369 11.5397 24.0292 12.3899 26.4564 12.0082V30.5223C26.4564 30.5223 19.7684 29.5853 19.751 23.5817L21.6369 11.5397Z" fill="white"/>
<path d="M21.4622 18.064L20.8161 22.1936C20.5891 23.6165 20.851 25.0914 21.6019 26.3233C22.6322 27.9891 24.4482 29.0996 26.5088 29.0996C28.5693 29.0996 30.3679 27.9891 31.4156 26.3233C32.184 25.0914 32.4284 23.6165 32.2014 22.1936L31.3807 16.9882C31.3807 16.9882 25.8452 22.1416 21.4622 18.064Z" fill="#D3CCA1"/>
<path d="M21.532 17.9945C21.532 17.9945 23.1036 15.7214 28.8137 18.7753C28.7962 18.7579 22.3003 20.5972 21.532 17.9945Z" fill="#EDE5B9"/>
<path d="M24.8149 19.9206C23.4703 19.9206 22.475 19.6603 21.8289 19.1397C21.2526 18.6713 21.1828 18.1681 21.1828 18.116C21.1653 18.0292 21.2002 17.9425 21.2526 17.8731C21.3225 17.7863 22.929 15.8429 28.8661 18.4457C30.4377 17.7516 31.0838 16.8146 31.1013 16.8146C31.206 16.6585 31.4331 16.6064 31.5902 16.7279C31.7474 16.832 31.7998 17.0402 31.695 17.2137C31.6426 17.3005 30.1583 19.4347 26.2468 19.8512C25.7229 19.8859 25.2514 19.9206 24.8149 19.9206ZM21.9336 18.1854C22.1257 18.5498 22.9115 19.4868 26.1595 19.1397C26.823 19.0703 27.3993 18.9489 27.9232 18.7927C23.9243 17.179 22.3527 17.8904 21.9336 18.1854Z" fill="#3C2323"/>
<path d="M26.858 42.7205V30.8694C30.8393 30.6959 34.0175 27.4164 34.0175 23.4256C34.0175 23.4082 34.0175 23.3909 34.0175 23.3735L31.7474 9.59635C31.6601 8.5032 28.9884 8 26.5087 8C24.0291 8 21.3574 8.5032 21.2701 9.59635L19 23.3562C19 23.3735 19 23.3909 19 23.4082C19 27.3991 22.1781 30.6785 26.1595 30.8521V42.7032C24.5704 42.7205 19 42.8941 19 44.3516C19 45.9479 25.7404 46 26.5087 46C27.2771 46 34.0175 45.9479 34.0175 44.3516C34 42.9114 28.447 42.7379 26.858 42.7205ZM26.5087 8.69406C29.4598 8.69406 31.0489 9.37078 31.0489 9.6484C31.0489 9.92603 29.4424 10.6027 26.5087 10.6027C23.5751 10.6027 21.9686 9.92603 21.9686 9.6484C21.9686 9.37078 23.5576 8.69406 26.5087 8.69406ZM19.6985 23.4429L21.8463 10.4466C22.7718 11.0192 24.6927 11.2968 26.5087 11.2968C28.3248 11.2968 30.2456 11.0365 31.1711 10.4639L33.3015 23.4429C33.2841 27.1562 30.2456 30.1753 26.4913 30.1753C22.7369 30.1753 19.7159 27.1562 19.6985 23.4429ZM26.5087 45.3059C22.475 45.3059 20.0477 44.716 19.7159 44.3516C20.0303 44.0046 22.3178 43.432 26.1595 43.3973V43.8831C26.1595 44.074 26.3166 44.2301 26.5087 44.2301C26.7008 44.2301 26.858 44.074 26.858 43.8831V43.3973C30.6822 43.432 32.9697 44.0046 33.3015 44.3516C32.9523 44.716 30.5425 45.3059 26.5087 45.3059Z" fill="#3C2323"/>
<defs>
<linearGradient id="paint0_linear_693_43" x1="26.5" y1="35" x2="26.5" y2="59" gradientUnits="userSpaceOnUse">
<stop stop-color="#CDBB9C"/>
<stop offset="1" stop-color="#CDBB9C" stop-opacity="0"/>
</linearGradient>
</defs>
</svg>
