<svg width="53" height="53" viewBox="0 0 53 53" fill="none" xmlns="http://www.w3.org/2000/svg">
<rect width="53" height="53" rx="13" fill="#FCF8F1"/>
<mask id="mask0_921_45" style="mask-type:alpha" maskUnits="userSpaceOnUse" x="0" y="0" width="53" height="53">
<path d="M0 13C0 5.8203 5.8203 0 13 0H40C47.1797 0 53 5.8203 53 13V40C53 47.1797 47.1797 53 40 53H13C5.8203 53 0 47.1797 0 40V13Z" fill="#FCF8F1"/>
</mask>
<g mask="url(#mask0_921_45)">
<ellipse cx="26.5" cy="47" rx="31.5" ry="12" fill="url(#paint0_linear_921_45)" fill-opacity="0.09"/>
</g>
<path d="M38.9884 25.909C38.9533 25.5822 38.6842 25.3371 38.3566 25.3371C33.2198 25.3371 29.5105 26.5742 27.3341 29.0019C27.0883 29.282 26.8543 29.5738 26.6437 29.8889V24.4384C33.7346 24.0299 35.2324 16.8287 35.2441 16.7586C35.2792 16.5952 35.2441 16.4202 35.1505 16.2801C35.0568 16.1401 34.9164 16.0467 34.7409 16.0117C34.7058 16 34.659 16 34.6239 16C31.254 16 28.7382 16.8987 27.1469 18.6611C26.6671 19.1863 26.281 19.7815 26.0001 20.4234C25.7193 19.7815 25.3332 19.1863 24.8534 18.6611C23.2621 16.8987 20.7463 16 17.3764 16C17.2126 16 17.0487 16.07 16.9317 16.1867C16.8147 16.3035 16.7445 16.4669 16.7445 16.6303C16.7445 16.6769 16.7445 16.712 16.7562 16.747C16.7679 16.817 18.254 24.0182 25.3566 24.4267V29.8655C25.146 29.5504 24.9236 29.2586 24.6662 28.9785C22.4898 26.5626 18.7805 25.3371 13.6437 25.3371C13.3161 25.3371 13.0469 25.5822 13.0118 25.909C13.0001 26.0373 12.7661 28.9435 15.0712 31.4762C17.1658 33.7754 20.6176 34.9893 25.3449 35.0826V40.3697C25.3449 40.5448 25.4151 40.6965 25.5321 40.8133C25.6491 40.93 25.8129 41 25.9884 41H26.0118C26.0235 41 26.0235 41 26.0352 41C26.1991 41 26.3512 40.93 26.4682 40.8133C26.5852 40.6965 26.6554 40.5331 26.6554 40.3581V35.071C31.3827 34.9659 34.8345 33.7521 36.929 31.4645C39.2342 28.9435 39.0001 26.0373 38.9884 25.909ZM37.713 26.6092C37.6077 28.1032 36.9875 29.5271 35.9812 30.6242C34.1207 32.6433 30.9848 33.7171 26.6554 33.8105V33.7404C26.749 32.3049 27.3224 30.916 28.2936 29.8305C30.1189 27.7997 33.29 26.7026 37.713 26.6092ZM28.0946 19.5131L28.1649 19.443C29.3818 18.1475 31.2657 17.4239 33.7814 17.2955C33.1847 19.0812 31.3593 22.8627 26.6554 23.1662C26.6905 22.3025 26.9479 20.7852 28.0946 19.5131ZM16.019 30.6242C15.0127 29.5271 14.4043 28.1032 14.2873 26.6092C18.6986 26.7026 21.8696 27.788 23.7067 29.8305C24.6779 30.916 25.263 32.3049 25.3566 33.7404V33.8221C21.0154 33.7288 17.8795 32.655 16.019 30.6242ZM25.3566 23.1662C20.5825 22.8627 18.8039 19.0812 18.2189 17.2955C20.7814 17.4239 22.6887 18.1709 23.9056 19.5131C25.0523 20.7736 25.3098 22.2908 25.3566 23.1662Z" fill="#3C2323"/>
<defs>
<linearGradient id="paint0_linear_921_45" x1="26.5" y1="35" x2="26.5" y2="59" gradientUnits="userSpaceOnUse">
<stop stop-color="#CDBB9C"/>
<stop offset="1" stop-color="#CDBB9C" stop-opacity="0"/>
</linearGradient>
</defs>
</svg>
