<svg width="53" height="53" viewBox="0 0 53 53" fill="none" xmlns="http://www.w3.org/2000/svg">
<rect width="53" height="53" rx="13" fill="#FCF8F1"/>
<mask id="mask0_930_49" style="mask-type:alpha" maskUnits="userSpaceOnUse" x="0" y="0" width="53" height="53">
<path d="M0 13C0 5.8203 5.8203 0 13 0H40C47.1797 0 53 5.8203 53 13V40C53 47.1797 47.1797 53 40 53H13C5.8203 53 0 47.1797 0 40V13Z" fill="#FCF8F1"/>
</mask>
<g mask="url(#mask0_930_49)">
<ellipse cx="26.5" cy="47" rx="31.5" ry="12" fill="url(#paint0_linear_930_49)" fill-opacity="0.09"/>
</g>
<path d="M30.6336 22.2051L30.5262 21.9904L30.4189 21.7757L30.3115 21.6684C29.8821 21.239 29.3454 21.239 28.9159 21.6684L28.8086 21.7757V21.9904C28.8086 22.0978 28.8086 22.0978 28.8086 22.2051C28.8086 22.3125 28.8086 22.3125 28.8086 22.4198C28.8086 22.5272 28.8086 22.6345 28.9159 22.8492C29.0233 22.9566 29.0233 23.0639 29.1306 23.1713C29.238 23.2786 29.3454 23.386 29.4527 23.386C29.5601 23.386 29.6674 23.4933 29.8821 23.4933H30.0968L30.3115 23.386L30.5262 23.2786C30.6336 23.2786 30.6336 23.1713 30.6336 23.1713C30.7409 23.0639 30.8483 22.9566 30.8483 22.8492C30.8483 22.7419 30.9556 22.6345 30.9556 22.4198C30.7409 22.3125 30.7409 22.2051 30.6336 22.2051Z" fill="#3C2323"/>
<path d="M25.4807 21.1316V21.0243L25.3733 20.8096L25.266 20.5949C24.8366 20.1655 24.2998 20.1655 23.8704 20.5949L23.6557 20.8096L23.5483 20.9169C23.5483 21.0243 23.5483 21.0243 23.5483 21.1316C23.5483 21.239 23.5483 21.239 23.5483 21.3463C23.5483 21.4537 23.5483 21.561 23.6557 21.7757C23.763 21.8831 23.763 21.9904 23.8704 22.0978C23.9777 22.2051 24.0851 22.3125 24.1924 22.3125C24.2998 22.3125 24.4071 22.4199 24.6219 22.4199H24.8366L25.0513 22.3125L25.266 22.2051C25.3733 22.2051 25.3733 22.0978 25.3733 22.0978C25.4807 21.9904 25.588 21.8831 25.588 21.7757C25.588 21.6684 25.588 21.561 25.588 21.3463C25.588 21.3463 25.588 21.239 25.4807 21.1316Z" fill="#3C2323"/>
<path d="M26.9837 25.4257L26.8764 25.211L26.769 24.9963L26.6617 24.8889C26.2323 24.4595 25.6955 24.4595 25.2661 24.8889L25.1587 24.9963L25.0514 25.211C25.0514 25.3184 25.0514 25.3184 25.0514 25.4257C25.0514 25.5331 25.0514 25.5331 25.0514 25.6404C25.0514 25.7478 25.0514 25.8551 25.1587 26.0698C25.2661 26.1772 25.2661 26.2845 25.3734 26.3919C25.4808 26.4992 25.5881 26.6066 25.6955 26.6066C25.8029 26.6066 25.9102 26.7139 26.1249 26.7139H26.3396L26.5543 26.6066L26.6617 26.4992C26.769 26.4992 26.769 26.3919 26.769 26.3919C26.8764 26.2845 26.9837 26.1772 26.9837 26.0698C26.9837 25.9625 27.0911 25.8551 27.0911 25.6404C27.0911 25.6404 27.0911 25.5331 26.9837 25.4257Z" fill="#3C2323"/>
<path d="M36.6453 26.1771C36.4306 25.8551 36.2159 25.6404 35.8938 25.4257L35.7865 25.3183V24.4595C35.7865 20.7022 33.3174 17.3743 29.6674 16.1935H29.1307L29.3454 15.7641C29.5601 15.442 29.6674 15.0126 29.6674 14.5832C29.6674 13.1876 28.4866 12.0068 27.091 12.0068C25.5881 11.8994 24.4072 13.0803 24.4072 14.5832C24.4072 15.0126 24.5146 15.442 24.7293 15.7641L25.0513 16.1935L24.5146 16.3008C20.8646 17.3743 18.3956 20.7022 18.3956 24.5669V25.4257L18.2882 25.533C17.5368 26.0698 17 27.036 17 28.0021C17 28.2168 17 28.4315 17.1074 28.6462C17.3221 29.3977 17.7515 30.1491 18.3956 30.5785L18.5029 30.6859L20.5426 40.6696C20.6499 40.9916 20.7573 41.099 21.1867 41.2063H33.1027C33.4247 41.2063 33.6394 40.9916 33.7468 40.6696L35.7865 30.6859L35.8938 30.5785C37.2894 29.6124 37.6114 27.5727 36.6453 26.1771ZM19.3617 26.2845C19.5764 26.1771 19.6838 25.9624 19.6838 25.7477V24.4595C19.6838 20.3802 23.0117 17.0523 27.091 17.0523C31.1704 17.0523 34.4982 20.3802 34.4982 24.4595V25.6404C34.4982 25.8551 34.6056 26.0698 34.8203 26.1771C35.5718 26.4992 36.0012 27.358 35.8938 28.2168C35.7865 28.7536 35.3571 29.2903 34.8203 29.505C34.713 29.505 34.713 29.6124 34.713 29.6124L34.6056 29.7197H19.5764L19.4691 29.6124L19.3617 29.505C18.825 29.2903 18.3956 28.7536 18.2882 28.2168C18.2882 28.0021 18.2882 27.8948 18.2882 27.7874C18.2882 27.2507 18.7176 26.6065 19.3617 26.2845ZM27.091 15.8714C26.3396 15.8714 25.6954 15.2273 25.6954 14.4759C25.6954 13.7244 26.3396 13.0803 27.091 13.0803C27.8425 13.0803 28.4866 13.7244 28.4866 14.4759C28.4866 15.2273 27.8425 15.8714 27.091 15.8714ZM23.4411 39.9181H21.6161L19.8985 31.1153H22.5823L23.4411 39.9181ZM26.4469 31.1153V39.9181H24.6219L23.7631 31.1153H26.4469ZM34.3909 31.1153L32.6733 39.9181H30.8483L31.7071 31.1153H34.3909ZM30.4189 31.1153L29.5601 39.9181H27.7351V31.1153H30.4189Z" fill="#3C2323"/>
<defs>
<linearGradient id="paint0_linear_930_49" x1="26.5" y1="35" x2="26.5" y2="59" gradientUnits="userSpaceOnUse">
<stop stop-color="#CDBB9C"/>
<stop offset="1" stop-color="#CDBB9C" stop-opacity="0"/>
</linearGradient>
</defs>
</svg>
