<svg width="53" height="53" viewBox="0 0 53 53" fill="none" xmlns="http://www.w3.org/2000/svg">
<rect width="53" height="53" rx="13" fill="#FCF8F1"/>
<mask id="mask0_930_65" style="mask-type:alpha" maskUnits="userSpaceOnUse" x="0" y="0" width="53" height="53">
<path d="M0 13C0 5.8203 5.8203 0 13 0H40C47.1797 0 53 5.8203 53 13V40C53 47.1797 47.1797 53 40 53H13C5.8203 53 0 47.1797 0 40V13Z" fill="#FCF8F1"/>
</mask>
<g mask="url(#mask0_930_65)">
<ellipse cx="26.5" cy="47" rx="31.5" ry="12" fill="url(#paint0_linear_930_65)" fill-opacity="0.09"/>
</g>
<path d="M37.1797 25.9864L37.0915 25.8983V25.8102C36.739 24.3119 36.122 22.9017 35.2407 21.6678L35.1525 21.5797L35.6814 21.0508L35.8576 21.139C36.2983 21.4034 36.739 21.4915 37.1797 21.4915C38.7661 21.4915 40.0881 20.1695 40.0881 18.5831C40.0881 17.4373 39.3831 16.3797 38.2373 15.939H38.1492V15.8508C37.7085 14.7932 36.6508 14 35.5051 14C33.8305 14 32.5085 15.322 32.5085 16.9085C32.5085 17.3492 32.5966 17.7898 32.861 18.2305L32.9492 18.4068L32.5085 18.8475L32.3322 18.7593C30.3932 17.3492 28.0136 16.6441 25.722 16.6441C19.2 16.6441 14 21.8441 14 28.3661C14 29.8644 14.2644 31.2746 14.8814 32.6847V32.861L14.7051 32.9492C14.2644 33.3017 14 33.9186 14 34.5356C14 35.5932 14.8814 36.5627 16.0271 36.5627H17.0847L19.3763 38.8542C20.1695 39.5593 21.139 40 22.2847 40H31.7153C32.861 40 33.9186 39.5593 34.7119 38.7661L37.0034 36.4746H38.061C39.1186 36.4746 40.0881 35.5932 40.0881 34.4475C40.0881 33.9186 39.9119 33.478 39.5593 33.1254L39.4712 33.0373L39.5593 32.861C39.9119 32.1559 40.1763 31.3627 40.1763 30.4814C40 28.6305 38.8542 26.8678 37.1797 25.9864ZM38.1492 32.4203V32.5085H16.2034L16.1153 32.3322C15.5864 31.0102 15.322 29.6881 15.322 28.278C15.322 22.5492 19.9932 17.878 25.722 17.878C27.7492 17.878 29.6881 18.4949 31.3627 19.5525L31.6271 19.7288L30.5695 20.7864L30.3932 20.6983C29.5119 20.3458 28.7186 20.1695 27.9254 20.1695C25.1051 20.1695 22.8136 22.461 22.8136 25.2814C22.8136 25.6339 23.078 25.9864 23.5186 25.9864C23.9593 25.9864 24.2237 25.722 24.2237 25.2814C24.2237 23.2542 25.8983 21.4915 28.0136 21.4915C28.4542 21.4915 28.8949 21.5797 29.2475 21.7559L29.6 21.8441L29.3356 22.1085C29.0712 22.3729 29.0712 22.8136 29.3356 23.078C29.6 23.3424 30.0407 23.3424 30.3051 23.078L34.2712 18.9356C34.2712 18.9356 34.2712 18.8475 34.3593 18.8475V18.7593C34.3593 18.7593 34.3593 18.6712 34.4475 18.6712V18.4949V18.4068V18.3186V18.2305V18.1424C34.4475 18.1424 34.4475 18.0542 34.3593 18.0542V17.9661C34.3593 17.9661 34.3593 17.878 34.2712 17.878C34.0068 17.6136 33.8305 17.1729 33.8305 16.8203C33.8305 15.939 34.5356 15.2339 35.4169 15.2339C36.122 15.2339 36.8271 15.7627 36.9153 16.4678C36.9153 16.6441 36.9153 16.6441 36.9153 16.7322V16.8203C36.9153 16.8203 37.0034 16.8203 37.0034 16.9085C37.0915 16.9966 37.0915 16.9966 37.0915 16.9966C37.1797 16.9966 37.2678 17.0847 37.2678 17.0847C38.1492 17.261 38.678 17.878 38.678 18.6712C38.678 19.5525 37.9729 20.2576 37.0915 20.2576C36.6508 20.2576 36.2983 20.0814 36.0339 19.8169C36.0339 19.8169 36.0339 19.8169 35.9458 19.8169C35.6814 19.6407 35.417 19.6407 35.1525 19.8169C35.1525 19.8169 35.0644 19.8169 35.0644 19.9051L30.922 24.0475C30.6576 24.3119 30.6576 24.7525 30.922 25.0169C31.0102 25.1051 31.1864 25.1932 31.3627 25.1932H31.6271V25.4576C31.6271 26.2508 31.3627 27.0441 30.8339 27.7492C30.6576 28.0136 30.3932 28.278 30.1288 28.4542C29.9525 28.5424 29.8644 28.7186 29.8644 28.8949C29.8644 29.0712 29.8644 29.2475 29.9525 29.4237C30.2169 29.6881 30.5695 29.7763 30.922 29.6C31.2746 29.3356 31.6271 28.9831 31.8915 28.6305C32.5966 27.7492 32.9492 26.6915 32.9492 25.5458C32.9492 25.1932 32.861 24.8407 32.7729 24.4V24.3119L34.1831 22.9017L34.3593 23.1661C35.1525 24.3119 35.6814 25.6339 35.8576 26.9559V27.0441V27.1322C35.8576 27.1322 35.8576 27.2203 35.9458 27.2203C35.9458 27.2203 35.9458 27.2203 36.0339 27.3085C36.0339 27.3085 36.0339 27.3966 36.122 27.3966C36.122 27.3966 36.2102 27.4847 36.2983 27.4847H36.3864C37.7966 28.0136 38.7661 29.4237 38.7661 30.922C38.678 31.1864 38.5017 31.8034 38.1492 32.4203Z" fill="#3C2323"/>
<defs>
<linearGradient id="paint0_linear_930_65" x1="26.5" y1="35" x2="26.5" y2="59" gradientUnits="userSpaceOnUse">
<stop stop-color="#CDBB9C"/>
<stop offset="1" stop-color="#CDBB9C" stop-opacity="0"/>
</linearGradient>
</defs>
</svg>
