<svg width="53" height="53" viewBox="0 0 53 53" fill="none" xmlns="http://www.w3.org/2000/svg">
<rect width="53" height="53" rx="13" fill="#FCF8F1"/>
<mask id="mask0_930_58" style="mask-type:alpha" maskUnits="userSpaceOnUse" x="0" y="0" width="53" height="53">
<path d="M0 13C0 5.8203 5.8203 0 13 0H40C47.1797 0 53 5.8203 53 13V40C53 47.1797 47.1797 53 40 53H13C5.8203 53 0 47.1797 0 40V13Z" fill="#FCF8F1"/>
</mask>
<g mask="url(#mask0_930_58)">
<ellipse cx="26.5" cy="47" rx="31.5" ry="12" fill="url(#paint0_linear_930_58)" fill-opacity="0.09"/>
</g>
<path d="M39.8552 21.772C39.3596 21.1544 39.3596 20.8456 39.7622 20.0119L39.9171 19.7031C40.5676 18.437 41.4658 16.7078 40.1029 15.3183C38.5543 13.7126 36.541 14.4228 35.5499 14.7624L35.4879 14.7933C35.2401 14.886 34.9304 14.9786 34.6516 15.1948C34.4038 15.38 34.4038 15.38 34.0941 15.133C32.2976 13.6817 30.0676 13.7743 28.5189 15.3183C26.9083 16.924 26.9083 19.3325 28.4569 20.9382C29.603 22.1425 29.3242 24.2731 29.2932 24.4893C28.7976 26.5273 26.5056 27.9477 25.1118 28.6271C25.5764 23.4085 22.6339 21.5558 22.541 21.494C22.2622 21.3088 22.2003 21.1235 22.2003 21.0309C22.1693 20.6294 22.51 20.0119 23.0985 19.456C23.8729 18.6841 24.2755 17.9121 24.2445 17.171C24.2136 16.5534 23.9038 15.9667 23.3153 15.5035C22.8507 15.1021 22.2622 14.886 21.7047 14.9477C20.9614 15.0095 20.2799 15.4727 19.6295 16.3064C19.5366 16.4299 19.4437 16.4917 19.4127 16.5534C19.3507 16.4917 19.2888 16.399 19.1959 16.2446C18.4215 14.9786 17.5543 14.2375 16.687 14.0522C16.1295 13.9287 15.572 14.0214 15.0764 14.361C14.5808 14.7007 14.2401 15.1948 14.1472 15.7815C13.9923 16.7078 14.395 17.8503 15.2622 18.9002C15.3861 19.0546 15.4481 19.1472 15.51 19.2399C15.4171 19.2708 15.2622 19.3325 15.0454 19.3634C14.2711 19.5178 13.6826 19.9192 13.3419 20.4442C13.0012 20.9691 12.9083 21.6484 13.0941 22.4204C13.249 23.038 13.6206 23.5629 14.1782 23.8717C14.8286 24.2114 15.6339 24.2731 16.4392 23.9952C18.1428 23.4085 19.3507 23.3777 20.187 23.9026C21.0233 24.4275 21.5189 25.6318 21.6737 27.4537C21.7047 27.6389 21.7047 27.8551 21.7047 28.0095C21.7047 28.0712 21.7047 28.1639 21.7047 28.1639C21.7047 30.1092 21.0853 31.7458 19.9083 32.9192C18.7313 34.0617 17.0587 34.6484 15.1074 34.6176C14.7047 34.6176 14.395 34.9263 14.395 35.2969C14.395 35.6674 14.6737 36.0071 15.0764 36.0071C17.4304 36.0689 19.4437 35.3587 20.8994 33.9382C22.3552 32.5178 23.1295 30.5415 23.0985 28.1639C23.0985 28.1021 23.0985 28.0712 23.0985 28.0095C23.0985 27.8242 23.0985 27.6081 23.0676 27.361C22.8507 25.0451 22.1383 23.532 20.9304 22.7601C19.7224 21.9881 18.1118 21.9881 15.9746 22.6983C15.51 22.8218 15.0764 22.8218 14.7976 22.6674C14.5808 22.5439 14.4569 22.3586 14.395 22.1116C14.3021 21.7411 14.333 21.4323 14.4569 21.2161C14.6428 20.9382 15.0145 20.8147 15.2932 20.7529C15.9437 20.5986 16.6251 20.3824 16.8419 19.7339C17.0587 19.0855 16.656 18.4679 16.3153 18.0356C15.7268 17.3254 15.4171 16.5534 15.51 16.0285C15.541 15.8123 15.6339 15.6579 15.8198 15.5344C16.0056 15.4109 16.1914 15.38 16.3773 15.4109C16.8729 15.5035 17.4614 16.0902 18.0189 16.9857C18.2976 17.4489 18.7003 17.943 19.3198 18.0047C19.9702 18.0356 20.4348 17.5415 20.7136 17.171C21.1162 16.6461 21.5189 16.3682 21.8596 16.3064C21.9215 16.3064 22.1383 16.2755 22.4481 16.5225C22.8507 16.8931 22.8507 17.171 22.8507 17.2328C22.8507 17.5415 22.603 18.0047 22.1383 18.4679C21.6118 18.9929 20.7445 20.0427 20.8375 21.1544C20.8684 21.5867 21.0853 22.1734 21.8286 22.6674C21.8596 22.6983 24.5233 24.3967 23.6251 29.6461C23.5941 29.8931 23.687 30.1401 23.8729 30.2945C24.0587 30.4489 24.3375 30.5107 24.5543 30.418C24.7711 30.3563 29.8198 28.5035 30.718 24.7981V24.7672C30.749 24.6437 31.2136 21.7411 29.51 19.981C28.333 18.7767 28.6737 17.2019 29.541 16.3064C30.5631 15.2874 32.0189 15.2565 33.2578 16.2446C34.0631 16.8931 34.7445 16.924 35.5189 16.3373C35.6118 16.2755 35.7976 16.2138 35.9525 16.152L36.0145 16.1211C37.3463 15.6579 38.3375 15.5344 39.1118 16.3064C39.7313 16.924 39.3286 17.8195 38.6782 19.1164L38.5233 19.4252C37.9658 20.5368 37.8109 21.4632 38.7711 22.6674C39.5145 23.5938 39.9171 24.8907 39.1737 25.6936C38.3994 26.5273 37.0366 26.9905 35.9835 26.2185C34.4038 25.1069 33.1959 25.6627 32.0808 26.3729C30.718 27.2066 29.603 28.3183 28.5499 29.399C28.2401 29.7387 27.8994 30.0475 27.5897 30.3872C25.1118 32.7957 22.541 35.266 19.4746 37.0879C18.5454 37.6437 17.5853 38.076 16.5941 38.3848C16.2224 38.5083 16.0056 38.8788 16.1295 39.2494C16.2224 39.5582 16.5012 39.7435 16.7799 39.7435C16.8419 39.7435 16.9038 39.7434 16.9968 39.7126C18.0808 39.3729 19.1339 38.9097 20.156 38.2921C23.3773 36.3159 26.01 33.7838 28.5499 31.3135C28.8906 30.9739 29.2313 30.6651 29.541 30.3254C30.5941 29.2755 31.5853 28.2565 32.7932 27.5154C33.8463 26.867 34.3419 26.7434 35.1472 27.3301C36.6649 28.4109 38.7711 28.1021 40.1649 26.6199C41.4968 25.1995 40.9392 23.1615 39.8552 21.772Z" fill="#3C2323"/>
<path d="M31.4613 24.7364C31.5852 24.7981 31.7091 24.8599 31.833 24.8599C32.0498 24.8599 32.2976 24.7364 32.4215 24.5511C32.6693 24.1805 32.8551 23.81 33.01 23.4395C34.9304 22.6057 36.8817 23.7791 37.5631 24.6129C37.687 24.7981 37.9038 24.8908 38.1206 24.8908C38.2755 24.8908 38.4304 24.829 38.5543 24.7364C38.864 24.4893 38.9259 24.057 38.6782 23.7482C37.8419 22.6675 35.9835 21.5867 34.0012 21.772C34.9923 20.4133 36.4481 18.962 37.5012 18.5915C37.8728 18.468 38.0587 18.0665 37.9348 17.7269C37.8109 17.3563 37.4082 17.171 37.0675 17.2946C35.8905 17.6651 34.5277 18.9003 33.4436 20.1972C33.3197 19.3634 33.041 18.4988 32.5454 17.6033C32.3596 17.2637 31.9259 17.1402 31.6162 17.3254C31.2755 17.5107 31.1516 17.943 31.3374 18.2518C32.4215 20.2589 32.3905 22.019 31.2445 23.7791C31.0587 24.1188 31.1516 24.5511 31.4613 24.7364Z" fill="#3C2323"/>
<path d="M35.209 34.7102C35.7356 34.1235 35.9524 33.5986 35.9214 33.0427C35.8904 32.5796 35.6427 32.1781 35.24 31.8385C34.6825 31.3753 34.1559 31.3444 33.8152 31.3753C33.2577 31.4679 32.7312 31.8385 32.2666 32.5178C32.0497 32.8266 32.1427 33.2589 32.4524 33.475C32.7621 33.6912 33.1958 33.5986 33.4126 33.2898C33.7223 32.8266 33.9391 32.7648 34.0011 32.7648C34.094 32.7648 34.2489 32.8266 34.3418 32.9192C34.4657 33.0119 34.5276 33.1045 34.5276 33.1663C34.5276 33.1971 34.5276 33.4133 34.125 33.8456C33.9701 34 33.5365 34.494 33.6913 35.0807C33.8462 35.6674 34.4347 35.9145 34.6825 36.0071C35.5188 36.3159 35.8595 36.8717 35.8285 36.9952C35.7356 37.1187 35.0851 37.2423 34.3727 36.8408C34.125 36.7173 33.5055 36.3777 32.948 36.6864C32.3904 36.9952 32.3595 37.7363 32.3595 38.0451C32.3595 38.2613 32.2975 38.4157 32.2046 38.5083C32.1117 38.6009 31.8949 38.6318 31.771 38.6009C31.6471 38.6009 31.5851 38.5701 31.5232 38.4774C31.4303 38.3539 31.3683 38.1377 31.3993 37.8907C31.6471 36.285 31.3993 35.1425 30.6869 34.4014C29.9745 33.6294 28.7975 33.3206 27.125 33.475C26.7533 33.5059 26.4435 33.8456 26.5055 34.2161C26.5365 34.5867 26.8772 34.8646 27.2489 34.8337C28.4258 34.7411 29.2621 34.8955 29.6648 35.3278C30.0674 35.7601 30.1913 36.532 30.0055 37.6746C29.9126 38.2921 30.0674 38.9097 30.4081 39.342C30.7179 39.7126 31.1825 39.9596 31.6781 39.9596C31.709 39.9596 31.771 39.9596 31.802 39.9596C32.4524 39.9596 32.886 39.7126 33.1338 39.4964C33.3816 39.2494 33.6913 38.8171 33.7223 38.0451C34.5276 38.4774 35.4568 38.5701 36.1382 38.2921C36.5719 38.1377 36.9126 37.829 37.0674 37.4275C37.2223 37.057 37.1913 36.6247 37.0055 36.2233C36.7267 35.6366 36.0453 35.0499 35.209 34.7102Z" fill="#3C2323"/>
<defs>
<linearGradient id="paint0_linear_930_58" x1="26.5" y1="35" x2="26.5" y2="59" gradientUnits="userSpaceOnUse">
<stop stop-color="#CDBB9C"/>
<stop offset="1" stop-color="#CDBB9C" stop-opacity="0"/>
</linearGradient>
</defs>
</svg>
