<svg width="53" height="53" viewBox="0 0 53 53" fill="none" xmlns="http://www.w3.org/2000/svg">
<rect width="53" height="53" rx="13" fill="#FCF8F1"/>
<mask id="mask0_930_59" style="mask-type:alpha" maskUnits="userSpaceOnUse" x="0" y="0" width="53" height="53">
<path d="M0 13C0 5.8203 5.8203 0 13 0H40C47.1797 0 53 5.8203 53 13V40C53 47.1797 47.1797 53 40 53H13C5.8203 53 0 47.1797 0 40V13Z" fill="#FCF8F1"/>
</mask>
<g mask="url(#mask0_930_59)">
<ellipse cx="26.5" cy="47" rx="31.5" ry="12" fill="url(#paint0_linear_930_59)" fill-opacity="0.09"/>
</g>
<path d="M41.5248 23.8021C41.5435 23.5417 41.4124 23.2999 41.1877 23.1883C39.9143 22.5745 38.9218 21.4771 38.4349 20.1566L38.4161 20.1008L38.4349 20.045C38.9218 18.7058 39.8956 17.627 41.1877 17.0132C41.3188 16.9388 41.4312 16.8086 41.4686 16.6412C41.5061 16.4738 41.4873 16.3064 41.4124 16.1762C41.3001 15.9716 41.0753 15.8414 40.8319 15.86C37.8356 16.232 35.3824 18.1664 34.4648 18.9662L34.3337 19.0778L34.2026 18.9662C30.6258 15.6554 26.8617 14 23.0039 14C18.9402 14 14.8577 15.9344 11.206 19.5986C11.0749 19.7102 11 19.8776 11 20.045C11 20.2124 11.0562 20.3798 11.1685 20.4914L11.2247 20.5471V20.5657C18.3409 27.6895 26.9178 27.9499 34.1839 21.2167L34.3149 21.1051L34.446 21.2167C35.6071 22.2211 37.9667 23.9881 40.8506 24.3601C41.0192 24.3787 41.1877 24.3229 41.3001 24.2299C41.4312 24.0997 41.5061 23.9695 41.5248 23.8021ZM17.7604 23.4859L17.6668 23.6347L17.4982 23.5603C15.7192 22.6861 14.0899 21.5515 12.6292 20.2124L12.4981 20.0822L12.648 19.952C13.9588 18.7616 15.4008 17.7386 16.9551 16.883L17.236 16.7342V16.7528C17.3484 16.697 17.442 16.6598 17.5357 16.604L17.6855 16.5296L17.7791 16.6784C18.9589 18.8174 18.9589 21.3469 17.7604 23.4859ZM33.4348 20.2124C31.1876 22.3885 27.0676 24.9367 22.8541 24.9367C21.5245 24.9367 20.2323 24.6949 19.0338 24.1927L18.8466 24.1183L18.9402 23.9323C20.2323 21.5143 20.2323 18.6314 18.9402 16.2134L18.8466 16.0274L19.0338 15.953C24.7268 13.5908 30.7756 17.348 33.4348 19.9334L33.5659 20.0636L33.4348 20.2124ZM37.4985 21.8677C36.6745 21.3841 35.9067 20.8261 35.1951 20.2124L35.0453 20.0822L35.1951 19.952C35.9067 19.3196 36.6745 18.7616 37.4985 18.2966L38.0978 17.9618L37.7607 18.557C37.4985 19.0034 37.3112 19.4684 37.1802 19.952C37.1614 20.045 37.1614 20.1566 37.1802 20.2496C37.3112 20.7331 37.5172 21.1981 37.7607 21.6445L38.1165 22.2397L37.4985 21.8677Z" fill="#3C2323"/>
<path d="M16.6742 19.9148C17.1049 19.9148 17.4608 19.5614 17.4608 19.1336C17.4608 18.7058 17.1049 18.3524 16.6742 18.3524C16.2435 18.3524 15.8877 18.7058 15.8877 19.1336C15.8877 19.5614 16.2435 19.9148 16.6742 19.9148Z" fill="#3C2323"/>
<path d="M11.2435 38.124C11.3746 38.2356 11.5431 38.2728 11.6929 38.2542C14.5581 37.8822 16.9364 36.1338 18.0975 35.1108L18.2286 34.9992L18.3597 35.1108C25.6257 41.8253 34.2026 41.5835 41.3188 34.4598V34.4412L41.375 34.3854C41.4874 34.2552 41.5435 34.1064 41.5435 33.939C41.5435 33.7716 41.4686 33.6228 41.3375 33.4926C37.6858 29.8284 33.6033 27.894 29.5396 27.894C25.6819 27.894 21.9178 29.5494 18.3597 32.8416L18.2286 32.9532L18.0975 32.8416C17.1799 32.0232 14.7267 30.0888 11.7304 29.7354C11.4869 29.7168 11.2622 29.847 11.1498 30.0516C11.0749 30.2004 11.0375 30.3678 11.0937 30.5166C11.1311 30.684 11.2435 30.8142 11.3746 30.8886C12.6667 31.5024 13.6405 32.5812 14.1274 33.9204L14.1461 33.9762L14.1274 34.032C13.6405 35.3526 12.648 36.45 11.3746 37.0638C11.1498 37.1754 11 37.4358 11.0375 37.6776C11.0187 37.8822 11.1124 38.031 11.2435 38.124ZM34.7644 30.6096L34.858 30.4608L35.0079 30.5352C35.1015 30.5724 35.1951 30.6282 35.3075 30.684V30.6654L35.5884 30.8142C37.1427 31.6512 38.5847 32.6742 39.8956 33.8832L40.0454 34.0134L39.8956 34.1436C38.4349 35.4828 36.8056 36.5988 35.0266 37.4916L34.858 37.566L34.7644 37.4172C33.5659 35.2782 33.5659 32.73 34.7644 30.6096ZM18.9589 33.9948L19.09 33.8646C21.7492 31.2792 27.7793 27.522 33.491 29.8842L33.6783 29.9586L33.5846 30.1446C32.2925 32.5626 32.2925 35.4456 33.5846 37.8636L33.6783 38.0496L33.491 38.124C32.2925 38.6262 31.0003 38.868 29.6707 38.868C25.4572 38.868 21.3372 36.3198 19.09 34.1436L18.9589 33.9948ZM14.427 36.1338L14.7828 35.5386C15.045 35.0922 15.2323 34.6272 15.3634 34.1436C15.3821 34.0506 15.3821 33.939 15.3634 33.846C15.2323 33.3624 15.0263 32.8974 14.7828 32.451L14.427 31.8558L15.0263 32.1906C15.8503 32.6556 16.6181 33.2136 17.3297 33.846L17.4795 33.9762L17.3297 34.1064C16.6368 34.7202 15.869 35.2782 15.0263 35.7618L14.427 36.1338Z" fill="#3C2323"/>
<path d="M36.637 33.0462C36.637 32.6184 36.2812 32.265 35.8505 32.265C35.4198 32.265 35.064 32.6184 35.064 33.0462C35.064 33.474 35.4198 33.8274 35.8505 33.8274C36.2812 33.8274 36.637 33.474 36.637 33.0462Z" fill="#3C2323"/>
<defs>
<linearGradient id="paint0_linear_930_59" x1="26.5" y1="35" x2="26.5" y2="59" gradientUnits="userSpaceOnUse">
<stop stop-color="#CDBB9C"/>
<stop offset="1" stop-color="#CDBB9C" stop-opacity="0"/>
</linearGradient>
</defs>
</svg>
