<svg width="53" height="53" viewBox="0 0 53 53" fill="none" xmlns="http://www.w3.org/2000/svg">
<rect width="53" height="53" rx="13" fill="#FCF8F1"/>
<mask id="mask0_921_41" style="mask-type:alpha" maskUnits="userSpaceOnUse" x="0" y="0" width="53" height="53">
<path d="M0 13C0 5.8203 5.8203 0 13 0H40C47.1797 0 53 5.8203 53 13V40C53 47.1797 47.1797 53 40 53H13C5.8203 53 0 47.1797 0 40V13Z" fill="#FCF8F1"/>
</mask>
<g mask="url(#mask0_921_41)">
<ellipse cx="26.5" cy="47" rx="31.5" ry="12" fill="url(#paint0_linear_921_41)" fill-opacity="0.09"/>
</g>
<path d="M39.3764 20.2376H31.9337L32.5539 18.7376C32.7231 18.2376 32.5539 17.682 32.1592 17.3487L30.6368 16.2376C30.1857 15.9043 29.5091 15.9043 29.058 16.3487L24.8292 20.2932H14.6235C12.0299 20.2376 10 23.682 10 28.0709C10 32.5154 12.0299 35.9598 14.5672 35.9598H39.3764C41.9701 35.9598 44 32.5154 44 28.0709C44 23.6265 41.9701 20.2376 39.3764 20.2376ZM39.3764 34.6821H17.1609C18.4577 33.2376 19.1907 30.7932 19.1907 28.1265C19.1907 25.4043 18.4013 22.9598 17.1609 21.5154H25.0547C25.2239 21.5154 25.393 21.4598 25.5058 21.3487L29.8474 17.2932L31.257 18.3487L30.3549 20.682C30.3549 20.7376 30.2985 20.8487 30.2985 20.9043C30.2985 21.2376 30.5804 21.5154 30.9751 21.5709H39.3764C41.1808 21.5709 42.6468 24.5709 42.6468 28.182C42.7032 31.682 41.1808 34.6821 39.3764 34.6821ZM17.8939 28.0709C17.8939 31.6265 16.3715 34.6265 14.5672 34.6265C12.7629 34.6265 11.2405 31.6265 11.2405 28.0709C11.2968 24.5154 12.8192 21.5154 14.5672 21.5154C16.3151 21.5154 17.8939 24.5154 17.8939 28.0709Z" fill="#3C2323"/>
<path d="M32.1592 25.2931C32.1592 24.9598 31.8773 24.682 31.4826 24.682H21.3334C20.9951 24.682 20.7131 24.9598 20.7131 25.2931C20.7131 25.6265 20.9951 25.9042 21.3334 25.9042H31.4826C31.8773 25.9598 32.1592 25.682 32.1592 25.2931Z" fill="#3C2323"/>
<path d="M39.9402 30.2375H30.3548C30.0165 30.2375 29.6782 30.5153 29.6782 30.9042C29.6782 31.2931 29.9601 31.5709 30.3548 31.5709H39.9402C40.2786 31.5709 40.6169 31.2931 40.6169 30.9042C40.6169 30.5153 40.3349 30.2375 39.9402 30.2375Z" fill="#3C2323"/>
<path d="M26.9718 30.2375H24.7164C24.3781 30.2375 24.0962 30.5153 24.0962 30.9042C24.0962 31.2931 24.3781 31.5709 24.7164 31.5709H26.9718C27.3101 31.5709 27.6484 31.2931 27.6484 30.9042C27.6484 30.5153 27.3665 30.2375 26.9718 30.2375Z" fill="#3C2323"/>
<path d="M14.5671 22.4598C12.9884 22.4598 12.2554 25.4043 12.2554 28.071C12.2554 30.7376 12.9884 33.7376 14.5671 33.7376C16.1459 33.7376 16.8789 30.7932 16.8789 28.071C16.8789 27.7376 16.597 27.4598 16.2587 27.4598C15.9204 27.4598 15.6385 27.7376 15.6385 28.071C15.6385 31.0154 14.7927 32.4043 14.5671 32.4043C14.3416 32.4043 13.4958 30.9598 13.4958 28.071C13.4958 25.1821 14.398 23.7376 14.5671 23.7376C14.5671 23.7376 14.7927 23.8487 15.0746 24.4598C15.131 24.6265 15.2438 24.7376 15.4129 24.7932C15.5821 24.8487 15.7512 24.8487 15.9204 24.7932C16.0895 24.7376 16.2023 24.6265 16.2587 24.4598C16.3151 24.2932 16.3151 24.1265 16.2587 23.9598C15.7512 22.7376 15.0746 22.4598 14.5671 22.4598Z" fill="#3C2323"/>
<defs>
<linearGradient id="paint0_linear_921_41" x1="26.5" y1="35" x2="26.5" y2="59" gradientUnits="userSpaceOnUse">
<stop stop-color="#CDBB9C"/>
<stop offset="1" stop-color="#CDBB9C" stop-opacity="0"/>
</linearGradient>
</defs>
</svg>
