<svg width="53" height="53" viewBox="0 0 53 53" fill="none" xmlns="http://www.w3.org/2000/svg">
<rect width="53" height="53" rx="13" fill="#FCF8F1"/>
<mask id="mask0_921_44" style="mask-type:alpha" maskUnits="userSpaceOnUse" x="0" y="0" width="53" height="53">
<path d="M0 13C0 5.8203 5.8203 0 13 0H40C47.1797 0 53 5.8203 53 13V40C53 47.1797 47.1797 53 40 53H13C5.8203 53 0 47.1797 0 40V13Z" fill="#FCF8F1"/>
</mask>
<g mask="url(#mask0_921_44)">
<ellipse cx="26.5" cy="47" rx="31.5" ry="12" fill="url(#paint0_linear_921_44)" fill-opacity="0.09"/>
</g>
<path d="M33.2479 41C30.0744 41 27.4958 38.5992 27.4958 35.6426C27.4958 32.6859 30.0744 30.2852 33.2479 30.2852C36.4215 30.2852 39 32.7111 39 35.6426C39 38.5992 36.4215 41 33.2479 41ZM33.2479 31.8014C30.8925 31.8014 28.9835 33.5198 28.9835 35.6426C28.9835 37.7653 30.8925 39.4837 33.2479 39.4837C35.6033 39.4837 37.5372 37.7653 37.5372 35.6426C37.5372 33.5451 35.6033 31.8014 33.2479 31.8014Z" fill="#3C2323"/>
<path d="M20.7521 41C17.5785 41 15 38.5992 15 35.6426C15 32.7111 17.5785 30.3104 20.7521 30.3104C23.9256 30.3104 26.4793 32.7111 26.4793 35.6426C26.4793 38.5992 23.9256 41 20.7521 41ZM20.7521 31.8014C18.3967 31.8014 16.4876 33.5198 16.4876 35.6426C16.4876 37.7653 18.3967 39.4837 20.7521 39.4837C23.1074 39.4837 25.0165 37.7653 25.0165 35.6426C25.0165 33.5451 23.1074 31.8014 20.7521 31.8014Z" fill="#3C2323"/>
<path d="M20.6777 35.1119C19.9339 35.1119 19.2397 34.7329 18.6199 33.9747C18.4711 33.7726 18.4959 33.4946 18.6695 33.343C18.8678 33.1913 19.1406 33.2166 19.2893 33.3935C19.7356 33.9242 20.1819 34.2022 20.653 34.2022C21.4711 34.2022 22.1158 33.3935 22.1406 33.3935C22.2893 33.1913 22.562 33.1661 22.7604 33.3177C22.9587 33.4693 22.9835 33.7473 22.8348 33.9495C22.81 34.0253 21.9422 35.1119 20.6777 35.1119C20.7025 35.1119 20.7025 35.1119 20.6777 35.1119Z" fill="#3C2323"/>
<path d="M33.1983 35.1119C32.4545 35.1119 31.7602 34.7329 31.1404 33.9747C30.9916 33.7726 31.0164 33.4946 31.19 33.343C31.3883 33.1913 31.6611 33.2166 31.8098 33.3935C32.2561 33.9242 32.7024 34.2022 33.1735 34.2022C33.9916 34.2022 34.6363 33.3935 34.6611 33.3935C34.8098 33.1913 35.0826 33.1661 35.2809 33.3177C35.4792 33.4693 35.504 33.7473 35.3553 33.9495C35.3305 34.0253 34.4627 35.1119 33.1983 35.1119Z" fill="#3C2323"/>
<path d="M33.719 34.8086C33.5702 34.8086 33.3967 34.7581 33.2727 34.657C33 34.4549 26.5537 29.3249 26.5537 18.1552C26.5537 17.7509 26.876 17.3971 27.2975 17.3971C27.6942 17.3971 28.0413 17.7256 28.0413 18.1552C28.0413 28.5668 34.1157 33.4188 34.1901 33.4693C34.5124 33.722 34.5868 34.2021 34.3388 34.5307C34.1653 34.7076 33.9421 34.8086 33.719 34.8086Z" fill="#3C2323"/>
<path d="M20.7769 34.8845C20.7521 34.8845 20.7521 34.8845 20.7273 34.8845C20.3306 34.8592 20.0083 34.5054 20.0331 34.1011C20.0579 33.6715 20.6777 23.5885 28.3885 15.7798C28.686 15.4766 29.1323 15.4766 29.4298 15.7798C29.7273 16.0831 29.7273 16.5379 29.4298 16.8412C22.1405 24.2202 21.5207 34.0758 21.5207 34.1769C21.4959 34.5812 21.1736 34.8845 20.7769 34.8845Z" fill="#3C2323"/>
<path d="M22.6611 21.5921C21.9421 21.5921 21.2231 21.4404 20.5784 21.1625C18.5454 20.2527 17.2561 18.0542 17.2065 15.4007V15.0469L17.4545 14.8195C18.7685 13.657 20.3057 13 21.8181 13C22.5371 13 23.2561 13.1516 23.9008 13.4296C25.9338 14.3394 27.2231 16.5379 27.2727 19.1913V19.5451L27.0247 19.7726C25.7355 20.9603 24.1735 21.5921 22.6611 21.5921ZM18.6941 15.7292C18.8181 17.6245 19.7603 19.1661 21.1735 19.7978C21.6446 20 22.1404 20.1011 22.6611 20.1011C23.7272 20.1011 24.8181 19.6715 25.7851 18.8881C25.6611 16.9928 24.7189 15.4513 23.3057 14.8195C22.8346 14.6173 22.3388 14.5162 21.8181 14.5162C20.7768 14.491 19.6611 14.9206 18.6941 15.7292Z" fill="#3C2323"/>
<defs>
<linearGradient id="paint0_linear_921_44" x1="26.5" y1="35" x2="26.5" y2="59" gradientUnits="userSpaceOnUse">
<stop stop-color="#CDBB9C"/>
<stop offset="1" stop-color="#CDBB9C" stop-opacity="0"/>
</linearGradient>
</defs>
</svg>
