<svg width="53" height="53" viewBox="0 0 53 53" fill="none" xmlns="http://www.w3.org/2000/svg">
<rect width="53" height="53" rx="13" fill="#FCF8F1"/>
<mask id="mask0_930_69" style="mask-type:alpha" maskUnits="userSpaceOnUse" x="0" y="0" width="53" height="53">
<path d="M0 13C0 5.8203 5.8203 0 13 0H40C47.1797 0 53 5.8203 53 13V40C53 47.1797 47.1797 53 40 53H13C5.8203 53 0 47.1797 0 40V13Z" fill="#FCF8F1"/>
</mask>
<g mask="url(#mask0_930_69)">
<ellipse cx="26.5" cy="47" rx="31.5" ry="12" fill="url(#paint0_linear_930_69)" fill-opacity="0.09"/>
</g>
<path d="M39.1186 22.8314C37.1409 17.352 31.8097 13.7561 25.9626 14.0129L24.5868 14.0985C23.6409 14.2698 22.6951 14.5266 21.7492 14.7835C17.7938 16.3246 14.7842 19.578 13.5804 23.5163C13.0645 25.1431 12.8925 26.941 13.0645 28.6533C13.0645 28.8246 13.1505 28.9958 13.1505 29.167C13.1505 29.4239 13.2365 29.5951 13.2365 29.852V30.3657L17.2779 33.2766L17.9658 38.328H24.8447L25.1027 38.5848C25.4467 38.7561 25.7906 38.9273 26.2205 39.0129C26.3065 39.0129 26.4785 39.0129 26.5645 39.0129C27.1664 39.0129 27.5963 38.6705 27.9403 38.4992C28.0263 38.4136 28.1123 38.4136 28.1982 38.328H35.0772L35.7651 33.191C35.8511 33.1054 36.1091 33.0198 36.1951 32.9341C36.2811 32.8485 36.367 32.8485 36.453 32.7629L38.6887 31.1362C39.0326 30.965 39.3766 30.7081 39.6346 30.3657L39.8065 30.1944L39.8925 30.0232C39.9785 29.5951 40.0645 29.167 40.0645 28.7389C40.1505 26.8554 39.8925 24.715 39.1186 22.8314ZM38.6027 28.8246C38.6027 29.0814 38.5167 29.4239 38.5167 29.6807C38.3447 29.852 38.0868 30.0232 37.8288 30.1944L35.5932 31.8211C35.5932 31.8211 35.5072 31.9068 35.4212 31.9068C34.9053 32.2492 34.6473 32.4205 34.5613 32.6773L33.9594 37.1294H28.1123H27.9403C27.6823 37.215 27.5104 37.3862 27.3384 37.4718C26.9944 37.6431 26.8225 37.8143 26.5645 37.7287C26.3065 37.7287 26.1346 37.6431 25.9626 37.5574L25.3607 37.1294H18.9976L18.3957 32.5917L14.4403 29.7663V29.6807C14.3543 29.5095 14.3543 29.2526 14.3543 29.0814C14.3543 28.9102 14.3543 28.7389 14.2683 28.5677C14.0963 27.0266 14.2683 25.4855 14.7842 23.9444C15.3002 22.2321 16.246 20.691 17.3639 19.3211L19.8575 26.1704C19.9435 26.4273 20.2014 26.5985 20.4594 26.5985C20.5454 26.5985 20.6314 26.5985 20.7174 26.5985C21.0613 26.5129 21.2333 26.0848 21.1473 25.7424L18.3957 18.2937C19.5135 17.352 20.8033 16.5814 22.1791 16.0677C23.039 15.8109 23.8989 15.554 24.6728 15.3828L25.7906 15.2972V26.5129C25.7906 26.8554 26.0486 27.1978 26.4785 27.1978C26.9084 27.1978 27.1664 26.941 27.1664 26.5129V15.2972C29.918 15.4684 32.4976 16.4958 34.4753 18.2937L31.8097 25.7424C31.7237 26.0848 31.8957 26.4273 32.2397 26.5985C32.3256 26.5985 32.4116 26.5985 32.4976 26.5985C32.7556 26.5985 33.0135 26.4273 33.0995 26.1704L35.5932 19.3211C36.625 20.4341 37.3989 21.804 38.0008 23.3451C38.6027 25.0574 38.8607 26.941 38.6027 28.8246Z" fill="#3C2323"/>
<defs>
<linearGradient id="paint0_linear_930_69" x1="26.5" y1="35" x2="26.5" y2="59" gradientUnits="userSpaceOnUse">
<stop stop-color="#CDBB9C"/>
<stop offset="1" stop-color="#CDBB9C" stop-opacity="0"/>
</linearGradient>
</defs>
</svg>
