<?xml version="1.0" encoding="utf-8"?>
<!-- Generator: Adobe Illustrator 24.0.2, SVG Export Plug-In . SVG Version: 6.00 Build 0)  -->
<svg version="1.1" id="Layer_1" xmlns="http://www.w3.org/2000/svg" xmlns:xlink="http://www.w3.org/1999/xlink" x="0px" y="0px"
	 viewBox="0 0 53 53" style="enable-background:new 0 0 53 53;" xml:space="preserve">
<style type="text/css">
	.st0{fill:url(#SVGID_1_);}
	.st1{opacity:0.9;}
	.st2{opacity:0.9;fill:#FFFFFF;}
	.st3{opacity:0.65;}
	.st4{clip-path:url(#SVGID_3_);fill:#FFFFFF;}
</style>
<g>
	
		<linearGradient id="SVGID_1_" gradientUnits="userSpaceOnUse" x1="26.4444" y1="54" x2="26.4444" y2="1" gradientTransform="matrix(1 0 0 -1 0 54)">
		<stop  offset="0" style="stop-color:#FF8B8B"/>
		<stop  offset="1" style="stop-color:#FDB7B7"/>
	</linearGradient>
	<path class="st0" d="M12.9,0h27c7.2,0,13,5.8,13,13v27c0,7.2-5.8,13-13,13h-27c-7.2,0-13-5.8-13-13V13C-0.1,5.8,5.8,0,12.9,0z"/>
	<g class="st1">
		<path class="st2" d="M24.2,12.3c0-1.6,1-2.9,2.3-2.9s2.3,1.3,2.3,2.9c0,2.2-2.3,5.4-2.3,5.4S24.2,14.7,24.2,12.3z"/>
		<path class="st2" d="M35.7,15.5c1.4-0.8,3-0.6,3.7,0.5c0.6,1.1,0.1,2.6-1.3,3.5c-1.9,1.1-5.8,0.8-5.8,0.8S33.6,16.8,35.7,15.5z"/>
		<path class="st2" d="M17.2,15.5c-1.4-0.8-3-0.6-3.7,0.5s-0.1,2.6,1.3,3.5c1.9,1.1,5.8,0.8,5.8,0.8S19.3,16.8,17.2,15.5z"/>
	</g>
	<g class="st3">
		<defs>
			<path id="SVGID_2_" class="st3" d="M12.9,0h27c7.2,0,13,5.8,13,13v27c0,7.2-5.8,13-13,13h-27c-7.2,0-13-5.8-13-13V13
				C-0.1,5.8,5.8,0,12.9,0z"/>
		</defs>
		<clipPath id="SVGID_3_">
			<use xlink:href="#SVGID_2_"  style="overflow:visible;"/>
		</clipPath>
		<path class="st4" d="M37.4,50.5c0-4.1-3.2-7.5-7.3-7.8V24.5h-7.4v18.2c-4.1,0.3-7.3,3.7-7.3,7.8v27h22V50.5z"/>
	</g>
</g>
</svg>
