<svg width="53" height="53" viewBox="0 0 53 53" fill="none" xmlns="http://www.w3.org/2000/svg">
<rect width="53" height="53" rx="13" fill="#FCF8F1"/>
<mask id="mask0_921_46" style="mask-type:alpha" maskUnits="userSpaceOnUse" x="0" y="0" width="53" height="53">
<path d="M0 13C0 5.8203 5.8203 0 13 0H40C47.1797 0 53 5.8203 53 13V40C53 47.1797 47.1797 53 40 53H13C5.8203 53 0 47.1797 0 40V13Z" fill="#FCF8F1"/>
</mask>
<g mask="url(#mask0_921_46)">
<ellipse cx="26.5" cy="47" rx="31.5" ry="12" fill="url(#paint0_linear_921_46)" fill-opacity="0.09"/>
</g>
<path d="M33.8351 23.8974H34.6832C34.9931 23.8974 35.2541 23.6388 35.2541 23.3316C35.2541 23.0245 34.9931 22.7659 34.6832 22.7659H33.8351C33.5251 22.7659 33.2642 23.0245 33.2642 23.3316C33.2642 23.6388 33.5088 23.8974 33.8351 23.8974Z" fill="#3C2323"/>
<path d="M37.4234 23.8974H38.2716C38.5815 23.8974 38.8425 23.6388 38.8425 23.3316C38.8425 23.0245 38.5815 22.7659 38.2716 22.7659H37.4234C37.1135 22.7659 36.8525 23.0245 36.8525 23.3316C36.8525 23.6388 37.1135 23.8974 37.4234 23.8974Z" fill="#3C2323"/>
<path d="M36.2164 26.1282C36.5263 26.1282 36.7873 25.8695 36.7873 25.5624V24.7057C36.7873 24.3985 36.5263 24.1399 36.2164 24.1399C35.9065 24.1399 35.6455 24.3985 35.6455 24.7057V25.5624C35.6455 25.8695 35.8902 26.1282 36.2164 26.1282Z" fill="#3C2323"/>
<path d="M36.2164 22.5072C36.5263 22.5072 36.7873 22.2486 36.7873 21.9414V21.0847C36.7873 20.7776 36.5263 20.5189 36.2164 20.5189C35.9065 20.5189 35.6455 20.7776 35.6455 21.0847V21.9414C35.6455 22.2486 35.8902 22.5072 36.2164 22.5072Z" fill="#3C2323"/>
<path d="M18.6657 33.7581H17.8175C17.5076 33.7581 17.2466 34.0167 17.2466 34.3238C17.2466 34.631 17.5076 34.8896 17.8175 34.8896H18.6657C18.9756 34.8896 19.2365 34.631 19.2365 34.3238C19.2365 34.0005 18.9756 33.7581 18.6657 33.7581Z" fill="#3C2323"/>
<path d="M22.254 33.7581H21.4059C21.0959 33.7581 20.835 34.0167 20.835 34.3238C20.835 34.631 21.0959 34.8896 21.4059 34.8896H22.254C22.5639 34.8896 22.8249 34.631 22.8249 34.3238C22.8249 34.0005 22.5803 33.7581 22.254 33.7581Z" fill="#3C2323"/>
<path d="M20.1991 35.1321C19.8892 35.1321 19.6282 35.3907 19.6282 35.6979V36.5546C19.6282 36.8617 19.8892 37.1204 20.1991 37.1204C20.509 37.1204 20.77 36.8617 20.77 36.5546V35.6979C20.77 35.3907 20.5253 35.1321 20.1991 35.1321Z" fill="#3C2323"/>
<path d="M20.1991 31.5273C19.8892 31.5273 19.6282 31.786 19.6282 32.0931V32.9499C19.6282 33.257 19.8892 33.5156 20.1991 33.5156C20.509 33.5156 20.77 33.257 20.77 32.9499V32.0931C20.77 31.7698 20.5253 31.5273 20.1991 31.5273Z" fill="#3C2323"/>
<path d="M25.9079 29.6845C26.6255 29.6845 27.3269 29.4582 27.9141 29.0379C29.4474 27.9387 29.7899 25.8049 28.6808 24.2692L27.9631 23.2832L29.219 22.879C30.0998 22.6042 30.8012 21.99 31.2253 21.1817C31.6494 20.3735 31.7146 19.4521 31.4373 18.5792C31.16 17.7062 30.5402 17.0111 29.7247 16.5909C28.9091 16.1706 27.9794 16.1059 27.0986 16.3807L25.6958 16.8495V15.4108C25.6958 13.5357 24.1462 12 22.2542 12C20.3621 12 18.8125 13.5357 18.8125 15.4108V16.8333L17.5076 16.413C16.6268 16.1382 15.6971 16.2029 14.8815 16.6232C14.0659 17.0435 13.4624 17.7224 13.1688 18.5953C12.5816 20.3896 13.5766 22.3133 15.3708 22.8952L16.6268 23.2993L15.9091 24.2854C14.7999 25.8049 15.1425 27.9387 16.6757 29.0379C18.209 30.1371 20.3621 29.7977 21.4875 28.2782L22.3031 27.1628L23.1186 28.2782C23.6569 29.0217 24.4562 29.5067 25.3696 29.636C25.549 29.6845 25.7284 29.6845 25.9079 29.6845ZM24.0321 27.6154L22.7435 25.8696C22.6293 25.7241 22.4662 25.6433 22.2868 25.6433C22.1074 25.6433 21.9279 25.7241 21.8301 25.8696L20.5415 27.6154C20.1826 28.1003 19.6444 28.4236 19.0409 28.5206C18.4373 28.6176 17.8338 28.4721 17.3282 28.1165C16.3006 27.3729 16.0722 25.9504 16.8225 24.932L18.0132 23.3155C18.1274 23.17 18.1437 22.976 18.0948 22.8144C18.0459 22.6366 17.8991 22.5072 17.736 22.4588L15.7297 21.8122C14.5227 21.4242 13.8702 20.131 14.2617 18.9509C14.6531 17.7547 15.958 17.1081 17.1488 17.4961L19.2203 18.1427C19.3997 18.1912 19.5791 18.175 19.7259 18.0619C19.8727 17.9487 19.9543 17.7871 19.9543 17.6093V15.4108C19.9543 14.1499 20.9982 13.1315 22.2542 13.1315C23.5264 13.1315 24.554 14.1499 24.554 15.4108V17.6416C24.554 17.8194 24.6356 17.9972 24.7824 18.0942C24.9292 18.2074 25.1249 18.2235 25.288 18.175L27.4248 17.4799C28.012 17.286 28.6318 17.3344 29.1701 17.6093C29.7084 17.8841 30.1161 18.3528 30.3119 18.9348C30.7033 20.131 30.0346 21.408 28.8439 21.796L26.8376 22.4426C26.6582 22.4911 26.5277 22.6366 26.4787 22.7982C26.4298 22.976 26.4461 23.1538 26.5603 23.2993L27.751 24.9158C28.5013 25.9342 28.273 27.3567 27.2454 28.1003C26.756 28.456 26.1362 28.6014 25.5327 28.5045C24.9292 28.4398 24.3909 28.1165 24.0321 27.6154Z" fill="#3C2323"/>
<path d="M24.081 23.0084C24.3746 22.6366 24.554 22.1517 24.554 21.6344C24.554 21.5697 24.554 21.5051 24.5377 21.4566L26.9028 20.6968C27.1964 20.5998 27.3595 20.2765 27.2616 19.9855C27.1638 19.6946 26.8375 19.5329 26.5439 19.6299L24.1462 20.4058C23.8363 19.9532 23.3796 19.6299 22.8413 19.4844V17.286C22.8413 16.9789 22.5803 16.7202 22.2704 16.7202C21.9605 16.7202 21.6995 16.9789 21.6995 17.286V19.4844C21.1449 19.6299 20.6719 19.9694 20.3783 20.422L17.9153 19.6299C17.6217 19.5329 17.2955 19.6946 17.1976 19.9855C17.0998 20.2765 17.2629 20.5998 17.5565 20.6968L20.0195 21.4889C20.0195 21.5374 20.0195 21.5859 20.0195 21.6505C20.0195 22.1355 20.1826 22.5881 20.4436 22.9599L19.0571 24.835C18.8777 25.0937 18.9266 25.4493 19.1876 25.6271C19.2855 25.708 19.3996 25.7403 19.5301 25.7403C19.7096 25.7403 19.8727 25.6595 19.9869 25.514L21.3244 23.6873C21.618 23.8166 21.9442 23.8975 22.2867 23.8975C22.5966 23.8975 22.9066 23.8328 23.1838 23.7197L24.505 25.514C24.6192 25.6595 24.7986 25.7403 24.9618 25.7403C25.0759 25.7403 25.1901 25.708 25.3043 25.6271C25.5653 25.4493 25.6142 25.0937 25.4348 24.835L24.081 23.0084ZM22.2867 22.7659C21.6669 22.7659 21.1613 22.2648 21.1613 21.6505C21.1613 21.0363 21.6669 20.5352 22.2867 20.5352C22.9066 20.5352 23.4122 21.0363 23.4122 21.6505C23.4122 22.2648 22.9066 22.7659 22.2867 22.7659Z" fill="#3C2323"/>
<path d="M38.8752 32.8044C38.6632 32.1416 38.1902 31.6082 37.5703 31.2849C36.9505 30.9616 36.2328 30.9131 35.5641 31.1232L34.7811 31.3819V30.5575C34.7811 29.1188 33.6067 27.9387 32.1387 27.9387C30.687 27.9387 29.4963 29.1026 29.4963 30.5575V31.3657L28.7623 31.1232C27.3759 30.6868 25.8916 31.4304 25.4348 32.8044C24.9781 34.1784 25.7448 35.6494 27.1312 36.102L27.8163 36.3284L27.4248 36.8618C26.5766 38.0257 26.8376 39.6583 28.012 40.5151C28.485 40.8546 29.0233 41.0162 29.5616 41.0162C30.3771 41.0162 31.1764 40.6444 31.6983 39.9331L32.155 39.3027L32.6118 39.9331C33.4599 41.097 35.1237 41.3557 36.2981 40.5151C36.869 40.111 37.2441 39.4967 37.3583 38.8178C37.4725 38.1227 37.2931 37.4437 36.8853 36.878L36.4938 36.3445L37.1789 36.1182C38.5653 35.6494 39.332 34.1784 38.8752 32.8044ZM35.401 35.4716C35.2215 35.5201 35.0911 35.6656 35.0421 35.8272C34.9932 36.0051 35.0095 36.1829 35.1237 36.3284L35.9719 37.4922C36.2002 37.8155 36.2981 38.2035 36.2328 38.5915C36.1676 38.9794 35.9555 39.3189 35.6293 39.5614C34.9606 40.0463 34.0308 39.9008 33.5415 39.2381L32.6281 37.9772C32.5139 37.8317 32.3508 37.7509 32.1714 37.7509C31.9919 37.7509 31.8125 37.8317 31.7146 37.9772L30.8012 39.2381C30.3119 39.9008 29.3821 40.0463 28.7134 39.5614C28.0446 39.0764 27.8978 38.155 28.3872 37.4922L29.2353 36.3284C29.3495 36.1829 29.3658 35.9889 29.3169 35.8272C29.268 35.6494 29.1212 35.5201 28.9581 35.4716L27.5227 35.0028C26.7397 34.7442 26.3156 33.9198 26.5603 33.1438C26.7724 32.5134 27.3596 32.1255 27.9794 32.1255C28.1262 32.1255 28.2893 32.1416 28.4361 32.1901L29.9204 32.6589C30.0998 32.7074 30.2793 32.6912 30.4261 32.5781C30.5729 32.4649 30.6544 32.3033 30.6544 32.1255V30.5413C30.6544 29.733 31.3232 29.0541 32.1387 29.0541C32.9543 29.0541 33.6394 29.7169 33.6394 30.5413V32.1416C33.6394 32.3194 33.7209 32.4972 33.8677 32.5942C34.0145 32.7074 34.2102 32.7236 34.3734 32.6751L35.9066 32.1739C36.6895 31.9153 37.5377 32.3518 37.7824 33.1277C38.0434 33.9036 37.603 34.7442 36.82 34.9867L35.401 35.4716Z" fill="#3C2323"/>
<path d="M33.8187 33.7742L32.7585 34.1137V33.1438C32.7585 32.8366 32.4975 32.578 32.1876 32.578C31.8777 32.578 31.6167 32.8366 31.6167 33.1438V34.1298L30.5239 33.7904C30.2303 33.6934 29.904 33.855 29.8062 34.1622C29.7083 34.4531 29.8714 34.7764 30.1813 34.8734L31.2579 35.2129L30.638 36.0211C30.4423 36.2636 30.4912 36.6193 30.7522 36.8132C30.8501 36.8941 30.9806 36.9264 31.0947 36.9264C31.2742 36.9264 31.4373 36.8456 31.5515 36.7001L32.2039 35.8433L32.84 36.6839C32.9542 36.8294 33.1173 36.9102 33.2968 36.9102C33.4109 36.9102 33.5414 36.8779 33.6393 36.7971C33.9003 36.6192 33.9492 36.2636 33.7535 36.005L33.1336 35.1806L34.1939 34.8411C34.4875 34.7441 34.6506 34.4208 34.5527 34.1298C34.4385 33.8389 34.1123 33.6772 33.8187 33.7742Z" fill="#3C2323"/>
<defs>
<linearGradient id="paint0_linear_921_46" x1="26.5" y1="35" x2="26.5" y2="59" gradientUnits="userSpaceOnUse">
<stop stop-color="#CDBB9C"/>
<stop offset="1" stop-color="#CDBB9C" stop-opacity="0"/>
</linearGradient>
</defs>
</svg>
