<svg width="53" height="53" viewBox="0 0 53 53" fill="none" xmlns="http://www.w3.org/2000/svg">
<rect width="53" height="53" rx="13" fill="#FCF8F1"/>
<mask id="mask0_930_67" style="mask-type:alpha" maskUnits="userSpaceOnUse" x="0" y="0" width="53" height="53">
<path d="M0 13C0 5.8203 5.8203 0 13 0H40C47.1797 0 53 5.8203 53 13V40C53 47.1797 47.1797 53 40 53H13C5.8203 53 0 47.1797 0 40V13Z" fill="#FCF8F1"/>
</mask>
<g mask="url(#mask0_930_67)">
<ellipse cx="26.5" cy="47" rx="31.5" ry="12" fill="url(#paint0_linear_930_67)" fill-opacity="0.09"/>
</g>
<path d="M37.9796 17.5101C37.4694 17.1201 36.9592 16.7301 36.3215 16.6001C36.1939 15.9501 35.9388 15.4301 35.4286 14.9101C34.1531 13.6101 31.9847 13.6101 30.7092 14.9101C30.0715 15.5601 29.6888 16.3401 29.6888 17.2501C29.6888 17.9001 29.8164 18.5501 30.199 19.0701L28.5409 20.7601C27.1378 20.2401 25.3521 20.1101 23.4388 20.5001C20.3776 21.0201 17.3164 22.7101 14.7654 25.3101C12.8521 27.2601 14.5103 31.6801 18.3368 35.5801C20.1225 37.4001 22.0358 38.7001 23.8215 39.4801C24.8419 39.8701 25.6072 40.0001 26.3725 40.0001C27.2654 40.0001 27.9031 39.7401 28.5409 39.2201C33.1327 34.5401 34.6633 28.3001 32.4949 24.2701L33.898 22.8401C34.4082 23.1001 35.046 23.3601 35.6837 23.3601C37.4694 23.3601 39 21.8001 39 19.9801C39 19.0701 38.6174 18.1601 37.9796 17.5101ZM24.4592 38.0501C22.8011 37.4001 21.1429 36.1001 19.4847 34.4101C16.1684 31.0301 14.8929 27.3901 15.9133 26.3501C16.1684 26.0901 16.5511 25.9601 16.9337 25.9601C17.4439 25.9601 18.0817 26.0901 18.847 26.3501C20.5052 27.0001 22.2909 28.3001 23.8215 29.8601C27.1378 33.2401 28.4133 36.8801 27.3929 37.9201C26.8827 38.5701 25.8623 38.5701 24.4592 38.0501ZM29.1786 36.1001C29.0511 35.5801 28.9235 35.1901 28.796 34.6701C28.0307 32.8501 26.7552 30.9001 24.9694 29.0801C23.1837 27.2601 21.2705 25.9601 19.4847 25.1801C18.847 24.7901 18.3368 24.6601 17.9541 24.5301C19.7398 23.2301 21.7807 22.3201 23.6939 21.9301C26.3725 21.4101 28.6684 22.0601 30.0715 23.6201C32.8776 26.3501 32.3674 31.6801 29.1786 36.1001ZM36.9592 21.2801C36.5766 21.5401 36.0664 21.8001 35.6837 21.8001C35.1735 21.8001 34.7909 21.6701 34.4082 21.2801C34.1531 21.0201 33.6429 21.0201 33.3878 21.2801L31.7296 22.9701C31.6021 22.8401 31.4745 22.7101 31.347 22.5801C30.9643 22.1901 30.5817 21.9301 30.199 21.6701L31.8572 19.7201C31.9847 19.5901 32.1123 19.3301 32.1123 19.2001C32.1123 19.0701 31.9847 18.8101 31.8572 18.6801C31.4745 18.2901 31.347 17.9001 31.347 17.3801C31.347 16.8601 31.4745 16.4701 31.8572 16.0801C32.4949 15.4301 33.7705 15.4301 34.4082 16.0801C34.7909 16.4701 34.9184 16.8601 34.9184 17.3801C34.9184 17.6401 35.046 17.7701 35.1735 17.9001C35.3011 18.0301 35.5562 18.1601 35.6837 18.1601C36.1939 18.1601 36.5766 18.2901 36.9592 18.6801C37.3419 19.0701 37.4694 19.4601 37.4694 19.9801C37.4694 20.5001 37.2143 20.8901 36.9592 21.2801Z" fill="#3C2323"/>
<path d="M21.6532 30.9C21.2705 30.51 20.6328 30.51 20.2501 30.9C19.8675 31.29 19.8675 31.94 20.2501 32.33L21.5256 33.63C21.6532 33.76 21.9083 33.89 22.1634 33.89C22.4185 33.89 22.6736 33.76 22.8011 33.63C23.1838 33.24 23.1838 32.59 22.8011 32.2L21.6532 30.9Z" fill="#3C2323"/>
<defs>
<linearGradient id="paint0_linear_930_67" x1="26.5" y1="35" x2="26.5" y2="59" gradientUnits="userSpaceOnUse">
<stop stop-color="#CDBB9C"/>
<stop offset="1" stop-color="#CDBB9C" stop-opacity="0"/>
</linearGradient>
</defs>
</svg>
