<svg width="53" height="53" viewBox="0 0 53 53" fill="none" xmlns="http://www.w3.org/2000/svg">
<rect width="53" height="53" rx="13" fill="#FCF8F1"/>
<mask id="mask0_921_42" style="mask-type:alpha" maskUnits="userSpaceOnUse" x="0" y="0" width="53" height="53">
<path d="M0 13C0 5.8203 5.8203 0 13 0H40C47.1797 0 53 5.8203 53 13V40C53 47.1797 47.1797 53 40 53H13C5.8203 53 0 47.1797 0 40V13Z" fill="#FCF8F1"/>
</mask>
<g mask="url(#mask0_921_42)">
<ellipse cx="26.5" cy="47" rx="31.5" ry="12" fill="url(#paint0_linear_921_42)" fill-opacity="0.09"/>
</g>
<path d="M37.0579 23.7926H40.899V22.0691H37.0579C27.7582 22.0691 20.177 29.6728 20.0759 39H21.7943C21.8954 30.5852 28.7691 23.7926 37.0579 23.7926Z" fill="#3C2323"/>
<path d="M37.0577 28.8618H40.8988V27.1383H37.0577C30.4873 27.1383 25.1299 32.4102 25.1299 39.0001H26.8483C26.9494 33.424 31.4981 28.8618 37.0577 28.8618Z" fill="#3C2323"/>
<path d="M37.0578 18.7235H40.8989V17H37.0578C32.8123 17 28.5668 18.2166 25.0289 20.6498L24.9278 20.7512L24.8267 20.6498C21.3899 18.318 17.2455 17 13 17V18.7235C16.639 18.7235 20.1769 19.7373 23.3105 21.6636L23.5126 21.765L23.3105 21.8664C22.5018 22.576 21.6931 23.2857 20.9856 23.9954L20.8845 24.0968H20.7834C18.4585 22.7788 15.7292 22.0691 13 22.0691V23.7926C15.3249 23.7926 17.5487 24.4009 19.5704 25.4147L19.7726 25.5161L19.6715 25.6175C19.065 26.4286 18.4585 27.2396 17.9531 28.1521L17.852 28.2535L17.7509 28.1521C16.2347 27.5438 14.6173 27.1382 13 27.1382V28.8618C14.4152 28.8618 15.7292 29.1659 16.9422 29.7742L17.0433 29.8756V29.977C15.7292 32.8157 15.0217 35.9585 15.0217 39H16.7401C16.8412 27.8479 25.9386 18.7235 37.0578 18.7235Z" fill="#3C2323"/>
<defs>
<linearGradient id="paint0_linear_921_42" x1="26.5" y1="35" x2="26.5" y2="59" gradientUnits="userSpaceOnUse">
<stop stop-color="#CDBB9C"/>
<stop offset="1" stop-color="#CDBB9C" stop-opacity="0"/>
</linearGradient>
</defs>
</svg>
