<?xml version="1.0" encoding="utf-8"?>
<!-- Generator: Adobe Illustrator 24.0.2, SVG Export Plug-In . SVG Version: 6.00 Build 0)  -->
<svg version="1.1" id="Layer_1" xmlns="http://www.w3.org/2000/svg" xmlns:xlink="http://www.w3.org/1999/xlink" x="0px" y="0px"
	 viewBox="0 0 15 13" style="enable-background:new 0 0 15 13;" xml:space="preserve">
<style type="text/css">
	.st0{clip-path:url(#SVGID_2_);}
	.st1{fill:#3C2323;}
</style>
<g>
	<defs>
		<rect id="SVGID_1_" width="15" height="13"/>
	</defs>
	<clipPath id="SVGID_2_">
		<use xlink:href="#SVGID_1_"  style="overflow:visible;"/>
	</clipPath>
	<g class="st0">
		<path class="st1" d="M9.9,1.3C7.4-0.7,3.5-0.4,1.4,2c-2.1,2.4-1.8,6,0.7,8c2.3,1.8,5.7,1.7,7.9-0.1l3.6,2.9
			c0.4,0.3,0.9,0.3,1.3-0.1c0.3-0.3,0.3-0.9-0.1-1.2l-3.6-2.9C12.7,6.3,12.2,3.2,9.9,1.3z M9.2,8.2C7.7,9.9,5,10.1,3.3,8.7
			c-1.8-1.4-2-4-0.5-5.6s4.2-1.9,5.9-0.5C10.5,4,10.8,6.6,9.2,8.2z"/>
	</g>
</g>
</svg>
