<svg width="48" height="56" viewBox="0 0 48 56" fill="none" xmlns="http://www.w3.org/2000/svg">
<g clip-path="url(#clip0_26_516)">
<path d="M1.44916 56H25.456C25.9071 56 26.2763 55.6357 26.2763 55.1904C26.2763 54.907 26.1396 54.6641 25.8935 54.5157L14.9017 47.6202V32.3046L15.2025 32.2641C21.8741 31.4005 26.9052 25.7465 26.9052 19.1075C26.9052 12.4684 24.4033 4.22361 23.3369 0.98506C23.1455 0.391325 22.585 0 21.9698 0H4.94902C4.32014 0 3.77328 0.391325 3.58189 0.98506C2.50185 4.22361 0 12.4684 0 19.1075C0 25.7465 5.03105 31.4005 11.7026 32.2641L12.0034 32.3046V47.6202L1.01168 54.5157C0.628881 54.7586 0.51951 55.2578 0.765594 55.6222C0.915978 55.8651 1.17573 56 1.44916 56ZM2.89832 19.1075C2.89832 18.2034 2.953 17.2453 3.06238 16.1523L3.08972 15.8419H23.8018L23.8291 16.1523C23.9385 17.2453 23.9932 18.2034 23.9932 19.1075C23.9795 24.3027 20.0422 28.7287 14.8197 29.4169L13.4389 29.5923L12.0718 29.4169C6.863 28.7287 2.91199 24.3027 2.89832 19.1075Z" fill="#3C2323"/>
<path d="M36.9947 34.2747C30.9109 34.2747 25.9893 39.1325 25.9893 45.1373C25.9893 51.1422 30.9109 56 36.9947 56C43.0784 56 48.0001 51.1422 48.0001 45.1373C48.0001 39.1325 43.0784 34.2747 36.9947 34.2747ZM42.846 43.0728L35.7369 50.0896C35.2037 50.6159 34.3288 50.6159 33.7956 50.0896L30.7605 47.094C30.2274 46.5677 30.2274 45.7041 30.7605 45.1778C31.2937 44.6516 32.1687 44.6516 32.7019 45.1778L34.7662 47.2154L40.9047 41.1566C41.4378 40.6304 42.3128 40.6304 42.846 41.1566C43.3792 41.6829 43.3792 42.5465 42.846 43.0728Z" fill="#3C2323"/>
</g>
<defs>
<clipPath id="clip0_26_516">
<rect width="48" height="56" fill="white"/>
</clipPath>
</defs>
</svg>
