<svg width="53" height="53" viewBox="0 0 53 53" fill="none" xmlns="http://www.w3.org/2000/svg">
<rect width="53" height="53" rx="13" fill="#FCF8F1"/>
<mask id="mask0_693_40" style="mask-type:alpha" maskUnits="userSpaceOnUse" x="0" y="0" width="53" height="53">
<path d="M0 13C0 5.8203 5.8203 0 13 0H40C47.1797 0 53 5.8203 53 13V40C53 47.1797 47.1797 53 40 53H13C5.8203 53 0 47.1797 0 40V13Z" fill="#FCF8F1"/>
</mask>
<g mask="url(#mask0_693_40)">
<ellipse cx="26.5" cy="47" rx="31.5" ry="12" fill="url(#paint0_linear_693_40)" fill-opacity="0.09"/>
</g>
<path d="M22.2517 12.7708C21.2167 19.0126 21.1622 32.3931 27.0273 31.5511V13.4114C23.6135 13.5212 22.2517 12.7708 22.2517 12.7708Z" fill="white"/>
<path d="M32.0025 20.9711C30.3501 23.5887 22.7963 22.9114 21.9973 20.0742C21.9973 20.0742 21.961 29.8122 26.8093 30.4528C30.913 31.002 32.0025 20.9711 32.0025 20.9711Z" fill="#F6E889"/>
<path opacity="0.55" d="M21.9973 20.0742C21.9973 20.0742 26.319 18.8112 29.2969 22.8565C29.2969 22.8382 23.3773 23.6436 21.9973 20.0742Z" fill="#F6E889"/>
<path d="M27.3541 43.3391V32.2466C28.4981 32.1551 29.5694 31.5877 30.2957 30.6724C35.5616 24.1378 32.9105 11.6175 32.7289 10.7755C32.6563 9.64066 30.6407 9 26.9909 9C23.3593 9 21.3437 9.64066 21.2711 10.7755C21.0895 11.6175 18.4384 24.1378 23.6861 30.6724C24.4125 31.5877 25.4838 32.1551 26.6278 32.2466V43.3391C24.013 43.3757 20 43.7784 20 45.1696C20 46.6156 24.3943 47 26.9909 47C29.5875 47 33.9818 46.6156 33.9818 45.1696C34 43.7784 29.987 43.3757 27.3541 43.3391ZM26.9909 9.73218C30.6407 9.73218 31.9844 10.4094 31.9844 10.8304C31.9844 11.2514 30.6226 11.9287 26.9909 11.9287C23.3593 11.9287 21.9974 11.2697 21.9974 10.8304C21.9974 10.4094 23.3593 9.73218 26.9909 9.73218ZM24.249 30.2148C19.9274 24.815 21.3074 14.7293 21.834 11.764C22.6693 12.3497 24.4306 12.6792 27.0091 12.6792C29.5875 12.6792 31.3489 12.368 32.1842 11.764C32.7108 14.7293 34.0908 24.815 29.751 30.2148C29.0791 31.0568 28.0804 31.5328 27.0091 31.5328C25.9377 31.5328 24.939 31.0385 24.249 30.2148ZM26.9909 46.2678C23.0869 46.2678 20.8353 45.554 20.7082 45.1696C20.8171 44.8035 22.9416 44.1079 26.6278 44.053V44.6021C26.6278 44.8035 26.7912 44.9682 26.9909 44.9682C27.1907 44.9682 27.3541 44.8035 27.3541 44.6021V44.053C31.022 44.0896 33.1284 44.7852 33.2555 45.1513C33.1284 45.5539 30.8768 46.2678 26.9909 46.2678Z" fill="#3C2323"/>
<path d="M27.4449 22.9846C26.3191 22.9846 25.1933 22.8016 24.3036 22.4721C22.9962 21.9779 22.2154 21.2274 22.0338 20.2756C21.9975 20.0742 22.1246 19.8912 22.3243 19.8546C22.4696 19.818 25.7744 19.1773 29.515 21.8864C29.5694 21.923 29.6058 21.9596 29.6239 22.0145C30.3684 21.8315 31.0403 21.5386 31.5305 21.1176C31.694 20.9895 31.9119 21.0078 32.039 21.1725C32.1661 21.3372 32.1479 21.5569 31.9845 21.685C30.8768 22.5819 29.1336 22.9846 27.4449 22.9846ZM22.8691 20.5318C23.1233 21.0444 23.7043 21.4837 24.5396 21.7949C25.6654 22.2159 27.2089 22.3623 28.6434 22.1792C26.0831 20.4952 23.777 20.4586 22.8691 20.5318Z" fill="#3C2323"/>
<defs>
<linearGradient id="paint0_linear_693_40" x1="26.5" y1="35" x2="26.5" y2="59" gradientUnits="userSpaceOnUse">
<stop stop-color="#CDBB9C"/>
<stop offset="1" stop-color="#CDBB9C" stop-opacity="0"/>
</linearGradient>
</defs>
</svg>
