<svg width="7" height="17" viewBox="0 0 7 17" fill="none" xmlns="http://www.w3.org/2000/svg">
<path d="M3.48963 14.9239V10.4042C3.98112 10.3416 4.43575 10.0912 4.75522 9.69053C7.08982 6.74831 6.41401 1.10177 6.38944 0.863884C6.38944 0.863884 6.38944 0.863884 6.38944 0.851364C6.30343 0.0375602 3.75995 0 3.24388 0C2.72781 0 0.196621 0.0375602 0.110609 0.851364C0.110609 0.851364 0.110609 0.851364 0.110609 0.863884C0.0860348 1.10177 -0.589768 6.74831 1.73254 9.69053C2.05201 10.0912 2.50664 10.3416 2.99813 10.4042V14.9239C2.17488 14.9364 0.110609 15.0616 0.110609 15.8128C0.110609 16.6642 2.72781 16.7143 3.24388 16.7143C3.75995 16.7143 6.37715 16.6767 6.37715 15.8128C6.38944 15.0616 4.32516 14.9364 3.48963 14.9239ZM0.552953 1.41477C1.32706 1.77785 2.86297 1.80289 3.24388 1.80289C3.62479 1.80289 5.17299 1.77785 5.93481 1.41477C5.99624 2.16597 6.05768 3.69342 5.84879 5.30851C4.5832 6.46035 1.7694 6.37271 0.638965 5.29599C0.43008 3.6809 0.503804 2.15345 0.552953 1.41477ZM3.24388 0.500803C4.73065 0.500803 5.62762 0.738684 5.84879 0.901445C5.61533 1.05169 4.73065 1.30209 3.24388 1.30209C1.75711 1.30209 0.860137 1.06421 0.638965 0.901445C0.872424 0.738684 1.75711 0.500803 3.24388 0.500803ZM3.24388 16.2135C1.75711 16.2135 0.860137 15.9756 0.638965 15.8128C0.860137 15.6626 1.65881 15.4372 2.99813 15.4247V15.4372C2.99813 15.575 3.10872 15.6876 3.24388 15.6876C3.37904 15.6876 3.48963 15.575 3.48963 15.4372V15.4247C4.82895 15.4498 5.63991 15.6751 5.84879 15.8128C5.62762 15.9756 4.74293 16.2135 3.24388 16.2135Z" fill="#3C2323"/>
</svg>
