<svg width="53" height="53" viewBox="0 0 53 53" fill="none" xmlns="http://www.w3.org/2000/svg">
<rect width="53" height="53" rx="13" fill="#FCF8F1"/>
<mask id="mask0_930_51" style="mask-type:alpha" maskUnits="userSpaceOnUse" x="0" y="0" width="53" height="53">
<path d="M0 13C0 5.8203 5.8203 0 13 0H40C47.1797 0 53 5.8203 53 13V40C53 47.1797 47.1797 53 40 53H13C5.8203 53 0 47.1797 0 40V13Z" fill="#FCF8F1"/>
</mask>
<g mask="url(#mask0_930_51)">
<ellipse cx="26.5" cy="47" rx="31.5" ry="12" fill="url(#paint0_linear_930_51)" fill-opacity="0.09"/>
</g>
<path d="M43.7829 21.8129C43.5213 21.3769 42.7364 21.0281 41.69 20.5485C41.472 20.4613 41.2104 20.3305 40.9488 20.1997C40.7308 19.5021 39.8588 17.2785 37.766 15.1421C35.0627 12.3952 31.3567 11 26.7786 11C20.6746 11 15.0937 14.6188 12.6085 20.1997C12.3905 20.2869 12.1725 20.4177 11.9545 20.5049H11.9109C10.908 20.9409 10.1232 21.3333 9.86163 21.7693C8.55361 23.9058 8.85881 31.4051 9.94883 32.2335C10.5156 32.6695 11.3876 33.0619 12.3033 33.4979L12.3469 33.5415C12.6085 33.6723 12.8701 33.8031 13.1753 33.9339C15.8785 38.9044 21.1106 42 26.7786 42C36.1092 42 39.7716 35.3291 40.4256 33.9339C40.7308 33.8031 40.9924 33.6723 41.2976 33.5415H41.3412C42.2568 33.1055 43.1289 32.7131 43.6957 32.2771C44.7857 31.4487 45.0909 23.9058 43.7829 21.8129ZM26.7786 41.2152C21.3286 41.2152 16.3581 38.2504 13.7857 33.4107L13.7421 33.2799L13.6113 33.2363C13.2625 33.0619 12.9573 32.9311 12.6085 32.7567C11.7364 32.3643 10.908 31.9719 10.3848 31.5795C9.77442 31.0999 9.25122 24.211 10.472 22.1617C10.6028 21.9437 11.4748 21.5077 12.1725 21.2025C12.4341 21.0717 12.7393 20.9409 13.0445 20.8101L13.1753 20.7665L13.2189 20.6357C15.5733 15.2293 20.849 11.7848 26.735 11.7848C37.5916 11.7848 40.1204 20.1997 40.2076 20.5921L40.2512 20.7665L40.4256 20.8537C40.7308 20.9845 41.036 21.1153 41.2976 21.2461H41.3412C42.0388 21.5513 42.9109 21.9437 43.0417 22.2053C44.3061 24.2546 43.7829 31.1435 43.1289 31.6231C42.6056 32.0155 41.7772 32.4079 40.9052 32.8003C40.5564 32.9747 40.2512 33.1055 39.9024 33.2799L39.7716 33.3235L39.6844 33.4979C39.4228 34.2827 36.0656 41.2152 26.7786 41.2152Z" fill="#3C2323"/>
<path d="M28.6535 25.0394C28.6535 23.8186 27.6507 22.7722 26.3862 22.7722C25.1654 22.7722 24.119 23.775 24.119 25.0394C24.119 26.2603 25.1218 27.3067 26.3862 27.3067C27.6507 27.3067 28.6535 26.3039 28.6535 25.0394Z" fill="#3C2323"/>
<path d="M39.6844 26.8706C39.8589 26.3037 39.8153 26.1293 39.728 25.8241C39.6844 25.7369 39.6409 25.6497 39.6409 25.4317C39.5972 25.0829 39.4228 24.9085 39.2484 24.7777C39.1612 24.6905 39.074 24.6033 38.9432 24.4725C39.074 24.3417 39.1612 24.2981 39.292 24.2109C39.5536 24.0801 39.8152 23.9057 39.9897 23.3389C40.2513 22.5105 40.3385 22.1617 39.9461 21.8129C39.8589 21.7257 39.7717 21.6821 39.6844 21.3769C39.4664 20.6793 39.3356 20.5049 39.1176 20.3305C39.0304 20.2433 38.8996 20.1561 38.7252 19.8945C38.5072 19.5457 37.8968 19.3277 37.4172 19.1533C37.2864 19.1097 37.1556 19.0661 37.0684 19.0225C37.0684 18.3248 36.9812 17.976 36.5016 17.8016C36.3708 17.758 36.2836 17.7144 36.1092 17.4964C35.6732 16.9296 35.4988 16.8424 35.1936 16.7116C35.0628 16.668 34.932 16.6244 34.6704 16.45C34.3216 16.1884 33.624 16.4064 33.2316 16.5372C33.1444 16.45 33.0572 16.4064 32.97 16.3628C32.9264 16.3628 32.9264 16.3192 32.8828 16.3192C32.9264 16.1012 32.97 15.8832 32.97 15.7088C33.0136 15.36 32.752 14.9676 32.2724 14.6624C31.7927 14.4008 31.3131 14.3572 31.0079 14.5752C30.9643 14.706 30.8771 14.7932 30.7899 14.924C30.6591 14.7932 30.4411 14.6624 30.1795 14.5752C29.7871 14.4444 29.3947 14.4444 29.1331 14.5752C29.1331 14.4444 29.0895 14.27 29.0895 14.1392C29.0023 13.7904 28.6535 13.4852 28.0867 13.398C27.5199 13.3108 27.0839 13.4416 26.8659 13.7468C26.8223 13.834 26.7787 13.9212 26.7351 14.052C26.5607 13.7904 26.1683 13.6596 25.7323 13.6596C25.1655 13.6596 24.7295 13.834 24.5987 14.1828L24.5551 14.3136C24.5115 14.4444 24.4243 14.6188 24.3807 14.7496C24.1626 14.5752 23.7702 14.5316 23.3342 14.5752C22.7674 14.6624 22.4186 14.924 22.3314 15.2728C22.0698 15.0984 21.721 15.0984 21.285 15.2292C20.7618 15.4036 20.413 15.7088 20.3694 16.0576C20.3694 16.1448 20.3694 16.2756 20.413 16.4064C20.195 16.4064 19.977 16.4936 19.7154 16.5808C19.323 16.7552 19.0614 17.0168 18.9742 17.322C18.8434 17.2348 18.7562 17.1476 18.6254 17.0604C18.3202 16.8424 17.8406 16.9296 17.4046 17.2784C16.925 17.6272 16.707 18.0196 16.7942 18.3684C16.8378 18.4556 16.8378 18.5428 16.925 18.6736C16.6198 18.63 16.2709 18.8044 15.9221 19.1097C15.5297 19.5021 15.3553 19.9381 15.4861 20.2869C15.5297 20.3741 15.6169 20.5485 15.8785 20.8537C15.5733 20.8537 15.2245 21.0717 14.9193 21.4641C14.6141 21.9437 14.5269 22.3797 14.7449 22.6849C14.9193 22.9465 15.3989 23.2953 16.1837 23.7313C15.2245 23.8185 14.6141 24.3417 14.2653 25.3009C14.1781 25.4317 14.0909 25.5625 14.0037 25.6933C13.6985 26.0857 13.3933 26.5217 13.3933 27.0886C13.3933 27.6554 13.7421 28.0914 14.0037 28.4838C14.0909 28.6146 14.2217 28.7454 14.2653 28.8762C14.6141 29.8354 15.2245 30.2714 16.1401 30.2714C16.2273 30.2714 16.3145 30.2714 16.3581 30.2714C16.0093 30.5766 15.7913 30.8818 15.7041 31.1434C15.4425 31.7538 15.2245 32.277 15.7477 32.5822C15.8349 32.6258 15.8785 32.6694 15.9221 32.8002C16.0965 33.367 16.2273 33.4978 16.489 33.6722C16.5762 33.7158 16.6634 33.803 16.7942 33.9338C17.0122 34.1954 17.2738 34.239 17.4918 34.239C17.6226 34.239 17.7534 34.2826 17.9278 34.3262C17.8842 34.5007 17.8406 34.5879 17.797 34.7187C17.6662 34.9803 17.5354 35.2855 17.7098 35.8523C17.9278 36.6807 18.1022 36.9859 18.5818 37.0731C18.7126 37.0731 18.7998 37.1167 19.0178 37.2911C19.5846 37.7707 19.759 37.8143 20.1078 37.8579C20.2386 37.8579 20.3694 37.9015 20.6746 37.9887C21.0234 38.1195 21.5466 38.0323 22.157 37.8579C22.2442 37.8143 22.4186 37.8143 22.5058 37.7707C22.8982 38.3375 23.1598 38.5991 23.683 38.4683C23.8138 38.4247 23.901 38.4247 24.1626 38.5119C24.5551 38.6427 24.8167 38.6863 24.9911 38.6863C25.1219 38.6863 25.2527 38.6427 25.3399 38.6427C25.4707 38.5991 25.6015 38.5991 25.9067 38.5991C26.2555 38.5991 26.5607 38.4683 26.7787 38.2067C26.9095 38.0759 26.9967 37.9451 27.0839 37.7707C27.1711 38.3811 27.3019 38.9043 27.3891 39.2531C27.4763 39.6019 27.8687 39.8635 28.4355 39.9071C28.5227 39.9071 28.6099 39.9071 28.6535 39.9071C29.0895 39.9071 29.4383 39.7327 29.6127 39.4711C29.6563 39.3839 29.6999 39.2967 29.6999 39.1223C29.8743 39.2095 30.1359 39.2095 30.3975 39.2095C30.8335 39.1659 31.1823 39.0351 31.3567 38.8171C31.4439 38.9479 31.4875 39.0787 31.5747 39.1659C31.7927 39.4711 32.2288 39.6019 32.7956 39.4711C33.3624 39.3403 33.7112 39.0351 33.7548 38.6863C33.7548 38.5991 33.7548 38.4683 33.7548 38.3811C34.0164 38.5119 34.4088 38.5119 34.8448 38.3375C35.368 38.1195 35.6732 37.7707 35.6732 37.4219C35.6732 37.2911 35.6732 37.1167 35.5424 36.7679C35.8476 36.8987 36.24 36.8115 36.676 36.5499C37.1556 36.2447 37.4172 35.8523 37.33 35.4599C37.2428 35.0675 36.8504 34.4571 36.1092 33.585C37.4172 32.5386 37.548 31.4922 37.7224 30.2278C37.766 29.7482 37.8532 29.1814 38.0276 28.571C38.42 28.4838 38.7252 28.3966 38.9432 28.2222C39.51 28.0042 39.9461 27.699 39.6844 27.1322C39.6844 27.0886 39.6408 27.045 39.6844 26.8706ZM38.9432 27.3938C38.856 27.4374 38.7688 27.5682 38.5072 27.699C38.0276 28.0478 36.458 28.135 34.3652 27.9606C34.5396 27.699 34.7576 27.481 34.9756 27.263L35.0192 27.2194L35.0628 27.1322C35.1064 27.0014 35.15 26.9142 35.1936 26.7834C35.5424 26.827 36.0656 26.8706 36.5452 26.8706C37.0684 26.8706 37.4172 26.827 37.6352 26.6962C37.7224 26.6525 37.8096 26.5653 37.8532 26.4781C37.8968 26.3909 37.8968 26.2601 37.8532 26.1729C37.8096 26.0857 37.7224 25.9985 37.6352 25.9549C37.548 25.9113 37.4172 25.9113 37.33 25.9549C37.0684 26.0857 36.24 26.0421 35.4552 25.9549C35.6296 25.3009 35.7168 24.7341 35.6732 24.2545H35.7168C36.1092 24.2545 36.8068 24.1673 37.0248 23.5133C37.0684 23.2953 36.9812 23.0773 36.7632 23.0337C36.676 22.9901 36.5452 22.9901 36.458 23.0773C36.3708 23.1209 36.2836 23.2081 36.2836 23.2953C36.24 23.4697 35.7168 23.5133 35.368 23.4697C35.0192 22.9029 34.3652 22.5105 33.6676 22.1617C33.9728 21.5949 34.3652 20.8973 34.6704 20.6357C34.8448 20.5049 34.8884 20.2433 34.7576 20.0689C34.714 19.9817 34.5832 19.9381 34.496 19.9381C34.4088 19.9381 34.278 19.9381 34.1908 20.0253C33.7112 20.4177 33.2316 21.2461 32.97 21.8129C32.5776 21.5949 32.098 21.2897 31.6619 20.8973C31.6183 20.8973 31.6183 20.8537 31.5747 20.8101C31.8799 19.9817 32.1852 19.1097 32.4468 18.2376C32.5776 18.194 32.6648 18.0632 32.6648 17.8888C32.6648 17.8452 32.7084 17.758 32.97 17.5836C33.4932 17.2348 34.1472 17.104 34.278 17.104C34.5832 17.322 34.8012 17.3656 34.932 17.4528C35.1064 17.54 35.1936 17.54 35.4988 17.976C35.804 18.412 36.1092 18.4992 36.2836 18.5428C36.2836 18.5864 36.3272 18.7608 36.3272 19.1969C36.3272 19.5457 36.6324 19.6765 37.1992 19.8509C37.4608 19.9381 38.0276 20.1561 38.1584 20.2869C38.3764 20.5921 38.5508 20.7229 38.638 20.8537C38.7688 20.9845 38.856 21.0281 38.9868 21.5513C39.1176 22.0309 39.3356 22.2489 39.4664 22.3361C39.4664 22.3797 39.4228 22.5541 39.292 22.9901C39.2048 23.2517 39.1176 23.2953 38.9432 23.4261C38.7252 23.5569 38.4636 23.6877 38.202 24.1237L38.0712 24.3417L38.202 24.5597C38.4636 24.9521 38.6816 25.1701 38.8124 25.3009C38.9432 25.3881 38.9432 25.4317 38.9432 25.4317C38.9868 25.7369 39.0304 25.9113 39.074 26.0421C39.1176 26.1293 39.1176 26.1729 39.0304 26.5653C38.8124 27.0014 38.8996 27.2194 38.9432 27.3938ZM33.4932 34.6751C34.7576 36.7243 34.8884 37.3347 34.932 37.5091C34.8884 37.5527 34.8012 37.6399 34.5832 37.7271C34.3652 37.8143 34.1908 37.8143 34.1908 37.8143C33.842 37.4655 33.4496 36.8115 33.0136 35.8959L32.9264 35.8523L32.2288 36.1575L32.2724 36.2011C33.0136 37.9451 33.0136 38.5119 33.0136 38.6427C32.97 38.6863 32.8392 38.7735 32.6212 38.8171C32.4032 38.8607 32.2288 38.8607 32.2288 38.8171C32.0107 38.4683 31.7491 37.9015 31.4875 37.1167V37.0731L30.7463 37.2475V37.2911C30.8771 38.0323 30.8335 38.3375 30.7899 38.3811C30.7463 38.4247 30.6155 38.4683 30.3975 38.5119C30.3103 38.5119 30.1795 38.5119 30.0051 38.4683C30.0051 38.3375 29.9615 38.1195 29.7871 37.9887C29.6999 37.9015 29.5691 37.8579 29.4383 37.9015L29.2639 37.9451L29.0459 38.1195C28.9587 38.2939 28.9151 38.5555 28.9151 38.8171C28.9151 38.9043 28.8715 39.1223 28.8715 39.1659C28.8279 39.1659 28.6971 39.2095 28.4791 39.2095C28.2611 39.1659 28.1303 39.1223 28.0867 39.0787C27.7379 37.8143 27.3019 34.6315 27.4763 32.3642C27.8687 32.3642 28.2175 32.3642 28.4791 32.4078C28.6099 33.4106 28.7407 33.9774 28.9587 34.1954C29.0895 34.3262 29.3947 34.3699 29.5255 34.1954C29.6127 34.1082 29.6563 34.021 29.6563 33.9338C29.6563 33.8466 29.6127 33.7158 29.5691 33.6722C29.4819 33.585 29.3947 32.9746 29.3075 32.4078C29.9179 32.3642 30.4411 32.277 30.9207 32.1026C31.1823 32.5386 31.7055 33.5414 31.8799 34.0646C31.9671 34.2826 32.1852 34.3699 32.4032 34.2826C32.4904 34.239 32.5776 34.1954 32.6212 34.0646C32.6648 33.9774 32.6648 33.8466 32.6212 33.7594C32.4468 33.2362 31.9235 32.277 31.6183 31.7538C31.9235 31.5794 32.1852 31.3178 32.4468 31.0562C34.8448 33.367 36.458 35.1983 36.5888 35.7215C36.5888 35.7651 36.5016 35.8959 36.2836 36.0267C36.0656 36.1575 35.9348 36.2011 35.8912 36.2011C35.4552 35.8959 34.8884 35.2419 34.1472 34.2826L34.1036 34.239L33.4496 34.6751H33.4932ZM25.8195 37.9015C25.4271 37.9015 25.2527 37.9451 25.0783 37.9887C24.9039 38.0323 24.8167 38.0323 24.2934 37.8579C24.0754 37.7707 23.8574 37.7707 23.7266 37.7707C23.5522 37.7707 23.4214 37.8143 23.3342 37.8143C23.2906 37.7707 23.1598 37.6399 22.9418 37.2911C22.7238 36.9859 22.4186 37.0731 21.8518 37.2039C21.5902 37.2475 20.9798 37.4219 20.8054 37.3347C20.4566 37.2039 20.2386 37.1603 20.1078 37.1603C19.9334 37.1167 19.8462 37.1167 19.4102 36.7679C19.0178 36.4191 18.7562 36.4191 18.5818 36.3755C18.5382 36.3319 18.4946 36.1575 18.3638 35.7215C18.2766 35.4599 18.3202 35.3727 18.4074 35.1547C18.4946 34.9367 18.6254 34.6751 18.669 34.1518V33.8902L18.451 33.803C18.015 33.6286 17.7534 33.585 17.5354 33.5414C17.361 33.4978 17.361 33.4978 17.361 33.4978C17.143 33.2362 17.0122 33.149 16.8814 33.0618C16.7942 33.0182 16.7506 32.9746 16.6198 32.5822C16.5326 32.2334 16.3145 32.059 16.1837 31.9282C16.2273 31.841 16.2709 31.7102 16.3581 31.405C16.5762 30.8818 17.7534 29.9662 19.541 28.9198C19.6282 29.0942 19.7154 29.225 19.8026 29.3558C19.9334 30.533 20.3258 31.3614 20.9798 31.8846C21.067 31.9282 21.1106 31.9718 21.1978 32.059L20.631 32.7566C20.5002 32.931 20.5002 33.149 20.6746 33.3234C20.849 33.4542 21.1106 33.4542 21.2414 33.2798L21.9826 32.4078C22.3314 32.495 22.7238 32.5822 23.1598 32.5822C23.0726 33.0618 22.8546 34.1518 22.8982 34.6751C22.8982 34.8931 23.1162 35.0675 23.3342 35.0239C23.5522 35.0239 23.7266 34.8059 23.683 34.5879C23.6394 34.1518 23.8574 33.0182 23.9446 32.5822C24.5115 32.5386 25.0783 32.495 25.6015 32.4078C25.9503 32.3642 26.2555 32.3206 26.5607 32.3206C26.6043 32.5822 26.6043 32.9746 26.6043 33.367C26.6043 33.7594 26.6043 34.1954 26.6479 34.6751C26.7351 36.0703 26.5607 37.2039 26.1247 37.6399C26.0375 37.8579 25.9503 37.9015 25.8195 37.9015ZM18.669 22.1181L18.6254 22.0745C16.6634 20.6793 16.3145 20.1561 16.2273 20.0253C16.2273 19.9817 16.3145 19.8509 16.4453 19.6765C16.6198 19.5021 16.7506 19.4585 16.7942 19.4585C17.2302 19.6765 17.8406 20.1125 18.6254 20.7665L18.669 20.8101L19.1922 20.2433L19.1486 20.1997C17.797 18.8481 17.579 18.3684 17.5354 18.2376C17.5354 18.194 17.6226 18.0632 17.8406 17.9324C18.015 17.8016 18.1894 17.758 18.233 17.758C18.5818 17.976 19.0178 18.412 19.5846 19.0225L19.6282 19.0661L20.2386 18.63L20.195 18.5864C19.8026 17.9324 19.7154 17.6708 19.7154 17.5836C19.7154 17.54 19.8462 17.4092 20.0642 17.322C20.1514 17.2784 20.2822 17.2348 20.4566 17.1912C20.5002 17.322 20.631 17.4964 20.849 17.54C20.9798 17.5836 21.1106 17.54 21.1978 17.4964L21.3722 17.4092L21.4158 17.2348C21.4594 17.0168 21.3722 16.7988 21.285 16.5372C21.2414 16.45 21.1978 16.2756 21.1978 16.1884C21.2414 16.1448 21.3286 16.0576 21.5466 16.014C21.7646 15.9704 21.8954 15.9704 21.939 15.9704C21.9826 16.014 22.0262 16.1448 22.0262 16.232C22.1134 16.5372 22.2442 16.886 22.5494 17.0604C22.6802 17.104 22.8546 17.1476 23.0726 17.0604C23.2906 16.9732 23.4214 16.7988 23.465 16.668C23.5958 16.3192 23.4214 15.9704 23.247 15.6652C23.2034 15.6216 23.2034 15.578 23.1598 15.5344C23.2034 15.4908 23.3342 15.4472 23.5086 15.4036C23.7266 15.36 23.901 15.4036 23.9446 15.4036C24.0318 15.5344 24.0754 15.6216 24.119 15.7088C24.2499 15.8832 24.2498 15.9268 24.4679 16.668V16.7116L25.2527 16.5372V16.4936C25.0783 15.2728 25.1655 15.0112 25.3399 14.6624L25.2963 14.488C25.3399 14.4444 25.4707 14.4008 25.6887 14.4008C25.9067 14.4008 26.0811 14.488 26.0811 14.488C26.2555 14.924 26.3427 15.7088 26.4299 16.7116V16.7552H27.2147V16.7116C27.2583 14.7932 27.4327 14.3136 27.4763 14.1828C27.5199 14.1828 27.6507 14.1392 27.9123 14.1828C28.1303 14.2264 28.2611 14.3136 28.3047 14.3136C28.3919 14.706 28.3919 15.36 28.3483 16.1448V16.1884L29.0895 16.3192V16.2756C29.2639 15.5344 29.4383 15.3164 29.4819 15.2292C29.5255 15.2292 29.6999 15.2292 29.9179 15.2728C30.0051 15.3164 30.1359 15.36 30.2667 15.4472C30.2231 15.578 30.1795 15.7524 30.2667 15.9704C30.3103 16.1012 30.4411 16.1448 30.5719 16.1884L30.7463 16.232L30.9207 16.1012C31.0951 15.9704 31.1823 15.7524 31.3131 15.4908C31.3567 15.4036 31.4439 15.2292 31.4875 15.1856C31.5311 15.1856 31.7055 15.2292 31.8799 15.3164C32.098 15.4472 32.1852 15.5344 32.1852 15.578C32.0543 16.4936 31.5747 18.412 30.8771 20.1997C30.3975 19.8509 29.5691 19.2405 28.7843 18.8917C29.0023 17.9324 28.7407 16.8424 28.7407 16.7988C28.6971 16.7116 28.6535 16.6244 28.5663 16.5372C28.4791 16.4936 28.3919 16.45 28.2611 16.4936C28.0431 16.5372 27.9123 16.7552 27.9559 16.9732C27.9559 16.9732 28.1739 17.8888 28.0431 18.63C27.2147 18.3684 26.2555 18.4556 25.0783 18.8044C24.9475 18.5864 24.8603 18.3248 24.8167 18.194C24.8167 17.976 24.5987 17.8016 24.3807 17.8452C24.1626 17.8452 23.9882 18.0632 24.0318 18.2812C24.0754 18.5428 24.2062 18.8917 24.2934 19.1097L24.2498 19.1533C22.6366 19.7637 21.5466 20.5485 21.0234 21.5077C20.7182 21.2897 20.4566 20.9845 20.413 20.9409C20.413 20.7229 20.2822 20.5485 20.0642 20.5485C19.977 20.5485 19.8462 20.5921 19.759 20.6357C19.6718 20.7229 19.6282 20.8101 19.6282 20.8973C19.5846 21.4205 20.2822 21.9437 20.6746 22.2489C20.6746 22.2489 20.7182 22.2489 20.7182 22.2925C20.5874 22.7721 20.5874 23.2953 20.7182 23.8185C20.631 23.9493 20.5438 24.1237 20.4566 24.2545C20.3694 24.4289 20.2386 24.5597 20.1514 24.7341C16.1401 23.1209 15.4425 22.4233 15.3553 22.2925C15.3553 22.2489 15.3989 22.1181 15.5297 21.9001C15.6605 21.7257 15.7913 21.6385 15.8349 21.5949C16.3581 21.7257 17.143 22.0745 18.1894 22.6849L18.233 22.7285L18.669 22.1181ZM19.323 26.5217C19.1922 26.4781 18.669 26.3473 18.2766 26.5653C18.1022 26.6526 18.015 26.9142 18.1022 27.0886C18.1458 27.1758 18.233 27.263 18.3202 27.263C18.4074 27.3066 18.5382 27.3066 18.6254 27.2194C18.7126 27.1758 18.9742 27.1758 19.105 27.263H19.1486C19.105 27.6118 19.1486 27.9606 19.2358 28.3094C19.1486 28.353 19.0178 28.4402 18.9306 28.4838L18.669 28.5274C17.7534 28.7018 17.4482 28.7018 17.2302 28.135L17.1866 28.0914C17.143 28.0042 17.0558 27.8734 16.9686 27.7862C16.8378 27.6118 16.707 27.4374 16.707 27.263C16.707 27.0886 16.8378 26.9142 16.9686 26.7398C17.0558 26.6089 17.143 26.5217 17.1866 26.3909L17.2302 26.3473C17.4918 25.6061 18.1022 25.1701 18.7998 25.1701C18.887 25.1701 18.9742 25.1701 19.0614 25.1701C19.2794 25.2573 19.4974 25.3445 19.7154 25.4317C19.5846 25.8241 19.4102 26.1729 19.323 26.5217ZM16.5326 25.9985C16.4889 26.0857 16.4453 26.1293 16.4017 26.2165C16.2273 26.4781 15.9657 26.7834 15.9657 27.2194C15.9657 27.6554 16.1837 27.9606 16.4017 28.2222C16.4453 28.3094 16.4889 28.353 16.5326 28.4402C16.707 28.8762 16.9686 29.1814 17.3174 29.3122C15.8785 29.7482 15.3117 29.7046 14.9193 28.6146L14.8757 28.571C14.7885 28.3966 14.6577 28.2222 14.5269 28.0914C14.2653 27.7862 14.0473 27.4374 14.0473 27.1322C14.0473 26.827 14.2653 26.5217 14.5269 26.1729C14.6577 25.9985 14.7449 25.8677 14.8757 25.6933L14.9193 25.6497C15.2245 24.8213 15.6605 24.5161 16.4453 24.5161C16.7942 24.5161 17.1866 24.5597 17.7098 24.6469C17.1866 24.9521 16.7942 25.4317 16.5326 25.9985ZM21.503 31.405C20.9798 31.0126 20.7182 30.315 20.631 29.3122V29.225L20.5874 29.1378C19.4102 27.481 20.195 26.2601 21.1978 24.6905C21.3286 24.5161 21.4594 24.2981 21.5902 24.1237L21.6774 23.9929L21.6338 23.8185C21.0234 21.5949 23.0726 20.5485 24.6423 19.9381C25.0783 19.7637 26.0375 19.4149 27.0403 19.4149C27.4763 19.4149 27.8251 19.5021 28.1739 19.6329H28.2175C29.2203 19.8945 30.7027 21.0717 31.1823 21.5077C31.8799 22.1617 32.6212 22.5541 33.2752 22.8593C34.7576 23.6441 35.5424 24.0365 34.4088 26.7834C33.6676 27.5682 33.188 28.3966 32.7956 29.0942C32.2724 30.0534 31.8363 30.7946 30.9643 31.2306H30.9207C30.3539 31.4922 29.5691 31.623 28.6099 31.5794C28.1739 31.5358 27.6071 31.4922 26.9531 31.5794C26.4735 31.623 25.9939 31.6666 25.6015 31.7102C23.9882 31.9282 22.375 32.1462 21.503 31.405ZM35.586 33.149C34.8884 32.3642 33.9728 31.4486 32.8828 30.4022C33.0572 30.1406 33.2316 29.8354 33.406 29.5302C33.5368 29.2686 33.7112 29.007 33.8856 28.7454C33.9292 28.7454 33.9728 28.789 34.0164 28.789C34.8448 28.8762 35.586 28.9198 36.24 28.9198C36.5888 28.9198 36.894 28.9198 37.1992 28.8762C37.0684 29.3994 37.0248 29.879 36.9376 30.3586C36.8068 31.4922 36.676 32.277 35.586 33.149Z" fill="#3C2323"/>
<path d="M35.2807 29.0941C35.0627 29.1813 34.9755 29.3993 35.0627 29.5738C35.0627 29.6174 35.1499 29.9226 34.7575 30.2714C34.6703 30.3586 34.6267 30.4458 34.6267 30.533C34.6267 30.6202 34.6703 30.751 34.7139 30.7946C34.8011 30.8818 34.8883 30.9254 35.0191 30.9254C35.1063 30.9254 35.1935 30.8818 35.2807 30.8382C36.0655 30.097 35.8039 29.3121 35.7603 29.2685C35.6731 29.0941 35.4551 29.0069 35.2807 29.0941Z" fill="#3C2323"/>
<defs>
<linearGradient id="paint0_linear_930_51" x1="26.5" y1="35" x2="26.5" y2="59" gradientUnits="userSpaceOnUse">
<stop stop-color="#CDBB9C"/>
<stop offset="1" stop-color="#CDBB9C" stop-opacity="0"/>
</linearGradient>
</defs>
</svg>
