<svg width="53" height="53" viewBox="0 0 53 53" fill="none" xmlns="http://www.w3.org/2000/svg">
<rect width="53" height="53" rx="13" fill="#FCF8F1"/>
<mask id="mask0_693_41" style="mask-type:alpha" maskUnits="userSpaceOnUse" x="0" y="0" width="53" height="53">
<path d="M0 13C0 5.8203 5.8203 0 13 0H40C47.1797 0 53 5.8203 53 13V40C53 47.1797 47.1797 53 40 53H13C5.8203 53 0 47.1797 0 40V13Z" fill="#FCF8F1"/>
</mask>
<g mask="url(#mask0_693_41)">
<ellipse cx="26.5" cy="47" rx="31.5" ry="12" fill="url(#paint0_linear_693_41)" fill-opacity="0.09"/>
</g>
<path d="M27 11.8186V28.525C27 28.525 18.8677 27.6538 18.4764 21.5213C17.949 13.4072 20.2968 10.7083 20.2968 10.7083C20.2968 10.7083 23.3762 12.2115 27 11.8186Z" fill="white"/>
<path d="M34.4178 19.3689C34.4348 23.3832 32.8015 27.2437 27 27.295C22.0321 27.2437 19.9395 24.3739 19.5142 21.0429C19.5142 21.0429 21.9641 22.512 25.6729 21.7945C29.3818 21.0771 29.8582 18.7368 34.4178 19.3689Z" fill="#E4B8A7"/>
<path d="M27.3402 41.849V29.0716C30.6067 28.9691 33.0056 27.7904 34.4517 25.5697C37.1909 21.3675 35.7958 14.2101 34.1965 10.3837C34.1455 10.042 33.7882 9.64912 31.8997 9.34164C30.5897 9.11958 28.8544 9 26.9999 9C25.1455 9 23.4101 9.11958 22.1001 9.34164C20.2287 9.64912 19.8544 10.042 19.8204 10.4007C18.2041 14.2271 16.826 21.3846 19.5481 25.5868C20.9943 27.8075 23.3761 28.9861 26.6597 29.0886V41.8661C23.7504 41.9003 18.7996 42.3615 18.7996 43.9331C18.7996 45.5729 24.1587 46 26.9999 46C29.8411 46 35.2003 45.5729 35.2003 43.9331C35.2003 42.3444 30.2495 41.8832 27.3402 41.849ZM26.9999 9.68329C30.5727 9.68329 32.9716 10.1274 33.465 10.4691C32.9886 10.8107 30.5897 11.2548 26.9999 11.2548C23.4101 11.2548 21.0283 10.8107 20.5349 10.4691C21.0283 10.1274 23.4272 9.68329 26.9999 9.68329ZM20.1266 25.211C17.6427 21.3846 18.7996 14.8763 20.2627 11.1011C20.5859 11.289 21.1644 11.4598 22.1001 11.6136C23.4101 11.8356 25.1455 11.9552 26.9999 11.9552C28.8544 11.9552 30.5897 11.8356 31.8997 11.6136C32.8355 11.4598 33.3969 11.289 33.7372 11.1011C35.2173 14.8763 36.3742 21.4017 33.8733 25.211C32.5122 27.295 30.1984 28.3883 26.9999 28.4224C23.8015 28.3883 21.4877 27.295 20.1266 25.211ZM26.9999 45.3167C22.1342 45.3167 19.4801 44.3943 19.4801 43.9331C19.4801 43.4718 22.0151 42.5836 26.6597 42.5494V43.0789C26.6597 43.2668 26.8128 43.4206 26.9999 43.4206C27.1871 43.4206 27.3402 43.2668 27.3402 43.0789V42.5494C31.9848 42.5836 34.5198 43.4718 34.5198 43.9331C34.5198 44.3943 31.8657 45.3167 26.9999 45.3167Z" fill="#3C2323"/>
<path d="M28.8204 20.4621C28.8204 20.4621 21.828 17.7631 19.5142 21.06C19.5142 21.06 23.2571 23.4857 28.8204 20.4621Z" fill="#D37E72"/>
<path d="M23.8356 22.3583C21.3857 22.3583 19.6163 21.1967 19.4972 21.1284C19.4121 21.06 19.3611 20.9575 19.3441 20.8551C19.3271 20.7526 19.3781 20.6501 19.4632 20.5817C21.4707 18.9418 24.4651 18.8052 28.3611 20.1718C30.0794 19.2835 32.5293 18.2415 34.3668 19.1127C34.5369 19.1981 34.6049 19.4031 34.5369 19.5739C34.4518 19.7447 34.2477 19.813 34.0775 19.7447C32.2061 18.8735 29.2288 20.4792 27.7997 21.265C27.6636 21.3334 27.5274 21.4188 27.4254 21.47C26.1664 22.1191 24.9244 22.3583 23.8356 22.3583ZM20.3138 20.7867C21.3687 21.3163 24.1418 22.4095 27.1191 20.838C27.2382 20.7867 27.3573 20.7184 27.4934 20.633C27.5104 20.6159 27.5274 20.6159 27.5445 20.5988C24.448 19.6251 22.0152 19.6764 20.3138 20.7867Z" fill="#3C2323"/>
<defs>
<linearGradient id="paint0_linear_693_41" x1="26.5" y1="35" x2="26.5" y2="59" gradientUnits="userSpaceOnUse">
<stop stop-color="#CDBB9C"/>
<stop offset="1" stop-color="#CDBB9C" stop-opacity="0"/>
</linearGradient>
</defs>
</svg>
