<svg width="53" height="53" viewBox="0 0 53 53" fill="none" xmlns="http://www.w3.org/2000/svg">
<rect width="53" height="53" rx="13" fill="#FCF8F1"/>
<mask id="mask0_930_50" style="mask-type:alpha" maskUnits="userSpaceOnUse" x="0" y="0" width="53" height="53">
<path d="M0 13C0 5.8203 5.8203 0 13 0H40C47.1797 0 53 5.8203 53 13V40C53 47.1797 47.1797 53 40 53H13C5.8203 53 0 47.1797 0 40V13Z" fill="#FCF8F1"/>
</mask>
<g mask="url(#mask0_930_50)">
<ellipse cx="26.5" cy="47" rx="31.5" ry="12" fill="url(#paint0_linear_930_50)" fill-opacity="0.09"/>
</g>
<path d="M18.4788 42.0044C19.7554 41.9431 20.7669 40.9374 20.8347 39.6618V38.6745L21.0197 38.7113C21.6796 38.84 22.3272 38.9443 22.944 39.0179L23.055 39.0301L23.0796 39.1405C23.203 39.7047 23.536 40.1892 24.0294 40.502C24.5166 40.8147 25.1025 40.919 25.67 40.8024C26.4594 40.6369 27.0885 40.0543 27.3043 39.2816L27.3351 39.1773L27.4462 39.1712C31.788 38.9259 36.0189 37.5522 39.6823 35.1973C40.003 34.9888 40.1017 34.5718 39.9166 34.2406L36.1669 27.8076C35.9633 27.4703 35.5193 27.3538 35.1739 27.55C34.9334 27.7033 34.6559 27.7831 34.3783 27.7831H34.3722C33.9589 27.7647 33.5766 27.593 33.299 27.2863C33.0215 26.9858 32.8796 26.5933 32.8981 26.1825C32.9166 25.6673 33.2127 25.1829 33.6567 24.9314C33.8233 24.8394 33.9466 24.6861 34.0021 24.5022C34.0576 24.3182 34.0329 24.1281 33.9404 23.9625C33.9343 23.9564 33.9343 23.9502 33.9343 23.9502L33.9219 23.9318L26.6197 11.3478C26.5211 11.1823 26.3607 11.0719 26.1695 11.0228C25.9783 10.9738 25.781 11.0044 25.6144 11.1087C25.5096 11.17 25.4294 11.2497 25.3677 11.354L20.5633 19.6452C20.366 19.9825 20.4708 20.4117 20.8039 20.608L20.8224 20.6203L20.8285 20.6264C21.8338 21.209 22.1792 22.5029 21.5995 23.5087C21.2233 24.1526 20.5263 24.5573 19.7739 24.5696C19.447 24.6064 19.1757 24.4838 18.9043 24.3672C18.6391 24.2507 18.4048 24.1465 18.1519 24.2078C17.973 24.2569 17.8127 24.3795 17.714 24.5451L14.7537 29.6412L12.0955 34.2406C11.9043 34.5657 12.0092 34.9827 12.3299 35.1973C13.4092 35.8964 14.5748 36.5281 15.7898 37.0616L15.8823 37.1045V39.6679C15.9501 41.0171 17.1158 42.0658 18.4788 42.0044ZM18.6391 25.8023L18.7563 25.8329C19.0832 25.9249 19.4162 25.974 19.7431 25.974C21.2911 25.974 22.7219 24.9621 23.166 23.4167C23.536 22.1473 23.1722 20.792 22.2162 19.8782L22.1299 19.7924L25.9968 13.114L32.3492 24.0545L32.2691 24.1403C31.1219 25.3116 31.1404 27.1882 32.3184 28.335C33.0708 29.0648 34.1255 29.3469 35.1369 29.0893L35.2479 29.0586L35.6365 29.7332L35.507 29.8129C32.6329 31.53 29.3457 32.4377 25.9968 32.4377C22.6479 32.4377 19.3545 31.53 16.4867 29.8129L16.3572 29.7332L18.6391 25.8023ZM13.7977 34.4369L13.6682 34.3571L15.6479 30.9842L15.7836 31.064C22.0929 34.8294 29.9316 34.8294 36.2347 31.064L36.3704 30.9842L38.3255 34.3571L38.1959 34.4369C34.699 36.5219 30.6902 37.6687 26.5951 37.7668C26.3792 37.7791 26.2065 37.8588 26.0832 37.9999C25.929 38.1839 25.8611 38.466 25.892 38.7726V38.791V38.8094C25.855 39.2019 25.4911 39.4962 25.0902 39.4533C24.7448 39.4165 24.4796 39.1467 24.4426 38.8094V38.791V38.3862C24.4426 38.0183 24.1528 37.7116 23.7889 37.681C22.6171 37.5706 21.4391 37.3744 20.2735 37.0923C20.0885 37.0432 19.8973 37.0739 19.7307 37.172C19.5642 37.2701 19.4532 37.4296 19.4039 37.6135C19.3915 37.6626 19.3854 37.7178 19.3854 37.7791V39.6557C19.3854 40.2321 18.9166 40.6982 18.3369 40.6982C17.7572 40.6982 17.2885 40.2321 17.2885 39.6557V36.6139C17.2885 36.3257 17.1158 36.0681 16.8444 35.9577C15.7713 35.5162 14.7475 35.0072 13.7977 34.4369Z" fill="#3C2323"/>
<path d="M26.9343 23.3063C27.6497 23.3063 28.2295 22.7298 28.2295 22.0184C28.2295 21.307 27.6497 20.7306 26.9343 20.7306C26.2189 20.7306 25.6392 21.307 25.6392 22.0184C25.6453 22.7359 26.2189 23.3063 26.9343 23.3063Z" fill="#3C2323"/>
<path d="M23.8567 29.9663C24.5721 29.9663 25.1518 29.3898 25.1518 28.6785C25.1518 27.9671 24.5721 27.3906 23.8567 27.3906C23.1413 27.3906 22.5615 27.9671 22.5615 28.6785C22.5615 29.3898 23.1413 29.9663 23.8567 29.9663Z" fill="#3C2323"/>
<path d="M28.8154 28.6784C29.4136 28.6784 29.8947 28.2 29.8947 27.6052C29.8947 27.0103 29.4136 26.532 28.8154 26.532C28.2171 26.532 27.7361 27.0103 27.7361 27.6052C27.7361 28.2 28.2171 28.6784 28.8154 28.6784Z" fill="#3C2323"/>
<defs>
<linearGradient id="paint0_linear_930_50" x1="26.5" y1="35" x2="26.5" y2="59" gradientUnits="userSpaceOnUse">
<stop stop-color="#CDBB9C"/>
<stop offset="1" stop-color="#CDBB9C" stop-opacity="0"/>
</linearGradient>
</defs>
</svg>
