<svg width="53" height="53" viewBox="0 0 53 53" fill="none" xmlns="http://www.w3.org/2000/svg">
<rect width="53" height="53" rx="13" fill="#FCF8F1"/>
<mask id="mask0_930_68" style="mask-type:alpha" maskUnits="userSpaceOnUse" x="0" y="0" width="53" height="53">
<path d="M0 13C0 5.8203 5.8203 0 13 0H40C47.1797 0 53 5.8203 53 13V40C53 47.1797 47.1797 53 40 53H13C5.8203 53 0 47.1797 0 40V13Z" fill="#FCF8F1"/>
</mask>
<g mask="url(#mask0_930_68)">
<ellipse cx="26.5" cy="47" rx="31.5" ry="12" fill="url(#paint0_linear_930_68)" fill-opacity="0.09"/>
</g>
<path d="M16.3561 29.5701C17.9374 30.3926 19.7249 30.8038 21.5124 30.8038C22.5436 30.8723 23.5061 30.6667 24.3999 30.1184C25.0874 29.5701 25.2249 28.405 25.2249 27.5826C25.2936 26.8972 25.0874 26.1433 24.9499 25.6636C24.9499 25.5951 24.9499 25.5951 24.9499 25.5265V25.458C24.7436 24.6356 24.3999 23.8131 23.9186 23.0592C22.4749 21.0032 19.7936 20.1122 18.9686 19.9066C17.6624 19.5639 13.2624 18.7415 11.9561 22.648C11.1999 25.0468 12.9186 27.7197 16.3561 29.5701ZM12.9186 23.0592C13.8811 20.1122 17.2499 20.6605 18.6936 21.0032C19.3811 21.2088 21.7874 21.8941 23.0249 23.7446C23.4374 24.3614 23.7811 25.1153 23.9186 25.8692C24.1249 26.6916 24.1936 27.377 24.1936 27.5826C24.1936 28.6106 23.9874 29.2275 23.7811 29.3645C22.9561 29.9814 19.6561 30.187 16.8374 28.6792C13.8811 27.0343 12.3686 24.8412 12.9186 23.0592Z" fill="#3C2323"/>
<path d="M28.1125 24.6356L27.8375 24.567C27.0812 24.3614 26.325 24.7726 26.1187 25.5265C26.05 25.7321 26.05 26.0063 26.1187 26.2119C26.2562 26.9658 26.3937 27.7197 26.3937 28.4736C26.325 29.0904 26.6 29.6387 27.0812 29.9814C27.6312 30.324 28.25 30.5296 28.8687 30.4611C29.35 30.4611 29.7625 30.3926 30.175 30.2555C30.8625 29.9814 31.4125 29.5016 31.6875 28.7477C31.9625 28.0624 31.825 27.2399 31.4125 26.6916C30.5875 25.5951 29.4187 24.8412 28.1125 24.6356ZM30.6562 28.405C30.5187 28.8163 30.2437 29.0904 29.8312 29.2275C29.075 29.4331 28.3187 29.4331 27.6312 29.0904C27.425 28.9533 27.2875 28.6792 27.3562 28.405C27.3562 27.5826 27.2875 26.7602 27.0812 25.9377C27.0812 25.8007 27.0812 25.6636 27.2187 25.5951C27.2875 25.5265 27.3562 25.5265 27.4937 25.5265C27.5625 25.5265 27.5625 25.5265 27.6312 25.5265L27.9062 25.5951C28.8687 25.8692 29.9 26.2119 30.5875 27.2399C30.725 27.5826 30.7937 27.9938 30.6562 28.405Z" fill="#3C2323"/>
<path d="M26.256 23.1278H26.3248C28.2498 23.2649 30.106 23.4019 31.3435 24.8412C32.2373 25.8692 33.3373 27.1029 34.9873 27.1029C35.3998 27.1029 35.7435 27.0343 36.156 26.8973C37.531 26.5546 38.6998 25.5951 39.3873 24.3614C39.8685 23.4019 39.8685 22.3739 39.456 21.4144C38.8373 19.701 37.256 18.4674 35.4685 18.1932C35.4685 18.1932 34.506 18.0562 33.406 18.0562C33.1998 18.0562 33.0623 18.0562 32.856 18.0562C32.856 18.0562 32.856 18.0562 32.7873 18.0562C30.5185 18.3303 28.3185 19.0842 26.3935 20.3178C26.3248 20.3864 26.256 20.4549 26.1873 20.5234C25.4998 21.0717 24.6748 21.6886 24.9498 22.3739C25.0873 23.0593 25.981 23.1278 26.256 23.1278ZM26.806 21.3459C26.8748 21.2773 27.0123 21.2088 27.081 21.1403C28.8685 20.0437 30.8623 19.3583 32.9248 19.0842C33.0623 19.0842 33.2685 19.0842 33.406 19.0842C33.406 19.0842 33.406 19.0842 33.4748 19.0842C33.8185 19.0842 34.2998 19.0842 35.056 19.1527C36.6373 19.2898 37.9435 20.3178 38.4935 21.7571C38.7685 22.4424 38.7685 23.2649 38.4248 23.8817C37.8748 24.8412 36.9123 25.5951 35.8123 25.8692C34.0935 26.4175 33.1998 25.321 32.0998 24.0873C30.5185 22.3054 28.3185 22.1683 26.3935 22.0312H26.3248C26.256 22.0312 26.1185 22.0312 26.0498 22.0312C26.256 21.8256 26.531 21.5515 26.806 21.3459Z" fill="#3C2323"/>
<path d="M41.8624 21.5515C41.1061 18.9471 38.9749 16.9596 36.2936 16.4113C31.9624 15.3147 29.0061 16.7539 26.8061 17.782C25.5686 18.3988 24.6061 18.8786 23.6436 18.7415C22.6811 18.6044 21.7186 18.3988 20.7561 18.1932C18.0061 17.5764 14.6374 16.8225 12.2999 17.8505C10.1686 18.8786 8.86238 21.0032 8.99988 23.4019V29.296C8.99988 30.8038 9.54988 32.1745 10.5124 33.2711C12.4374 35.3957 15.9436 38.0001 21.7186 38.0001C32.3061 38.0001 38.0811 33.4767 40.6249 30.8038C41.4499 29.9128 41.9311 28.7477 41.9311 27.5141V22.8536C41.9999 22.3739 41.9311 21.9627 41.8624 21.5515ZM12.7811 18.81C14.8436 17.9191 18.0061 18.6044 20.6186 19.2212C21.5811 19.4954 22.6124 19.6325 23.6436 19.7695C24.8124 19.9066 25.9811 19.3583 27.3561 18.673C29.4874 17.6449 32.1686 16.4113 36.1561 17.3708C38.4249 17.8505 40.2811 19.5639 40.9686 21.7571C41.3811 23.539 40.7624 25.2524 39.1124 26.6916C36.0186 29.3645 31.9624 32.243 21.9249 32.0374C18.6936 31.9689 16.0124 31.215 13.9499 29.8443C13.6061 29.6387 13.1936 29.296 12.7811 28.9533C12.7811 28.9533 12.7811 28.9533 12.7811 28.8848C11.4061 27.5826 10.4436 25.8692 10.2374 24.0187C10.0311 23.3334 9.82488 20.1122 12.7811 18.81ZM40.9686 27.5141C40.9686 28.4736 40.6249 29.3645 39.9374 30.1184C37.5311 32.7228 31.9624 37.0406 21.7874 37.0406C16.3561 37.0406 13.1249 34.6418 11.3374 32.6543C10.5124 31.7633 10.0999 30.5296 10.0999 29.3645V27.1714C10.5124 27.9253 10.9936 28.6106 11.6124 29.2275C11.6124 29.2275 12.4374 30.187 13.6749 30.9409C15.8061 32.3116 18.6249 33.0655 21.8561 33.134C22.1999 33.134 22.5436 33.134 22.8874 33.134C31.5499 33.134 35.9499 30.8723 39.7311 27.5826C40.2124 27.1714 40.6249 26.6916 41.0374 26.1434V27.5141H40.9686Z" fill="#3C2323"/>
<defs>
<linearGradient id="paint0_linear_930_68" x1="26.5" y1="35" x2="26.5" y2="59" gradientUnits="userSpaceOnUse">
<stop stop-color="#CDBB9C"/>
<stop offset="1" stop-color="#CDBB9C" stop-opacity="0"/>
</linearGradient>
</defs>
</svg>
