<?xml version="1.0" encoding="utf-8"?>
<!-- Generator: Adobe Illustrator 24.0.2, SVG Export Plug-In . SVG Version: 6.00 Build 0)  -->
<svg version="1.1" id="Layer_1" xmlns="http://www.w3.org/2000/svg" xmlns:xlink="http://www.w3.org/1999/xlink" x="0px" y="0px"
	 viewBox="0 0 181 83.9" style="enable-background:new 0 0 181 83.9;" xml:space="preserve">
<style type="text/css">
	.st0{fill:#FFFFFF;}
</style>
<g>
	<g>
		<g>
			<g>
				<path class="st0" d="M76.8,26.9c0.7,0.4,1.4,0.6,2.3,0.6c1.3,0,2.4-0.5,3.5-1.4c1.1-0.9,1.6-1.9,1.6-2.9c0-0.9-0.2-1.5-0.7-1.9
					c-0.5-0.4-1.1-0.6-1.9-0.6c-1.3,0-2.5,0.4-3.8,1.2c-1.3,0.8-1.9,1.8-1.9,2.9C75.8,25.9,76.1,26.5,76.8,26.9z"/>
				<path class="st0" d="M180,48.9c-1.5,3.6-3.4,6.6-5.8,8.7c-2.4,2.2-4.8,3.8-7.3,4.7c1.3-3.2,2.4-6.4,3.3-9.4
					c0.9-3.1,1.6-5.7,2.1-8c0.5-2.3,0.8-3.9,0.8-4.7c-0.3-0.1-0.6-0.2-0.9-0.2c-0.3,0-0.5,0-0.8,0c-1.3,0-2.3,0.5-2.9,1.5
					c-0.6,1-1,1.8-1.1,2.6c-0.1,0.6-0.2,1.3-0.4,1.9c-0.1,0.6-0.3,1.2-0.4,1.8c-1.1,1.7-2.2,3.4-3.4,4.9c-1.2,1.5-2.5,2.8-3.7,3.8
					c-1.2,1-2.4,1.5-3.4,1.5c-1.1,0-1.8-0.3-2.2-0.9c-0.4-0.6-0.6-1.3-0.6-2.3c0-1.1,0.2-2.3,0.6-3.8c0.4-1.5,0.8-3,1.4-4.6
					c0.6-1.6,1.1-3,1.7-4.2c0.6-1.3,1.1-2.2,1.6-2.9c0-0.3-0.3-0.6-0.8-0.9c-0.5-0.3-1-0.5-1.6-0.7c-0.6-0.2-0.9-0.2-1.1-0.2
					c-0.6,0-1.3,0.6-2.1,1.8c-0.8,1.2-1.6,2.7-2.3,4.6c-0.7,1.7-1.3,3.5-1.7,5.3l0,0c-1.3,2.5-2.9,4.9-4.8,7c-1.9,2.1-4,3.8-6.2,5.1
					c-2.2,1.3-4.5,1.9-6.7,1.9c-1.2,0-2.2-0.2-3-0.6c-0.8-0.4-1.5-0.9-1.9-1.5c-0.5-0.7-0.8-1.4-1-2.2c-0.2-0.8-0.3-1.6-0.3-2.4
					c0-0.4,0-0.9,0.1-1.3c0.1-0.5,0.1-1,0.2-1.5c2.3-0.2,4.6-0.8,6.8-1.6c2.3-0.9,4.4-2,6.3-3.4c1.9-1.4,3.5-2.9,4.7-4.7
					c1.2-1.8,1.8-3.7,1.8-5.7c0-2-0.5-3.2-1.5-3.9c-1-0.6-2.2-0.9-3.4-0.9c-2.3,0-4.7,0.7-7,2.2c-2.4,1.5-4.6,3.3-6.5,5.7
					c-2,2.3-3.6,4.8-4.7,7.4c-0.1,0.1-0.1,0.3-0.2,0.4l0,0c-0.9,2-2,3.9-3.3,5.8c-1.2,1.9-2.5,3.5-3.8,4.7c-1.3,1.2-2.6,1.9-4,1.9
					c-0.7,0-1.3-0.2-1.7-0.7c-0.4-0.4-0.7-1.2-0.7-2.3c0-1.3,0.3-2.6,0.8-3.9c0.6-1.3,1.1-2.6,1.6-4c0.5-1.4,0.8-2.9,0.8-4.6
					c0-1.8-0.5-3.4-1.4-4.9c-0.9-1.5-2.4-2.2-4.5-2.2c-2,0-4,0.7-6,2.1c-2,1.4-3.9,3.2-5.7,5.3c-1.8,2.1-3.4,4.3-4.8,6.5
					c0.7-2.2,1.3-4.2,1.8-6.2c0.5-2,0.7-3.4,0.7-4.2c0-1.4-0.7-2.1-2.1-2.1c-0.7,0-1.5,0.2-2.1,0.6c-0.7,0.4-1.2,0.7-1.5,1.1
					c0,1.7-0.3,3.7-0.9,5.8c-0.2,0.6-0.4,1.2-0.5,1.9c-2.2,4.3-4.3,7.3-6.2,9c-2,1.8-3.9,2.7-5.7,2.7c-1.3,0-2.3-0.3-2.9-0.9
					c-0.6-0.6-0.9-1.9-0.9-3.8c0-1.8,0.4-3.8,1.2-5.8c0.8-2,1.8-4,2.9-5.8c1.1-1.8,2.1-3.5,2.9-4.9c0.8-1.4,1.2-2.5,1.2-3.1
					c0-0.6-0.2-1-0.5-1.3c-0.3-0.3-0.8-0.4-1.2-0.4c-1.1,0-2.1,0.6-3.2,1.7c-1.1,1.1-2.2,2.6-3.1,4.4c-1,1.8-1.8,3.7-2.6,5.7
					c-0.7,2-1.3,4-1.8,5.8c-0.4,1.8-0.7,3.4-0.7,4.6c0,1.8,0.5,3.4,1.5,4.7c1,1.3,2.5,1.9,4.6,1.9c3.1,0,6.1-1.2,9-3.6
					c1.1-0.9,2.1-2,3-3.3c-0.3,0.7-0.5,1.3-0.7,1.9C80.3,60.1,80,61,80,61.2c0.4,0.6,1,1,1.8,1.3c0.8,0.3,1.6,0.4,2.4,0.4
					c1.1-1.7,2.3-3.7,3.6-5.9c1.4-2.2,2.8-4.4,4.4-6.5c1.6-2.1,3.2-3.8,4.9-5.1c1.7-1.3,3.4-2,5-2c0.9,0,1.6,0.3,2.3,0.8
					c0.6,0.6,0.9,1.6,0.9,3c0,1.2-0.2,2.5-0.6,3.8c-0.4,1.3-0.8,2.5-1.1,3.8c-0.4,1.2-0.6,2.4-0.6,3.5c0,1.5,0.5,2.7,1.4,3.6
					c0.9,0.9,2.3,1.4,4.2,1.4c2,0,3.8-0.6,5.5-1.7c1.6-1.2,3.1-2.7,4.5-4.7c0.5-0.7,0.9-1.4,1.3-2.1c0,0.4-0.1,0.9-0.1,1.3
					c0,2.6,0.8,4.8,2.4,6.5c1.6,1.8,4,2.7,7.2,2.7c2.6,0,5.2-0.6,7.8-1.9c2.6-1.3,4.9-3.1,7.1-5.4c1.4-1.5,2.6-3.1,3.7-4.9
					c-0.1,0.5-0.1,1-0.1,1.5c0,1.5,0.3,2.7,0.9,3.6c0.6,0.9,1.4,1.6,2.4,2.1c1,0.4,2,0.7,3,0.7c2.2,0,4.2-1,6.1-3
					c1.9-2,3.7-4.3,5.4-7.1c-0.7,2.9-1.4,5.6-2.2,8c-0.8,2.4-1.5,4.6-2.3,6.5c-2,1-3.9,2-5.8,3c-1.8,1-3.5,2.1-4.9,3.2
					c-1.4,1.1-2.6,2.3-3.4,3.6c-0.8,1.3-1.3,2.8-1.3,4.5c0,1.4,0.5,2.4,1.5,3.1c1,0.7,2.2,1.1,3.5,1.1c1.8,0,3.7-0.9,5.4-2.7
					c1.8-1.8,3.5-4.2,5.1-7.2c1.6-3,3.1-6.1,4.5-9.5c2-0.9,3.9-2,5.9-3.4c2-1.3,3.8-3,5.4-4.8c1.6-1.9,2.8-4.1,3.6-6.6L180,48.9z
					 M128,46.3c1.1-1.9,2.2-3.6,3.6-5.2c1.3-1.6,2.7-2.9,4.1-3.8c1.4-1,2.8-1.5,4-1.5c0.7,0,1.1,0.2,1.3,0.5
					c0.2,0.3,0.3,0.8,0.3,1.3c0,1.7-0.5,3.3-1.6,4.8c-1.1,1.5-2.5,2.9-4.1,4.2c-1.7,1.3-3.4,2.4-5.2,3.3c-1.8,0.9-3.4,1.6-4.8,2.1
					C126.1,50.1,126.9,48.2,128,46.3z M154.7,78.2c-1.9,2.1-3.2,3.1-4,3.1s-1.3-0.3-1.7-0.9c-0.3-0.6-0.5-1.1-0.5-1.5
					c0-1.7,0.6-3.3,1.7-4.6c1.1-1.3,2.6-2.5,4.4-3.7c1.8-1.1,3.9-2.3,6-3.4C158.5,72.5,156.6,76.1,154.7,78.2z"/>
			</g>
			<g>
				<g>
					<path class="st0" d="M69.6,4.2c-1.1-1.4-2.1-2.1-3.2-2.1c-0.7,0-1.4,0.3-2.3,0.9c-0.8,0.6-1.6,1.5-2.3,2.8
						c1.3,0.4,2.4,1.2,3.2,2.4c0.8,1.2,1.2,3.2,1.2,5.8c0,2.9-0.5,6.1-1.4,9.5c-0.9,3.4-2.2,6.9-3.8,10.5c0,0,0,0.1,0,0.1
						c-0.5,1-1.2,1.9-2.2,2.6c-7,4.8-12.6,14.9-17.4,13.2c-2.5-0.9-0.8-4-1.2-6.7c-0.2-1.4-2.8-5-9.1-1.6c-3.1,1.7-4.3-4.5-4.8-8.2
						c-1.4-11.5,1.4-22.8-3.6-28.9c-0.1-0.2-0.2-0.4-0.3-0.6C20.6,1.3,18.2,0,14.9,0c-2,0-3.8,0.4-5.5,1.3c-1.7,0.8-3.3,2-4.6,3.4
						C3.4,6,2.4,7.5,1.6,9.2c-0.8,1.6-1.1,3.3-1.1,4.9c0,1.5,0.4,2.9,1.3,4c0.8,1.1,2.3,1.7,4.4,1.7c-0.5-1.1-0.7-2.5-0.7-4.3
						c0-1.3,0.1-2.7,0.4-4.3c0.3-1.5,0.8-3,1.4-4.4c0.7-1.4,1.5-2.5,2.5-3.4c1-0.9,2.3-1.3,3.8-1.3c1.6,0,2.7,0.5,3.4,1.5
						c0.7,1,1.1,2.4,1.2,4.1c0.1,1.7,0.2,3.5,0.2,5.5c0,2.8-0.3,5.7-0.8,8.8c-0.6,3.1-1.3,6.1-2.1,9.2c-0.8,3.1-1.7,6-2.6,8.9
						c-1.2,3.7-2.2,7.1-3.1,10.1c-0.9,3-1.3,5.5-1.3,7.3c0,1.3,0.2,2.4,0.7,3.2c0.5,0.8,1.1,1.5,1.8,1.9c0.7,0.4,1.5,0.8,2.3,0.9
						c0.8,0.2,1.4,0.3,2,0.3c2.6,0,5.3-1.2,8.1-3.7c1.9-1.7,4.7-2.1,5.9-1.6c1.3,0.5,1.1,1.9,1.8,2.7c0.7,0.9,1.6,1.5,2.7,1.9
						c1.1,0.4,2.1,0.6,3.1,0.6c2.2,0,4.5-0.9,7-2.7c2.5-1.8,5.1-4.2,7.7-7.2c2.6-3,5.1-6.4,7.4-10.1c2.4-3.7,4.5-7.6,6.3-11.6
						c1.8-4,3.3-7.8,4.4-11.5c1.1-3.7,1.6-7,1.6-9.9C71.2,7.8,70.7,5.6,69.6,4.2z"/>
				</g>
				<path class="st0" d="M0.5,25.6c-1-1.6-0.3-3.9-0.3-3.9c1.1,1.6,5.7,1.8,5.3,4.1C5.1,27.9,1.9,27.9,0.5,25.6z"/>
				<g>
					<path class="st0" d="M51.7,38.7c-0.3-0.1-0.5-0.5-0.2-0.9c1.9-2.3,5.7-9.9,6.3-13.6c0.2-1.6,0.8-3.9,0-6.7
						c-0.5-1.7-1.9-1.9-1.3-3.6c0.3-0.8,0.9-1.1,1.8-1.1c0.8,0,1.5,0.4,2,1.1l0.6,0.9c0.4,0.6,0.5,2.6,0.1,5.7
						C60.1,25.7,53.6,39.1,51.7,38.7z M58.2,14.6"/>
				</g>
			</g>
		</g>
	</g>
</g>
</svg>
