<!--?xml version="1.0" encoding="utf-8"?-->
<!-- Generator: Adobe Illustrator 24.0.2, SVG Export Plug-In . SVG Version: 6.00 Build 0)  -->
<svg version="1.1" id="Layer_1" xmlns="http://www.w3.org/2000/svg" xmlns:xlink="http://www.w3.org/1999/xlink" x="0px" y="0px" viewBox="0 0 193.5 89.7" style="enable-background:new 0 0 193.5 89.7;" xml:space="preserve" width="193.5" height="89.69999694824219">
<style type="text/css">
	.st0{fill:#7C1D34;stroke:#7C1D34;stroke-miterlimit:10;}

	/***************************************************
 * Generated by SVG Artista on 8/5/2023, 10:06:49 AM
 * MIT license (https://opensource.org/licenses/MIT)
 * W. https://svgartista.net
 **************************************************/

@-webkit-keyframes animate-svg-stroke-1 {
  0% {
    stroke-dashoffset: 25.93062973022461px;
    stroke-dasharray: 25.93062973022461px;
  }

  100% {
    stroke-dashoffset: 0;
    stroke-dasharray: 25.93062973022461px;
  }
}

@keyframes animate-svg-stroke-1 {
  0% {
    stroke-dashoffset: 25.93062973022461px;
    stroke-dasharray: 25.93062973022461px;
  }

  100% {
    stroke-dashoffset: 0;
    stroke-dasharray: 25.93062973022461px;
  }
}

@-webkit-keyframes animate-svg-fill-1 {
  0% {
    fill: transparent;
  }

  100% {
    fill: rgb(124, 29, 52);
  }
}

@keyframes animate-svg-fill-1 {
  0% {
    fill: transparent;
  }

  100% {
    fill: rgb(124, 29, 52);
  }
}

.svg-elem-1 {
  -webkit-animation: animate-svg-stroke-1 1s cubic-bezier(0.47, 0, 0.745, 0.715) 0s both,
                       animate-svg-fill-1 0.7s cubic-bezier(0.47, 0, 0.745, 0.715) 0.8s both;
          animation: animate-svg-stroke-1 1s cubic-bezier(0.47, 0, 0.745, 0.715) 0s both,
               animate-svg-fill-1 0.7s cubic-bezier(0.47, 0, 0.745, 0.715) 0.8s both;
}

@-webkit-keyframes animate-svg-stroke-2 {
  0% {
    stroke-dashoffset: 723.784912109375px;
    stroke-dasharray: 723.784912109375px;
  }

  100% {
    stroke-dashoffset: 0;
    stroke-dasharray: 723.784912109375px;
  }
}

@keyframes animate-svg-stroke-2 {
  0% {
    stroke-dashoffset: 723.784912109375px;
    stroke-dasharray: 723.784912109375px;
  }

  100% {
    stroke-dashoffset: 0;
    stroke-dasharray: 723.784912109375px;
  }
}

@-webkit-keyframes animate-svg-fill-2 {
  0% {
    fill: transparent;
  }

  100% {
    fill: rgb(124, 29, 52);
  }
}

@keyframes animate-svg-fill-2 {
  0% {
    fill: transparent;
  }

  100% {
    fill: rgb(124, 29, 52);
  }
}

.svg-elem-2 {
  -webkit-animation: animate-svg-stroke-2 1s cubic-bezier(0.47, 0, 0.745, 0.715) 0.12s both,
                       animate-svg-fill-2 0.7s cubic-bezier(0.47, 0, 0.745, 0.715) 0.9s both;
          animation: animate-svg-stroke-2 1s cubic-bezier(0.47, 0, 0.745, 0.715) 0.12s both,
               animate-svg-fill-2 0.7s cubic-bezier(0.47, 0, 0.745, 0.715) 0.9s both;
}

@-webkit-keyframes animate-svg-stroke-3 {
  0% {
    stroke-dashoffset: 358.2852478027344px;
    stroke-dasharray: 358.2852478027344px;
  }

  100% {
    stroke-dashoffset: 0;
    stroke-dasharray: 358.2852478027344px;
  }
}

@keyframes animate-svg-stroke-3 {
  0% {
    stroke-dashoffset: 358.2852478027344px;
    stroke-dasharray: 358.2852478027344px;
  }

  100% {
    stroke-dashoffset: 0;
    stroke-dasharray: 358.2852478027344px;
  }
}

@-webkit-keyframes animate-svg-fill-3 {
  0% {
    fill: transparent;
  }

  100% {
    fill: rgb(124, 29, 52);
  }
}

@keyframes animate-svg-fill-3 {
  0% {
    fill: transparent;
  }

  100% {
    fill: rgb(124, 29, 52);
  }
}

.svg-elem-3 {
  -webkit-animation: animate-svg-stroke-3 1s cubic-bezier(0.47, 0, 0.745, 0.715) 0.24s both,
                       animate-svg-fill-3 0.7s cubic-bezier(0.47, 0, 0.745, 0.715) 1s both;
          animation: animate-svg-stroke-3 1s cubic-bezier(0.47, 0, 0.745, 0.715) 0.24s both,
               animate-svg-fill-3 0.7s cubic-bezier(0.47, 0, 0.745, 0.715) 1s both;
}

@-webkit-keyframes animate-svg-stroke-4 {
  0% {
    stroke-dashoffset: 19.511146545410156px;
    stroke-dasharray: 19.511146545410156px;
  }

  100% {
    stroke-dashoffset: 0;
    stroke-dasharray: 19.511146545410156px;
  }
}

@keyframes animate-svg-stroke-4 {
  0% {
    stroke-dashoffset: 19.511146545410156px;
    stroke-dasharray: 19.511146545410156px;
  }

  100% {
    stroke-dashoffset: 0;
    stroke-dasharray: 19.511146545410156px;
  }
}

@-webkit-keyframes animate-svg-fill-4 {
  0% {
    fill: transparent;
  }

  100% {
    fill: rgb(124, 29, 52);
  }
}

@keyframes animate-svg-fill-4 {
  0% {
    fill: transparent;
  }

  100% {
    fill: rgb(124, 29, 52);
  }
}

.svg-elem-4 {
  -webkit-animation: animate-svg-stroke-4 1s cubic-bezier(0.47, 0, 0.745, 0.715) 0.36s both,
                       animate-svg-fill-4 0.7s cubic-bezier(0.47, 0, 0.745, 0.715) 1.1s both;
          animation: animate-svg-stroke-4 1s cubic-bezier(0.47, 0, 0.745, 0.715) 0.36s both,
               animate-svg-fill-4 0.7s cubic-bezier(0.47, 0, 0.745, 0.715) 1.1s both;
}

@-webkit-keyframes animate-svg-stroke-5 {
  0% {
    stroke-dashoffset: 61.26286697387695px;
    stroke-dasharray: 61.26286697387695px;
  }

  100% {
    stroke-dashoffset: 0;
    stroke-dasharray: 61.26286697387695px;
  }
}

@keyframes animate-svg-stroke-5 {
  0% {
    stroke-dashoffset: 61.26286697387695px;
    stroke-dasharray: 61.26286697387695px;
  }

  100% {
    stroke-dashoffset: 0;
    stroke-dasharray: 61.26286697387695px;
  }
}

@-webkit-keyframes animate-svg-fill-5 {
  0% {
    fill: transparent;
  }

  100% {
    fill: rgb(124, 29, 52);
  }
}

@keyframes animate-svg-fill-5 {
  0% {
    fill: transparent;
  }

  100% {
    fill: rgb(124, 29, 52);
  }
}

.svg-elem-5 {
  -webkit-animation: animate-svg-stroke-5 1s cubic-bezier(0.47, 0, 0.745, 0.715) 0.48s both,
                       animate-svg-fill-5 0.7s cubic-bezier(0.47, 0, 0.745, 0.715) 1.2000000000000002s both;
          animation: animate-svg-stroke-5 1s cubic-bezier(0.47, 0, 0.745, 0.715) 0.48s both,
               animate-svg-fill-5 0.7s cubic-bezier(0.47, 0, 0.745, 0.715) 1.2000000000000002s both;
}

</style>
<g>
	<g>
		<g>
			<g>
				<path class="st0 svg-elem-1" d="M83,29.8c0.7,0.4,1.4,0.6,2.3,0.6c1.3,0,2.4-0.5,3.5-1.4s1.6-1.9,1.6-2.9c0-0.9-0.2-1.5-0.7-1.9
					s-1.1-0.6-1.9-0.6c-1.3,0-2.5,0.4-3.8,1.2c-1.3,0.8-1.9,1.8-1.9,2.9C82,28.8,82.3,29.4,83,29.8z"></path>
				<path class="st0 svg-elem-2" d="M186.2,51.8c-1.5,3.6-3.4,6.6-5.8,8.7c-2.4,2.2-4.8,3.8-7.3,4.7c1.3-3.2,2.4-6.4,3.3-9.4
					c0.9-3.1,1.6-5.7,2.1-8s0.8-3.9,0.8-4.7c-0.3-0.1-0.6-0.2-0.9-0.2c-0.3,0-0.5,0-0.8,0c-1.3,0-2.3,0.5-2.9,1.5
					c-0.6,1-1,1.8-1.1,2.6c-0.1,0.6-0.2,1.3-0.4,1.9c-0.1,0.6-0.3,1.2-0.4,1.8c-1.1,1.7-2.2,3.4-3.4,4.9s-2.5,2.8-3.7,3.8
					s-2.4,1.5-3.4,1.5c-1.1,0-1.8-0.3-2.2-0.9c-0.4-0.6-0.6-1.3-0.6-2.3c0-1.1,0.2-2.3,0.6-3.8c0.4-1.5,0.8-3,1.4-4.6
					c0.6-1.6,1.1-3,1.7-4.2c0.6-1.3,1.1-2.2,1.6-2.9c0-0.3-0.3-0.6-0.8-0.9c-0.5-0.3-1-0.5-1.6-0.7s-0.9-0.2-1.1-0.2
					c-0.6,0-1.3,0.6-2.1,1.8s-1.6,2.7-2.3,4.6c-0.7,1.7-1.3,3.5-1.7,5.3l0,0c-1.3,2.5-2.9,4.9-4.8,7c-1.9,2.1-4,3.8-6.2,5.1
					c-2.2,1.3-4.5,1.9-6.7,1.9c-1.2,0-2.2-0.2-3-0.6c-0.8-0.4-1.5-0.9-1.9-1.5c-0.5-0.7-0.8-1.4-1-2.2s-0.3-1.6-0.3-2.4
					c0-0.4,0-0.9,0.1-1.3c0.1-0.5,0.1-1,0.2-1.5c2.3-0.2,4.6-0.8,6.8-1.6c2.3-0.9,4.4-2,6.3-3.4c1.9-1.4,3.5-2.9,4.7-4.7
					s1.8-3.7,1.8-5.7s-0.5-3.2-1.5-3.9c-1-0.6-2.2-0.9-3.4-0.9c-2.3,0-4.7,0.7-7,2.2c-2.4,1.5-4.6,3.3-6.5,5.7
					c-2,2.3-3.6,4.8-4.7,7.4c-0.1,0.1-0.1,0.3-0.2,0.4l0,0c-0.9,2-2,3.9-3.3,5.8c-1.2,1.9-2.5,3.5-3.8,4.7s-2.6,1.9-4,1.9
					c-0.7,0-1.3-0.2-1.7-0.7c-0.4-0.4-0.7-1.2-0.7-2.3c0-1.3,0.3-2.6,0.8-3.9c0.6-1.3,1.1-2.6,1.6-4s0.8-2.9,0.8-4.6
					c0-1.8-0.5-3.4-1.4-4.9s-2.4-2.2-4.5-2.2c-2,0-4,0.7-6,2.1c-2,1.4-3.9,3.2-5.7,5.3c-1.8,2.1-3.4,4.3-4.8,6.5
					c0.7-2.2,1.3-4.2,1.8-6.2s0.7-3.4,0.7-4.2c0-1.4-0.7-2.1-2.1-2.1c-0.7,0-1.5,0.2-2.1,0.6c-0.7,0.4-1.2,0.7-1.5,1.1
					c0,1.7-0.3,3.7-0.9,5.8c-0.2,0.6-0.4,1.2-0.5,1.9c-2.2,4.3-4.3,7.3-6.2,9c-2,1.8-3.9,2.7-5.7,2.7c-1.3,0-2.3-0.3-2.9-0.9
					c-0.6-0.6-0.9-1.9-0.9-3.8c0-1.8,0.4-3.8,1.2-5.8c0.8-2,1.8-4,2.9-5.8s2.1-3.5,2.9-4.9s1.2-2.5,1.2-3.1s-0.2-1-0.5-1.3
					s-0.8-0.4-1.2-0.4c-1.1,0-2.1,0.6-3.2,1.7c-1.1,1.1-2.2,2.6-3.1,4.4c-1,1.8-1.8,3.7-2.6,5.7c-0.7,2-1.3,4-1.8,5.8
					c-0.4,1.8-0.7,3.4-0.7,4.6c0,1.8,0.5,3.4,1.5,4.7c1,1.3,2.5,1.9,4.6,1.9c3.1,0,6.1-1.2,9-3.6c1.1-0.9,2.1-2,3-3.3
					c-0.3,0.7-0.5,1.3-0.7,1.9c-0.9,0.8-1.2,1.7-1.2,1.9c0.4,0.6,1,1,1.8,1.3c0.8,0.3,1.6,0.4,2.4,0.4c1.1-1.7,2.3-3.7,3.6-5.9
					c1.4-2.2,2.8-4.4,4.4-6.5s3.2-3.8,4.9-5.1c1.7-1.3,3.4-2,5-2c0.9,0,1.6,0.3,2.3,0.8c0.6,0.6,0.9,1.6,0.9,3
					c0,1.2-0.2,2.5-0.6,3.8s-0.8,2.5-1.1,3.8c-0.4,1.2-0.6,2.4-0.6,3.5c0,1.5,0.5,2.7,1.4,3.6s2.3,1.4,4.2,1.4c2,0,3.8-0.6,5.5-1.7
					c1.6-1.2,3.1-2.7,4.5-4.7c0.5-0.7,0.9-1.4,1.3-2.1c0,0.4-0.1,0.9-0.1,1.3c0,2.6,0.8,4.8,2.4,6.5c1.6,1.8,4,2.7,7.2,2.7
					c2.6,0,5.2-0.6,7.8-1.9c2.6-1.3,4.9-3.1,7.1-5.4c1.4-1.5,2.6-3.1,3.7-4.9c-0.1,0.5-0.1,1-0.1,1.5c0,1.5,0.3,2.7,0.9,3.6
					c0.6,0.9,1.4,1.6,2.4,2.1c1,0.4,2,0.7,3,0.7c2.2,0,4.2-1,6.1-3c1.9-2,3.7-4.3,5.4-7.1c-0.7,2.9-1.4,5.6-2.2,8
					c-0.8,2.4-1.5,4.6-2.3,6.5c-2,1-3.9,2-5.8,3c-1.8,1-3.5,2.1-4.9,3.2s-2.6,2.3-3.4,3.6c-0.8,1.3-1.3,2.8-1.3,4.5
					c0,1.4,0.5,2.4,1.5,3.1s2.2,1.1,3.5,1.1c1.8,0,3.7-0.9,5.4-2.7c1.8-1.8,3.5-4.2,5.1-7.2s3.1-6.1,4.5-9.5c2-0.9,3.9-2,5.9-3.4
					c2-1.3,3.8-3,5.4-4.8c1.6-1.9,2.8-4.1,3.6-6.6L186.2,51.8z M134.2,49.2c1.1-1.9,2.2-3.6,3.6-5.2c1.3-1.6,2.7-2.9,4.1-3.8
					c1.4-1,2.8-1.5,4-1.5c0.7,0,1.1,0.2,1.3,0.5s0.3,0.8,0.3,1.3c0,1.7-0.5,3.3-1.6,4.8s-2.5,2.9-4.1,4.2c-1.7,1.3-3.4,2.4-5.2,3.3
					c-1.8,0.9-3.4,1.6-4.8,2.1C132.3,53,133.1,51.1,134.2,49.2z M160.9,81.1c-1.9,2.1-3.2,3.1-4,3.1s-1.3-0.3-1.7-0.9
					c-0.3-0.6-0.5-1.1-0.5-1.5c0-1.7,0.6-3.3,1.7-4.6c1.1-1.3,2.6-2.5,4.4-3.7c1.8-1.1,3.9-2.3,6-3.4
					C164.7,75.4,162.8,79,160.9,81.1z"></path>
			</g>
			<g>
				<g>
					<path class="st0 svg-elem-3" d="M75.8,7.1C74.7,5.7,73.7,5,72.6,5c-0.7,0-1.4,0.3-2.3,0.9c-0.8,0.6-1.6,1.5-2.3,2.8
						c1.3,0.4,2.4,1.2,3.2,2.4s1.2,3.2,1.2,5.8c0,2.9-0.5,6.1-1.4,9.5s-2.2,6.9-3.8,10.5V37c-0.5,1-1.2,1.9-2.2,2.6
						c-7,4.8-12.6,14.9-17.4,13.2c-2.5-0.9-0.8-4-1.2-6.7c-0.2-1.4-2.8-5-9.1-1.6c-3.1,1.7-4.3-4.5-4.8-8.2
						c-1.4-11.5,1.4-22.8-3.6-28.9c-0.1-0.2-0.2-0.4-0.3-0.6c-1.8-2.6-4.2-3.9-7.5-3.9c-2,0-3.8,0.4-5.5,1.3c-1.7,0.8-3.3,2-4.6,3.4
						c-1.4,1.3-2.4,2.8-3.2,4.5C7,13.7,6.7,15.4,6.7,17c0,1.5,0.4,2.9,1.3,4c0.8,1.1,2.3,1.7,4.4,1.7c-0.5-1.1-0.7-2.5-0.7-4.3
						c0-1.3,0.1-2.7,0.4-4.3c0.3-1.5,0.8-3,1.4-4.4C14.2,8.3,15,7.2,16,6.3S18.3,5,19.8,5c1.6,0,2.7,0.5,3.4,1.5
						c0.7,1,1.1,2.4,1.2,4.1s0.2,3.5,0.2,5.5c0,2.8-0.3,5.7-0.8,8.8c-0.6,3.1-1.3,6.1-2.1,9.2c-0.8,3.1-1.7,6-2.6,8.9
						c-1.2,3.7-2.2,7.1-3.1,10.1c-0.9,3-1.3,5.5-1.3,7.3c0,1.3,0.2,2.4,0.7,3.2c0.5,0.8,1.1,1.5,1.8,1.9c0.7,0.4,1.5,0.8,2.3,0.9
						c0.8,0.2,1.4,0.3,2,0.3c2.6,0,5.3-1.2,8.1-3.7c1.9-1.7,4.7-2.1,5.9-1.6c1.3,0.5,1.1,1.9,1.8,2.7C38,65,38.9,65.6,40,66
						s2.1,0.6,3.1,0.6c2.2,0,4.5-0.9,7-2.7c2.5-1.8,5.1-4.2,7.7-7.2c2.6-3,5.1-6.4,7.4-10.1c2.4-3.7,4.5-7.6,6.3-11.6
						s3.3-7.8,4.4-11.5s1.6-7,1.6-9.9C77.4,10.7,76.9,8.5,75.8,7.1z"></path>
				</g>
				<path class="st0 svg-elem-4" d="M6.7,28.5c-1-1.6-0.3-3.9-0.3-3.9c1.1,1.6,5.7,1.8,5.3,4.1C11.3,30.8,8.1,30.8,6.7,28.5z"></path>
				<g>
					<path class="st0 svg-elem-5" d="M57.9,41.6c-0.3-0.1-0.5-0.5-0.2-0.9c1.9-2.3,5.7-9.9,6.3-13.6c0.2-1.6,0.8-3.9,0-6.7
						c-0.5-1.7-1.9-1.9-1.3-3.6c0.3-0.8,0.9-1.1,1.8-1.1c0.8,0,1.5,0.4,2,1.1l0.6,0.9c0.4,0.6,0.5,2.6,0.1,5.7
						C66.3,28.6,59.8,42,57.9,41.6z"></path>
				</g>
			</g>
		</g>
	</g>
</g>
</svg>
